<svg width="130" height="130" viewBox="0 0 130 130" fill="none" xmlns="http://www.w3.org/2000/svg">
<g clip-path="url(#clip0_978_75)">
<path d="M126.159 65.0002C126.159 31.2242 98.7781 3.84337 65.0021 3.84336C31.2262 3.84336 3.84531 31.2242 3.84531 65.0002C3.84532 98.7761 31.2262 126.157 65.0021 126.157C98.7781 126.157 126.159 98.7761 126.159 65.0002ZM130.059 65.0002C130.059 100.93 100.932 130.057 65.0021 130.057C29.0723 130.057 -0.0546787 100.93 -0.0546875 65.0002C-0.0546875 29.0703 29.0723 -0.0566406 65.0021 -0.0566406C100.932 -0.0566318 130.059 29.0703 130.059 65.0002Z" fill="#9D6C3C"/>
<path d="M65.0364 127.827C99.8894 127.827 128.143 99.5962 128.143 64.7711C128.143 29.9461 99.8894 1.71484 65.0364 1.71484C30.1836 1.71484 1.92969 29.9461 1.92969 64.7711C1.92969 99.5962 30.1836 127.827 65.0364 127.827Z" fill="#733E0A"/>
<path d="M65.0364 127.729C99.8894 127.729 128.143 99.4975 128.143 64.6725C128.143 29.8475 99.8894 1.61621 65.0364 1.61621C30.1836 1.61621 1.92969 29.8475 1.92969 64.6725C1.92969 99.4975 30.1836 127.729 65.0364 127.729Z" fill="url(#paint0_linear_978_75)"/>
<path d="M64.9579 120.877C96.1992 120.877 121.525 95.6639 121.525 64.562C121.525 33.4601 96.1992 8.24707 64.9579 8.24707C33.7167 8.24707 8.39062 33.4601 8.39062 64.562C8.39062 95.6639 33.7167 120.877 64.9579 120.877Z" fill="#FED571"/>
<path d="M65.0752 120.757C96.3165 120.757 121.643 95.5437 121.643 64.4418C121.643 33.34 96.3165 8.12695 65.0752 8.12695C33.8339 8.12695 8.50781 33.34 8.50781 64.4418C8.50781 95.5437 33.8339 120.757 65.0752 120.757Z" fill="url(#paint1_linear_978_75)"/>
<path d="M63.2837 120.875L69.8721 120.757C69.8721 120.757 86.3461 77.7777 85.4421 70.4557C84.5365 63.1338 85.0177 57.9606 77.5616 55.8544C70.1056 53.7482 66.0399 58.3518 66.0399 58.3518C66.0399 58.3518 54.7233 54.2878 51.0473 55.8544C47.3713 57.421 43.0217 64.2776 43.8358 65.7464C44.6499 67.2152 41.19 70.8991 46.1187 79.1913C51.0473 87.4835 63.2853 120.875 63.2853 120.875H63.2837Z" fill="white"/>
<path d="M63.2837 120.875L69.8721 120.757C69.8721 120.757 86.3461 77.7777 85.4421 70.4557C84.5365 63.1338 85.0177 57.9606 77.5616 55.8544C70.1056 53.7482 66.0399 58.3518 66.0399 58.3518C66.0399 58.3518 54.7233 54.2878 51.0473 55.8544C47.3713 57.421 43.0217 64.2776 43.8358 65.7464C44.6499 67.2152 41.19 70.8991 46.1187 79.1913C51.0473 87.4835 63.2853 120.875 63.2853 120.875H63.2837Z" fill="url(#paint2_linear_978_75)"/>
<path d="M32.6797 110.813C32.6797 110.813 44.6274 120.293 64.1747 120.757C64.1747 120.757 56.8038 96.2759 54.674 93.5118C54.674 93.5118 45.0013 91.8363 42.7831 87.96C42.7831 87.96 34.3252 98.229 32.6797 110.813Z" fill="#403D39"/>
<path d="M97.0254 110.678C97.0254 110.678 87.0703 119.452 69.0312 120.876C69.0312 120.876 74.2376 95.2598 76.6861 93.5133C76.6861 93.5133 84.4467 90.6624 88.5044 88.7188C88.5044 88.7188 97.5571 100.681 97.0239 110.68L97.0254 110.678Z" fill="#403D39"/>
<path d="M97.0254 110.678C97.0254 110.678 87.0703 119.452 69.0312 120.876C69.0312 120.876 74.2376 95.2598 76.6861 93.5133C76.6861 93.5133 84.4467 90.6624 88.5044 88.7188C88.5044 88.7188 97.5571 100.681 97.0239 110.68L97.0254 110.678Z" fill="url(#paint3_linear_978_75)"/>
<path d="M32.6797 110.813C32.6797 110.813 44.6274 120.293 64.1747 120.757C64.1747 120.757 56.8038 96.2759 54.674 93.5118C54.674 93.5118 45.0013 91.8363 42.7831 87.96C42.7831 87.96 34.3252 98.229 32.6797 110.813Z" fill="url(#paint4_linear_978_75)"/>
<path d="M52.1037 83.233C52.1037 83.233 44.9568 80.7687 44.2422 69.1965C44.2422 69.1965 44.9142 54.2575 61.5776 59.8693C61.5776 59.8693 64.3622 61.5369 71.7615 59.3771C79.1607 57.2172 82.7026 62.2137 83.9505 64.443C85.443 67.1061 84.853 80.6267 79.3516 83.5848L84.7204 81.4392C84.7204 81.4392 89.9094 72.893 88.5163 64.443C88.5163 64.443 90.1634 66.3993 93.0347 65.074L88.7056 61.5937C88.7056 61.5937 90.7771 62.8164 93.0347 61.3429C93.0347 61.3429 85.9053 56.9648 85.4414 51.0202C84.9776 45.0755 81.7749 36.3478 80.0584 36.7833C78.3419 37.2203 77.561 38.5455 77.561 38.5455L73.9213 48.4706L73.5332 53.3062C73.5332 53.3062 63.0401 48.802 56.3823 54.2859L56.092 50.2219C56.092 50.2219 53.0203 37.0183 49.1408 37.0183C45.2613 37.0183 43.6395 56.4994 41.7447 57.2677C41.7447 57.2677 37.5008 61.5038 36.7861 61.1977C36.0714 60.8916 37.8068 62.8306 40.5646 61.8098C40.5646 61.8098 37.8289 64.6528 37.2058 65.0172C36.5826 65.3801 41.0079 65.5489 41.5522 64.4445C41.5522 64.4445 41.8914 79.2557 45.5674 81.1947C49.2434 83.1336 52.1021 83.2346 52.1021 83.2346L52.1037 83.233Z" fill="#403D39"/>
<path d="M52.1037 83.233C52.1037 83.233 44.9568 80.7687 44.2422 69.1965C44.2422 69.1965 44.9142 54.2575 61.5776 59.8693C61.5776 59.8693 64.3622 61.5369 71.7615 59.3771C79.1607 57.2172 82.7026 62.2137 83.9505 64.443C85.443 67.1061 84.853 80.6267 79.3516 83.5848L84.7204 81.4392C84.7204 81.4392 89.9094 72.893 88.5163 64.443C88.5163 64.443 90.1634 66.3993 93.0347 65.074L88.7056 61.5937C88.7056 61.5937 90.7771 62.8164 93.0347 61.3429C93.0347 61.3429 85.9053 56.9648 85.4414 51.0202C84.9776 45.0755 81.7749 36.3478 80.0584 36.7833C78.3419 37.2203 77.561 38.5455 77.561 38.5455L73.9213 48.4706L73.5332 53.3062C73.5332 53.3062 63.0401 48.802 56.3823 54.2859L56.092 50.2219C56.092 50.2219 53.0203 37.0183 49.1408 37.0183C45.2613 37.0183 43.6395 56.4994 41.7447 57.2677C41.7447 57.2677 37.5008 61.5038 36.7861 61.1977C36.0714 60.8916 37.8068 62.8306 40.5646 61.8098C40.5646 61.8098 37.8289 64.6528 37.2058 65.0172C36.5826 65.3801 41.0079 65.5489 41.5522 64.4445C41.5522 64.4445 41.8914 79.2557 45.5674 81.1947C49.2434 83.1336 52.1021 83.2346 52.1021 83.2346L52.1037 83.233Z" fill="url(#paint5_linear_978_75)"/>
<path d="M56.3828 49.5651C56.3828 49.5651 63.8436 30.3506 72.9247 48.4702L73.5337 53.3057C73.5337 53.3057 63.2457 48.6894 56.3828 54.2854V49.5651Z" fill="#FF7703"/>
<path d="M56.3828 49.5651C56.3828 49.5651 63.8436 30.3506 72.9247 48.4702L73.5337 53.3057C73.5337 53.3057 63.2457 48.6894 56.3828 54.2854V49.5651Z" fill="url(#paint6_linear_978_75)"/>
<path d="M44.3403 80.3174C44.3403 80.3174 41.3238 84.0139 42.78 87.9596C42.78 87.9596 43.7471 93.5114 67.0982 94.6048C67.0982 94.6048 73.4152 95.2579 88.0796 89.247C88.0796 89.247 89.4759 83.3213 85.4402 80.319C85.4402 80.319 83.0406 83.2345 67.5794 87.3301L65.6436 86.4987L64.1716 87.3301C64.1716 87.3301 44.9666 81.9897 44.3403 80.319V80.3174Z" fill="#FF7703"/>
<path d="M62.9437 94.0758L66.6276 94.6248L56.9738 116.05C56.9738 116.05 52.782 100.259 62.9437 94.0742V94.0758Z" fill="#FF7703"/>
<path d="M69.1448 94.3043L65.4609 94.8533L75.1147 116.278C75.1147 116.278 79.3066 100.487 69.1448 94.3027V94.3043Z" fill="#FF7703"/>
<path d="M44.3403 80.3174C44.3403 80.3174 41.3238 84.0139 42.78 87.9596C42.78 87.9596 43.7471 93.5114 67.0982 94.6048C67.0982 94.6048 73.4152 95.2579 88.0796 89.247C88.0796 89.247 89.4759 83.3213 85.4402 80.319C85.4402 80.319 83.0406 83.2345 67.5794 87.3301L65.6436 86.4987L64.1716 87.3301C64.1716 87.3301 44.9666 81.9897 44.3403 80.319V80.3174Z" fill="url(#paint7_linear_978_75)"/>
<path d="M62.9437 94.0758L66.6276 94.6248L56.9738 116.05C56.9738 116.05 52.782 100.259 62.9437 94.0742V94.0758Z" fill="url(#paint8_linear_978_75)"/>
<path d="M69.1448 94.3043L65.4609 94.8533L75.1147 116.278C75.1147 116.278 79.3066 100.487 69.1448 94.3027V94.3043Z" fill="url(#paint9_linear_978_75)"/>
<path d="M45.9609 90.6749L54.4535 84.6719L56.891 85.1941L47.8699 91.5836L45.9609 90.6749Z" fill="#FED571"/>
<path d="M69.7656 93.9079L76.9945 84.079L79.8864 83.8076L72.211 94.2644L69.7656 93.9079Z" fill="#FED571"/>
<path d="M75.4844 92.9736L85.0167 80.3428L86.6069 81.5118L78.9332 91.9686L75.4844 92.9736Z" fill="#FED571"/>
<path d="M50.1094 92.0532L58.602 86.0518L61.0395 86.5724L52.0184 92.9619L50.1094 92.0532Z" fill="#FED571"/>
<path d="M56.8913 104.01L64.8333 98.6045L63.6437 102.039L56.1719 106.924L56.8913 104.01Z" fill="#FED571"/>
<path d="M67.9688 101.165L73.5348 98.3018L73.9876 100.408L69.0353 103.114L67.9688 101.165Z" fill="#FED571"/>
<path d="M69.4766 104.358L74.9858 101.294L75.7099 103.321L70.7119 106.65L69.4766 104.358Z" fill="#FED571"/>
<path d="M56.0312 108.974L62.8137 104.357L61.2959 107.503L56.1338 111.145L56.0312 108.974Z" fill="#FED571"/>
<path d="M46.6155 52.2957C46.513 50.0759 46.7117 46.1443 48.5608 41.222C48.8479 40.4568 49.886 40.3448 50.3215 41.0358C51.511 42.9227 53.3253 46.1459 53.6014 48.6307C53.6992 49.5063 53.2859 50.3614 52.5318 50.819L48.4803 53.2833C47.6836 53.7676 46.6565 53.2265 46.6139 52.2957H46.6155Z" fill="url(#paint10_linear_978_75)"/>
<path d="M82.8439 52.2693C82.9464 50.0495 82.7476 46.118 80.8986 41.1956C80.6115 40.4305 79.5734 40.3185 79.1379 41.0095C77.9484 42.8964 76.134 46.1195 75.8579 48.6044C75.7601 49.48 76.1735 50.3351 76.9276 50.7926L80.9791 53.2569C81.7758 53.7413 82.8028 53.2001 82.8454 52.2693H82.8439Z" fill="url(#paint11_linear_978_75)"/>
<path d="M44.6509 54.4039C44.5341 49.8792 45.3103 45.3655 46.9574 41.1468C47.4638 39.8499 48.7212 36.4974 50.5939 38.2486C51.3007 38.9096 51.6999 39.891 52.1038 40.7476C52.5534 41.7037 52.9573 42.6771 53.3202 43.6695C54.1011 45.8104 54.7022 48.0112 55.3979 50.1805C55.5904 50.78 56.5402 50.5245 56.3461 49.9186C55.6409 47.7194 55.0335 45.4854 54.2352 43.3161C53.8392 42.2417 53.3959 41.1831 52.9052 40.1481C52.4509 39.1905 51.9854 38.1476 51.1666 37.4393C50.493 36.8555 49.5984 36.5984 48.7418 36.9265C47.8819 37.2563 47.2982 38.064 46.8864 38.8544C45.7663 41.0079 45.0327 43.4533 44.5041 45.812C43.8715 48.6281 43.5938 51.5168 43.668 54.4024C43.6837 55.0334 44.6682 55.0366 44.6509 54.4024V54.4039Z" fill="#26190B"/>
<path d="M42.803 56.0276C41.0755 58.2632 38.8005 60.027 36.2321 61.1961C35.8645 61.3633 35.9638 61.8524 36.2321 62.0449C37.6504 63.0609 39.4931 62.6633 41.0471 62.2295C40.8878 61.9549 40.7284 61.682 40.5691 61.4075C39.2249 62.5071 37.9359 63.6667 36.7022 64.8894C36.434 65.156 36.5697 65.6041 36.9199 65.7114C38.5307 66.2036 40.3245 65.9117 41.6782 64.9036C42.1799 64.5297 41.6908 63.6762 41.1812 64.0548C40.0216 64.9178 38.567 65.1876 37.1802 64.7632C37.2528 65.0377 37.3254 65.3106 37.398 65.5852C38.6317 64.364 39.9206 63.2029 41.2648 62.1032C41.6577 61.7814 41.2317 61.1566 40.7868 61.2813C39.4805 61.6473 37.9312 62.0575 36.7306 61.1961V62.0449C39.4631 60.8001 41.8217 58.8943 43.655 56.523C44.0415 56.0229 43.188 55.5338 42.8062 56.0276H42.803Z" fill="#26190B"/>
<path d="M41.6013 66.2194C41.3836 71.3784 41.8175 77.1637 45.3026 81.2751C45.7127 81.7579 46.4053 81.0605 45.9983 80.5809C42.6994 76.6888 42.3807 71.0849 42.5858 66.221C42.6126 65.5883 41.6282 65.5899 41.6029 66.221L41.6013 66.2194Z" fill="#26190B"/>
<path d="M87.4894 66.7577C87.6945 71.6232 87.3758 77.2255 84.0769 81.1176C83.6699 81.5973 84.3625 82.2962 84.7727 81.8118C88.2577 77.702 88.6916 71.9151 88.4739 66.7561C88.4471 66.1266 87.4642 66.1219 87.491 66.7561L87.4894 66.7577Z" fill="#26190B"/>
<path d="M85.7013 54.4044C85.8322 49.3038 84.8477 44.2 82.7952 39.5254C82.101 37.9446 80.6496 35.9977 78.6996 37.0832C77.8807 37.5391 77.3396 38.4037 76.9247 39.2114C76.3788 40.2748 75.9008 41.376 75.4764 42.4914C74.5503 44.9305 73.9003 47.4626 73.0231 49.9191C72.8101 50.5154 73.7599 50.7726 73.9713 50.181C74.6528 48.2704 75.205 46.3188 75.844 44.3925C76.4672 42.5151 77.1534 40.4389 78.3004 38.8091C78.8116 38.0834 79.6414 37.4224 80.5297 37.973C81.2996 38.4494 81.6956 39.4323 82.0348 40.2274C82.9293 42.3179 83.603 44.5061 84.0573 46.7338C84.5732 49.258 84.7846 51.8312 84.7184 54.4044C84.7026 55.037 85.6855 55.037 85.7013 54.4044Z" fill="#26190B"/>
<path d="M86.3745 56.7172C88.222 59.0127 90.62 60.8381 93.3257 62.0056V61.1568C92.1425 62.0419 90.5885 61.6695 89.2727 61.3288C88.8341 61.2152 88.3876 61.8305 88.7947 62.1507C90.1593 63.2235 91.472 64.3579 92.7294 65.5553C92.8019 65.2808 92.8745 65.0079 92.9471 64.7334C91.5698 65.1846 90.1104 64.9511 88.9319 64.1102C88.416 63.741 87.9238 64.593 88.4349 64.959C89.8075 65.9387 91.6061 66.2053 93.2074 65.6816C93.5482 65.5695 93.7044 65.1262 93.4251 64.8596C92.1677 63.6621 90.8551 62.5278 89.4904 61.455C89.3311 61.7295 89.1717 62.0024 89.0124 62.2769C90.5695 62.6808 92.428 63.05 93.8227 62.0056C94.0798 61.8131 94.1997 61.3209 93.8227 61.1568C91.1817 60.0161 88.8735 58.2618 87.0703 56.0215C86.6743 55.5293 85.9817 56.2282 86.3745 56.7157V56.7172Z" fill="#26190B"/>
<path d="M54.7794 61.2308C54.7115 62.0071 54.6611 62.7943 54.6863 63.5737C54.7052 64.17 54.9214 64.921 55.5982 65.052C55.8191 65.0946 56.0336 65.022 56.1535 64.8264C56.8714 63.6557 56.8193 62.0418 55.98 60.9437C55.8569 60.7844 55.7039 60.6771 55.4893 60.7086C55.3142 60.7355 55.1107 60.8696 55.0807 61.0605C54.9024 62.1964 54.9151 63.3291 55.1217 64.4619C55.1596 64.6717 55.3947 64.8232 55.5966 64.8232C55.8128 64.8232 56.0131 64.6702 56.0715 64.4619C56.3791 63.3639 56.3257 62.1648 55.8949 61.1078C55.8019 60.8806 55.5887 60.6834 55.3268 60.7228C55.0649 60.7623 54.9545 60.9895 54.9277 61.2387C54.822 62.2532 54.7969 63.2739 54.8553 64.2931C54.871 64.5582 55.0697 64.7838 55.3473 64.7838C55.6013 64.7838 55.8538 64.5582 55.8396 64.2931C55.7812 63.2739 55.8049 62.2548 55.9121 61.2387C55.5903 61.2829 55.2685 61.3255 54.9466 61.3697C55.3237 62.2926 55.3884 63.2582 55.1233 64.2016H56.0715C55.8995 63.266 55.8837 62.2626 56.0305 61.3239C55.7307 61.3634 55.4311 61.4028 55.1314 61.4407C55.2181 61.5558 55.2986 61.6742 55.368 61.8004C55.4011 61.8603 55.431 61.9203 55.4594 61.9802C55.4956 62.056 55.4388 61.925 55.4704 62.0023C55.483 62.0339 55.4956 62.0654 55.5067 62.097C55.5556 62.2327 55.595 62.3699 55.625 62.5119C55.6313 62.545 55.6378 62.5782 55.6441 62.6113C55.6488 62.6381 55.6567 62.6855 55.6488 62.6318C55.6599 62.7075 55.6645 62.7833 55.6692 62.859C55.6976 63.4128 55.5887 63.8687 55.3063 64.331C55.4909 64.2552 55.6771 64.1811 55.8617 64.1054C55.8348 64.1006 55.8096 64.0959 55.7844 64.0864C55.8427 64.1132 55.8475 64.1148 55.7986 64.0896C55.8475 64.1322 55.8506 64.1338 55.8096 64.0991C55.7733 64.0596 55.7749 64.0643 55.8128 64.1117C55.7812 64.0691 55.756 64.0217 55.7339 63.9744C55.7796 64.0738 55.7339 63.9602 55.726 63.935C55.7102 63.8798 55.6992 63.823 55.6865 63.7662C55.6771 63.7078 55.6771 63.7094 55.6865 63.7662C55.6834 63.7378 55.6804 63.7078 55.6788 63.6794C55.6693 63.5453 55.6708 63.4096 55.6723 63.2755C55.6755 62.5924 55.7088 61.9108 55.7672 61.2308C55.7908 60.9658 55.524 60.7402 55.2748 60.7402C54.9892 60.7402 54.8062 60.9658 54.7825 61.2308H54.7794Z" fill="#26190B"/>
<path d="M74.5919 61.2311C74.524 62.0073 74.4736 62.7946 74.4988 63.5739C74.5177 64.1703 74.7339 64.9213 75.4107 65.0522C75.6316 65.0948 75.8461 65.0222 75.966 64.8266C76.6839 63.656 76.6318 62.042 75.7925 60.944C75.6694 60.7846 75.5164 60.6773 75.3018 60.7089C75.1267 60.7357 74.9232 60.8698 74.8932 61.0607C74.7149 62.1966 74.7276 63.3294 74.9342 64.4622C74.9721 64.672 75.2072 64.8235 75.4091 64.8235C75.6253 64.8235 75.8256 64.6704 75.884 64.4622C76.1916 63.3641 76.138 62.1651 75.7073 61.108C75.6142 60.8809 75.406 60.6647 75.1456 60.7026C74.8885 60.742 74.7686 60.9881 74.7418 61.2374C74.6361 62.2519 74.6108 63.2726 74.6692 64.2918C74.685 64.5568 74.8837 64.7824 75.1614 64.7824C75.4154 64.7824 75.6679 64.5568 75.6537 64.2918C75.5953 63.2726 75.6189 62.2534 75.7262 61.2374C75.4044 61.2816 75.0825 61.3242 74.7607 61.3684C75.1378 62.2913 75.2024 63.2568 74.9374 64.2003H75.8856C75.7136 63.2647 75.6978 62.2613 75.8446 61.3226C75.5448 61.362 75.245 61.4015 74.9453 61.4394C75.032 61.5545 75.1125 61.6728 75.1819 61.7991C75.2151 61.859 75.245 61.919 75.2734 61.9789C75.3097 62.0546 75.2529 61.9237 75.2845 62.001C75.2971 62.0326 75.3097 62.0641 75.3208 62.0957C75.3697 62.2313 75.4091 62.3686 75.4391 62.5106C75.4454 62.5437 75.4517 62.5769 75.458 62.61C75.4628 62.6368 75.4706 62.6841 75.4628 62.6305C75.4738 62.7062 75.4785 62.782 75.4833 62.8577C75.5117 63.4114 75.4028 63.8674 75.1204 64.3296C75.305 64.2539 75.4912 64.1798 75.6757 64.104C75.6489 64.0993 75.6237 64.0946 75.5984 64.0851C75.6568 64.1119 75.6615 64.1135 75.6126 64.0883C75.6615 64.1309 75.6647 64.1324 75.6237 64.0977C75.5874 64.0583 75.589 64.063 75.6268 64.1103C75.5953 64.0677 75.57 64.0204 75.5479 63.9731C75.5937 64.0725 75.5479 63.9589 75.5401 63.9336C75.5243 63.8784 75.5132 63.8216 75.5006 63.7648C75.4912 63.7065 75.4912 63.708 75.5006 63.7648C75.4975 63.7364 75.4943 63.7065 75.4927 63.6781C75.4833 63.544 75.4848 63.4083 75.4864 63.2742C75.4896 62.5911 75.5227 61.9095 75.5811 61.2295C75.6047 60.9645 75.3381 60.7389 75.0888 60.7389C74.8033 60.7389 74.6203 60.9645 74.5966 61.2295L74.5919 61.2311Z" fill="#26190B"/>
<path d="M68.0716 71.3355C68.5418 70.6697 68.9473 69.8982 69.0451 69.0794C69.0892 68.7118 69.0214 68.3158 68.7359 68.0539C68.4519 67.7952 68.078 67.7447 67.7119 67.7131C66.8758 67.6406 66.0317 67.6153 65.194 67.609C64.3862 67.6027 63.5721 67.6437 62.7817 67.8236C62.8685 68.1391 62.9553 68.4546 63.0436 68.7717L63.0973 68.7591L62.8354 67.8109C61.8761 68.0918 61.7168 69.122 61.9613 69.9629C62.2153 70.8385 62.8196 71.5611 63.4791 72.1716C63.8198 72.4872 64.1906 72.7759 64.5803 73.0299C64.992 73.2965 65.4369 73.5379 65.9418 73.3959C66.4056 73.265 66.7511 72.88 67.0683 72.5408C67.4264 72.159 67.7624 71.7599 68.0716 71.3355C68.2278 71.1209 68.1079 70.788 67.895 70.6634C67.6457 70.5182 67.3791 70.6239 67.2229 70.8401C67.0067 71.1351 66.7701 71.4128 66.524 71.6841C66.3078 71.9192 66.0854 72.2126 65.8109 72.383C65.5411 72.5503 65.3092 72.3341 65.0757 72.1827C64.7822 71.9933 64.5077 71.7819 64.2474 71.5469C63.7883 71.1319 63.2929 70.6365 63.0357 70.0654C62.8985 69.7594 62.5814 68.909 63.0941 68.7591C63.7031 68.5808 63.4491 67.6705 62.8322 67.8109L62.7786 67.8236C62.1617 67.964 62.4236 68.9122 63.0405 68.7717C64.2821 68.4878 65.6058 68.5824 66.8679 68.6424C67.1976 68.6582 67.5447 68.6566 67.8697 68.7134C68.1253 68.7575 68.0969 68.8491 68.0496 69.0952C67.9249 69.7373 67.5952 70.3131 67.2213 70.8416C66.8553 71.3591 67.7072 71.8498 68.0701 71.337L68.0716 71.3355Z" fill="#26190B"/>
<path d="M65.0589 73.5746C64.8727 75.2344 63.9245 76.8073 62.5551 77.7586C62.3374 77.9101 62.2363 78.1893 62.3783 78.4307C62.5045 78.6469 62.8326 78.7589 63.0504 78.6074C64.7322 77.4384 65.8144 75.6067 66.0416 73.5746C66.0716 73.3112 65.7939 73.084 65.5494 73.084C65.2591 73.084 65.0871 73.3112 65.0572 73.5746H65.0589Z" fill="#26190B"/>
<path d="M65.1663 73.3774C65.2894 75.4678 66.4774 77.4194 68.298 78.4638C68.8486 78.7793 69.344 77.9305 68.795 77.615C67.282 76.7473 66.2534 75.1223 66.1492 73.3774C66.1334 73.1123 65.9347 72.8867 65.657 72.8867C65.403 72.8867 65.149 73.1123 65.1648 73.3774H65.1663Z" fill="#26190B"/>
<path d="M63.3419 68.4617C62.9049 68.4964 62.6462 68.7709 62.4884 69.1621C62.3401 69.525 62.3448 69.9778 62.7361 70.1845C63.1021 70.3785 63.5297 70.1703 63.7758 69.88C64.0487 69.5566 64.1276 69.1621 64.055 68.7504C63.9919 68.3891 63.4666 68.2739 63.2331 68.5342C62.8781 68.9302 62.6462 69.4587 62.7077 69.9983C62.774 70.582 63.2583 71.049 63.872 70.896C64.3643 70.7729 64.776 70.3186 64.8723 69.8232C64.9748 69.2884 64.6877 68.692 64.1244 68.5721C63.4413 68.4254 63.1352 69.1842 63.069 69.7285C63.0075 70.246 63.1479 70.7824 63.4729 71.191C63.8105 71.6154 64.3848 71.8205 64.8707 71.5034C65.3408 71.1973 65.5585 70.5678 65.5459 70.0267C65.5333 69.484 65.2903 68.9255 64.795 68.6573C64.3138 68.3954 63.7221 68.5658 63.4413 69.0328C62.9081 69.9178 63.4618 71.2005 64.268 71.7195C64.7413 72.024 65.3251 71.9846 65.7447 71.6107C66.0902 71.3015 66.2843 70.8329 66.3979 70.3943C66.5414 69.8405 66.513 69.2284 66.0792 68.8088C65.6658 68.4096 65.0237 68.3922 64.6056 68.7945C64.2365 69.1511 64.1134 69.7159 64.0913 70.2081C64.0677 70.7335 64.197 71.2652 64.44 71.729C64.6782 72.1834 65.0963 72.5999 65.6327 72.6409C66.166 72.6803 66.6093 72.3128 66.8191 71.8473C67.2309 70.9354 66.9217 69.4919 65.7116 69.4651C64.5678 69.4398 64.1718 71.0143 64.7334 71.8284C65.0474 72.2828 65.6169 72.4185 66.1312 72.2544C66.6314 72.095 67.0179 71.7416 67.3255 71.3299C67.6253 70.9307 67.832 70.4495 67.9109 69.9557C67.9519 69.6954 68.0008 69.4004 67.8619 69.159C67.7105 68.8955 67.4092 68.7662 67.1126 68.7819C66.5399 68.8135 66.0871 69.3972 66.2164 69.9589C66.3348 70.4763 66.8791 70.8203 67.3981 70.702C67.884 70.5915 68.2958 70.063 68.4141 69.596C68.5766 68.9523 68.1238 68.4979 67.4991 68.4695C67.0589 68.449 66.5493 68.5043 66.1707 68.7456C65.7195 69.0344 65.4087 69.6875 65.8473 70.1324C66.2859 70.5773 66.9437 70.3785 67.2735 69.9289C67.4123 69.738 67.5559 69.484 67.5559 69.241C67.5559 68.9034 67.2908 68.6762 66.98 68.6178C66.6976 68.5642 66.4058 68.5374 66.1186 68.5421C65.8126 68.5469 65.4639 68.5484 65.2761 68.8308C64.9133 69.3799 65.5507 69.9147 66.0776 69.9226C66.7039 69.9321 67.0842 69.2347 66.6393 68.7488C66.2969 68.3749 65.5917 68.2487 65.1073 68.2787C64.7934 68.2976 64.5141 68.5011 64.5126 68.8387C64.511 69.2347 64.8502 69.4114 65.2004 69.3625C65.4639 69.3262 65.6075 68.9902 65.5443 68.7583C65.467 68.4743 65.2036 68.378 64.9401 68.4143L64.9038 68.4191C65.0632 68.4617 65.2225 68.5027 65.3818 68.5453L65.3535 68.5121C65.4008 68.6273 65.4497 68.7441 65.497 68.8592V68.8151C65.4513 68.9302 65.4024 69.047 65.355 69.1621L65.3882 69.1322C65.3156 69.1748 65.243 69.2158 65.1704 69.2584C65.0994 69.2805 65.1831 69.2584 65.2209 69.2584C65.2856 69.26 65.3519 69.2631 65.4181 69.271C65.5396 69.2868 65.6627 69.3199 65.7794 69.3578C65.8126 69.3688 65.852 69.3909 65.8867 69.3972C65.9056 69.4083 65.9261 69.4209 65.9451 69.4319C65.9814 69.2694 66.0177 69.1085 66.0539 68.946C66.0508 68.9381 66.1486 68.9365 66.0666 68.9302C65.9845 68.9239 66.1865 68.8403 66.1612 69.1164C66.1391 69.1984 66.117 69.282 66.0934 69.3641L66.1249 69.3231C66.0666 69.3814 66.0066 69.4398 65.9482 69.4998C65.8015 69.566 66.0366 69.5219 66.0729 69.5219C66.1644 69.5203 66.2559 69.5219 66.349 69.525C66.4405 69.5297 66.532 69.5345 66.6235 69.5471C66.7024 69.5581 66.8096 69.637 66.7039 69.5266C66.6613 69.454 66.6203 69.3814 66.5777 69.3104L66.5919 69.3704V69.1085C66.5793 69.1858 66.4357 69.3562 66.4468 69.4004C66.4436 69.3878 66.5399 69.4319 66.5446 69.4351C66.5651 69.5124 66.5872 69.5897 66.6077 69.6654L66.6424 69.6102C66.6566 69.6055 66.6945 69.5723 66.6945 69.5723C66.7812 69.514 66.9106 69.4871 67.0163 69.4698C67.0952 69.4572 67.1772 69.4556 67.2561 69.4524C67.2877 69.4524 67.5622 69.4714 67.578 69.4524C67.5511 69.484 67.4723 69.3325 67.4691 69.3325C67.4817 69.3294 67.4155 69.4603 67.4123 69.4666C67.376 69.5329 67.3303 69.596 67.2782 69.6512C67.2577 69.6733 67.2325 69.6922 67.2151 69.7159L67.1536 69.7522L67.2072 69.7411C67.2167 69.7333 67.1551 69.7632 67.1646 69.7222C67.1646 69.7191 67.1804 69.7916 67.1693 69.7869C67.1646 69.7853 67.1757 69.7569 67.1804 69.7585C67.1899 69.7601 66.969 69.5313 66.9737 69.5297C66.9674 69.5329 66.9643 69.6891 66.9643 69.6828C66.8948 70.2949 66.4783 71.1358 65.8362 71.3172C65.5412 71.4009 65.4749 71.2036 65.4749 70.9339C65.4749 70.7729 65.5002 70.4259 65.7116 70.4479C66.0082 70.4795 66.0445 70.8787 66.0192 71.1058C66.0019 71.2683 65.9104 71.6596 65.699 71.6612C65.4292 71.6628 65.232 71.1374 65.1704 70.9433C65.0569 70.5805 65.0379 70.1939 65.1342 69.8248C65.172 69.6796 65.2462 69.3751 65.4071 69.5266C65.6327 69.7396 65.4339 70.2428 65.3408 70.4763C65.2888 70.6073 65.2162 70.7477 65.1168 70.8487C65.0363 70.9291 64.9906 70.9623 64.8928 70.9354C64.5899 70.8534 64.3643 70.4416 64.2806 70.164C64.2349 70.0141 64.2049 69.8405 64.2286 69.697C64.2396 69.6339 64.257 69.566 64.2901 69.5266C64.3169 69.4935 64.298 69.5108 64.2901 69.5108C64.3816 69.5092 64.4794 69.6717 64.511 69.7475C64.582 69.9194 64.5772 70.1324 64.5331 70.3107C64.5015 70.4337 64.44 70.6452 64.309 70.6878C64.3832 70.6641 64.3232 70.6704 64.2664 70.6104C64.2096 70.5505 64.1623 70.4732 64.1276 70.3975C64.0061 70.1371 63.9635 69.6307 64.2002 69.4177C64.1276 69.4603 64.055 69.5013 63.9825 69.5439C63.9683 69.5487 63.8846 69.5108 63.8846 69.5108C63.8988 69.4903 63.8988 69.5818 63.9083 69.5487C63.8988 69.5865 63.9146 69.6291 63.8973 69.678C63.872 69.7506 63.8136 69.8295 63.7521 69.8784C63.749 69.8816 63.6085 69.9731 63.6117 69.9462C63.6149 69.9226 63.6985 69.9778 63.6953 69.9778C63.7395 69.9731 63.6906 70.0488 63.6969 69.9668C63.7016 69.91 63.6732 69.8374 63.6795 69.7727C63.7001 69.5723 63.7947 69.3783 63.9288 69.23C63.6543 69.1574 63.3814 69.0848 63.1068 69.0138C63.1147 69.0643 63.099 69.1259 63.0784 69.17C63.0674 69.1937 63.0437 69.2158 63.0359 69.2395C62.9743 69.4051 62.826 69.099 63.1826 69.3073C63.241 69.3657 63.3009 69.424 63.3593 69.484C63.3577 69.6307 63.3687 69.6496 63.3924 69.5424C63.3861 69.5013 63.394 69.4824 63.4161 69.484C63.4192 69.3909 63.5013 69.4335 63.3435 69.4461C63.6085 69.4256 63.8357 69.2347 63.8357 68.9555C63.8357 68.7062 63.6101 68.4427 63.3435 68.4648L63.3419 68.4617Z" fill="#26190B"/>
<path d="M57.1646 70.6923C57.1299 73.9943 58.7533 77.1528 61.4164 79.0933C61.9292 79.4657 62.4198 78.6137 61.9134 78.2446C59.5343 76.5123 58.1191 73.6251 58.1491 70.6923C58.1554 70.0596 57.1725 70.0596 57.1662 70.6923H57.1646Z" fill="#26190B"/>
<path d="M73.2585 70.6987C73.2885 73.6316 71.8733 76.5187 69.4942 78.251C68.9877 78.6202 69.4784 79.4737 69.9911 79.0998C72.6542 77.1608 74.2761 74.0008 74.243 70.6987C74.2366 70.0661 73.2522 70.0645 73.2601 70.6987H73.2585Z" fill="#26190B"/>
<path d="M58.4578 68.9664C60.026 66.4689 62.8848 65.9577 65.622 66.0019C68.1037 66.0414 71.6235 66.2149 72.8572 68.8117C73.1286 69.3829 73.9774 68.8843 73.706 68.3164C72.3113 65.3835 68.4492 65.0648 65.622 65.0206C63.9734 64.9938 62.3279 65.0869 60.8007 65.759C59.4928 66.3348 58.3695 67.2609 57.609 68.4725C57.2714 69.0105 58.1218 69.5043 58.4578 68.9679V68.9664Z" fill="#26190B"/>
<path d="M62.505 80.0073C63.3996 81.0107 64.7406 81.5582 66.0832 81.473C67.3721 81.3909 68.6059 81.0107 69.3852 79.9206C69.5399 79.7044 69.4231 79.3731 69.2085 79.2485C68.9608 79.1033 68.6911 79.2074 68.5365 79.4252C67.9622 80.2282 66.9209 80.4506 65.9901 80.4964C64.9204 80.5485 63.9092 80.1099 63.2008 79.3131C62.7795 78.8398 62.0854 79.5372 62.505 80.0073Z" fill="#26190B"/>
<path d="M56.8336 49.6809C57.6319 47.581 58.4491 45.3218 60.0126 43.6605C61.5934 41.9819 63.9931 41.1426 66.2681 41.4881C68.4405 41.8194 69.8967 43.1841 70.9064 45.0646C71.8372 46.7969 72.6639 48.7154 73.0379 50.6591C73.1609 51.2933 74.1217 51.0251 73.9987 50.3924C73.5774 48.2105 72.6103 45.9986 71.5044 44.0849C70.3463 42.086 68.521 40.7639 66.2144 40.4736C63.818 40.1723 61.2937 41.0085 59.5551 42.6997C57.7013 44.503 56.7721 47.043 55.8712 49.4143C55.6409 50.0185 56.6048 50.2804 56.832 49.6809H56.8336Z" fill="#26190B"/>
<path d="M56.53 50.897C61.4618 47.0554 68.2442 47.0065 73.2264 50.7834C73.7281 51.1636 74.2141 50.3101 73.7187 49.9346C68.495 45.9747 61.2109 46.0188 56.0393 50.0482C55.5502 50.43 56.0346 51.2835 56.5315 50.897H56.53Z" fill="#26190B"/>
<path d="M56.8186 54.5529C59.2861 52.7149 62.2521 52.0286 65.3254 52.0049C68.2441 51.9829 70.8378 52.5556 73.1964 54.2768C73.7186 54.657 74.2251 53.8051 73.7092 53.428C71.218 51.6121 68.4035 51 65.3254 51.0221C62.0944 51.0457 58.9027 51.7699 56.3059 53.7041C55.7963 54.0843 56.2996 54.9378 56.8186 54.5529Z" fill="#26190B"/>
<path d="M55.8666 50.7128C55.8066 51.7399 55.835 52.7701 55.9486 53.794C55.977 54.048 56.1553 54.2988 56.4408 54.2846C56.6822 54.2736 56.9631 54.0669 56.9331 53.794C56.8195 52.7701 56.7927 51.7414 56.851 50.7128C56.8652 50.4556 56.6144 50.2095 56.3588 50.2221C56.0796 50.2348 55.8824 50.4383 55.8666 50.7128Z" fill="#26190B"/>
<path d="M72.9591 50.7128C73.019 51.7399 72.9906 52.7701 72.877 53.794C72.8486 54.0511 73.1231 54.2957 73.3693 54.2846C73.6596 54.272 73.8299 54.0685 73.8615 53.794C73.9751 52.7701 74.0019 51.7414 73.9435 50.7128C73.9293 50.4572 73.7274 50.2095 73.4513 50.2221C73.1973 50.2332 72.9433 50.4383 72.9591 50.7128Z" fill="#26190B"/>
<path d="M47.1637 82.496C52.736 84.7268 58.6491 85.9748 64.3555 87.8033C64.9598 87.9974 65.2185 87.0492 64.6174 86.8551C58.911 85.0266 52.9979 83.7787 47.4255 81.5478C46.8387 81.3128 46.5831 82.2625 47.1637 82.496Z" fill="#26190B"/>
<path d="M67.0838 87.9379C72.2823 86.4249 77.5895 85.1865 82.6113 83.1292C83.1887 82.8925 82.9363 81.9412 82.3494 82.181C77.3276 84.2383 72.0204 85.4768 66.8219 86.9897C66.2161 87.1664 66.4733 88.1146 67.0838 87.9379Z" fill="#26190B"/>
<path d="M43.97 80.0214C42.8231 80.8292 42.386 82.2018 42.0942 83.5128C41.7487 85.0652 41.6572 86.6666 41.8212 88.2474C41.8859 88.8706 42.8704 88.8769 42.8041 88.2474C42.659 86.8496 42.7047 85.436 42.9808 84.0571C43.2001 82.9638 43.4888 81.5549 44.4638 80.8702C44.9766 80.5089 44.4859 79.657 43.9669 80.0214H43.97Z" fill="#26190B"/>
<path d="M85.5952 80.927C86.5639 81.8042 87.0735 83.0032 87.3638 84.2559C87.7062 85.731 87.7772 87.2677 87.6778 88.7744C87.6367 89.4054 88.6196 89.4039 88.6606 88.7744C88.7695 87.1399 88.6717 85.4628 88.282 83.8678C87.9507 82.5063 87.3417 81.1842 86.2894 80.2313C85.8208 79.8069 85.1235 80.4995 85.5937 80.9255L85.5952 80.927Z" fill="#26190B"/>
<path d="M43.9734 90.4463C46.3762 92.0966 49.3785 92.7623 52.1962 93.3066C55.6955 93.9819 59.261 94.1207 62.8124 94.2974C63.445 94.329 63.4434 93.3461 62.8124 93.3145C59.3494 93.141 55.869 93.0163 52.4565 92.3585C49.7177 91.8299 46.8022 91.2004 44.4672 89.5975C43.945 89.2378 43.4512 90.0898 43.9703 90.4463H43.9734Z" fill="#26190B"/>
<path d="M69.6723 94.6001C75.1515 93.9879 80.5126 92.617 85.6022 90.4934C86.178 90.2536 85.9254 89.3023 85.3401 89.5452C80.3389 91.6325 75.06 93.0145 69.6723 93.6156C69.0507 93.685 69.0428 94.6679 69.6723 94.5985V94.6001Z" fill="#26190B"/>
<path d="M67.9192 94.2662C67.1666 94.2536 66.4141 94.2062 65.6678 94.1132C65.3128 94.069 64.9579 94.0122 64.606 93.9475C64.3473 93.9002 63.9324 93.9112 63.9198 93.5878C63.9056 93.2328 64.0002 92.8542 64.0523 92.5039C64.1075 92.13 64.1659 91.7577 64.2306 91.3854C64.352 90.6659 64.4893 89.9497 64.6408 89.2366C64.7196 88.869 64.8017 88.5014 64.8884 88.1338C64.9279 87.965 64.9863 87.793 65.0115 87.621C65.0115 87.6274 65.0462 87.3939 65.0178 87.4917C64.9957 87.5674 65.0825 87.3828 65.1188 87.345C65.4438 87.0042 65.977 86.9726 66.3083 87.3197C66.728 87.7583 66.9394 88.4777 67.1824 89.022C67.4758 89.6767 67.7598 90.3362 68.0122 91.0083C68.2883 91.7435 68.5297 92.4929 68.7064 93.2581C68.7821 93.5831 68.9304 94.0122 68.8957 94.3482C68.921 94.1068 68.9809 94.3198 68.8705 94.2551C68.8042 94.2173 68.6039 94.263 68.5313 94.2646C68.3278 94.2678 68.1242 94.2678 67.9192 94.2662C67.2865 94.2599 67.2849 95.2428 67.9192 95.2491C68.6275 95.2554 69.7982 95.3942 69.8723 94.405C69.9023 93.9901 69.7745 93.5389 69.6861 93.1366C69.5836 92.6712 69.4574 92.2121 69.3138 91.7577C69.0409 90.901 68.7048 90.068 68.3483 89.2429C68.017 88.4746 67.7204 87.599 67.236 86.9111C66.8053 86.3021 66.1238 85.9803 65.3775 86.127C65.0525 86.1917 64.7401 86.351 64.4972 86.5782C64.1706 86.8827 64.0933 87.2314 63.9923 87.6526C63.549 89.5 63.1798 91.3822 62.9637 93.2707C62.9116 93.7298 62.9526 94.1905 63.3187 94.5155C63.6705 94.8294 64.2006 94.872 64.6439 94.9462C65.7278 95.1292 66.8227 95.2301 67.9223 95.2491C68.555 95.2601 68.555 94.2772 67.9223 94.2662H67.9192Z" fill="#26190B"/>
<path d="M63.3801 93.5257C61.6289 93.909 60.1428 95.4883 59.1062 96.8577C57.852 98.5143 56.9748 100.436 56.4116 102.43C55.0942 107.092 55.5612 111.989 56.2112 116.717C56.268 117.132 56.9369 117.195 57.1105 116.834C60.6129 109.574 64.0238 102.268 67.5263 95.0055C67.7992 94.4391 66.952 93.939 66.6775 94.5101C63.1751 101.771 59.7641 109.077 56.2617 116.339C56.5615 116.378 56.8612 116.418 57.161 116.456C56.5536 112.038 56.115 107.452 57.2556 103.08C57.7416 101.215 58.5036 99.423 59.6064 97.8374C60.5388 96.4964 61.9666 94.8399 63.6436 94.4738C64.2621 94.3382 64.0002 93.3916 63.3817 93.5257H63.3801Z" fill="#26190B"/>
<path d="M69.201 95.0361C70.8544 95.3816 72.0581 97.1533 72.8896 98.5038C73.8693 100.093 74.5304 101.852 74.9469 103.666C75.9092 107.864 75.4785 112.236 74.898 116.455C75.1977 116.415 75.4975 116.376 75.7972 116.338C72.6845 109.887 69.5702 103.436 66.4574 96.9845C66.1829 96.415 65.3341 96.9135 65.6086 97.4799C68.7214 103.931 71.8357 110.382 74.9484 116.833C75.1204 117.19 75.7893 117.133 75.8477 116.716C76.4725 112.182 76.9284 107.509 75.8035 103.013C75.3255 101.101 74.5651 99.2327 73.4717 97.5872C72.5188 96.1547 71.2425 94.4587 69.4629 94.0863C68.846 93.957 68.581 94.9036 69.201 95.0345V95.0361Z" fill="#26190B"/>
<path d="M40.9242 90.3385C38.807 93.0663 36.7907 95.8982 35.3203 99.0346C33.861 102.143 33.0201 105.446 32.6825 108.859C32.6209 109.488 33.6038 109.484 33.6653 108.859C33.9903 105.569 34.8218 102.356 36.2464 99.3675C37.6742 96.3747 39.5911 93.6469 41.62 91.0342C42.0033 90.5404 41.3123 89.8399 40.9242 90.3401V90.3385Z" fill="#26190B"/>
<path d="M88.6278 91.0352C90.6567 93.6478 92.5736 96.374 94.0014 99.3684C95.426 102.357 96.2574 105.57 96.5824 108.86C96.644 109.483 97.6284 109.489 97.5653 108.86C97.2277 105.449 96.3868 102.144 94.9274 99.0355C93.4555 95.9007 91.4408 93.0672 89.3236 90.3394C88.9355 89.8409 88.2444 90.5398 88.6278 91.0336V91.0352Z" fill="#26190B"/>
<path d="M34.6583 15.9159C29.3321 19.3662 24.6086 23.7096 20.7007 28.7045C16.8022 33.6867 13.7021 39.2701 11.5676 45.2258C9.39983 51.2762 8.27653 57.6831 8.28126 64.1089C8.286 70.7494 9.45821 77.3945 11.6843 83.65C13.9041 89.8896 17.162 95.746 21.3522 100.88C21.8745 101.519 22.4109 102.147 22.9615 102.762C23.3827 103.235 24.0769 102.538 23.6572 102.068C14.9438 92.2956 9.84947 79.4486 9.31306 66.3839C8.79559 53.7847 12.7413 41.3179 20.1106 31.112C24.1905 25.4608 29.3021 20.5558 35.1553 16.7646C35.6838 16.4223 35.1916 15.5704 34.6583 15.9159Z" fill="#26190B"/>
<path d="M40.1004 14.7287C51.4801 8.60576 65.0417 7.37043 77.5621 10.1866C83.5289 11.5292 89.2732 13.7569 94.4416 17.0431C99.3371 20.1574 103.666 24.1063 107.383 28.5522C111.624 33.6244 115.054 39.3529 117.711 45.3986C117.965 45.976 118.812 45.4775 118.559 44.9032C113.767 34.0015 106.366 24.018 96.4863 17.2214C86.151 10.1109 73.0768 7.02336 60.618 7.91001C53.2881 8.43222 46.0829 10.3933 39.6034 13.8799C39.0465 14.1797 39.5419 15.0285 40.1004 14.7287Z" fill="#26190B"/>
<path d="M25.4974 105.922C32.9519 112.802 42.1008 117.597 51.988 119.87C56.8062 120.978 61.757 121.508 66.6982 121.517C71.4076 121.525 76.0175 121.06 80.536 119.692C89.7133 116.915 98.2358 111.606 105.245 105.12C108.401 102.202 111.277 98.9613 113.585 95.3279C116.12 91.3348 118.108 86.9978 119.455 82.4636C122.313 72.8603 122.209 62.6733 120.607 52.857C120.386 51.5081 120.137 50.1639 119.866 48.8245C119.739 48.2045 118.791 48.4679 118.918 49.0864C120.902 58.8537 121.6 69.0549 119.385 78.8475C117.406 87.5941 113.148 95.6939 106.896 102.137C100.381 108.852 92.2407 114.344 83.4752 117.653C79.2123 119.264 74.8248 120.231 70.2716 120.451C65.4124 120.684 60.5201 120.436 55.7224 119.616C45.9913 117.955 36.7288 113.935 29.0503 107.705C28.0705 106.91 27.1192 106.081 26.1931 105.226C25.7293 104.797 25.032 105.491 25.4974 105.92V105.922Z" fill="#26190B"/>
<path d="M65.0349 127.827C30.2378 127.827 1.92969 99.5414 1.92969 64.7711C1.92969 30.0009 30.2378 1.71484 65.0349 1.71484C99.832 1.71484 128.142 30.0024 128.142 64.7711C128.142 99.5398 99.832 127.829 65.0349 127.829V127.827ZM65.0349 2.69773C30.7805 2.69773 2.91258 30.542 2.91258 64.7711C2.91258 99.0003 30.7805 126.846 65.0349 126.846C99.2893 126.846 127.157 99.0003 127.157 64.7711C127.157 30.542 99.2908 2.69773 65.0349 2.69773Z" fill="#26190B"/>
<path d="M66.1458 124.478C65.7899 124.484 65.4332 124.488 65.0759 124.488C64.7185 124.488 64.3617 124.484 64.0058 124.478L64.0172 123.828C64.3694 123.834 64.7223 123.838 65.0759 123.838C65.4294 123.838 65.7823 123.834 66.1343 123.828L66.1458 124.478ZM59.8062 123.606C60.5049 123.668 61.2071 123.717 61.9125 123.754L61.8782 124.403C61.1651 124.366 60.4553 124.316 59.7491 124.253L59.8062 123.606ZM70.4027 124.253C69.6964 124.316 68.9865 124.366 68.2733 124.403L68.2391 123.754C68.9445 123.717 69.6467 123.668 70.3454 123.606L70.4027 124.253ZM55.6221 123.085C56.3136 123.197 57.0092 123.296 57.7085 123.383L57.6282 124.028C56.9212 123.94 56.2181 123.839 55.519 123.727L55.6221 123.085ZM74.6327 123.727C73.9336 123.84 73.2304 123.94 72.5234 124.028L72.4433 123.383C73.1425 123.296 73.838 123.197 74.5294 123.085L74.6327 123.727ZM51.4839 122.266C52.1669 122.427 52.8546 122.576 53.5465 122.713L53.4203 123.351C52.7208 123.212 52.0256 123.062 51.3351 122.899L51.4839 122.266ZM78.8166 122.899C78.1261 123.062 77.431 123.212 76.7314 123.351L76.6053 122.713C77.2971 122.576 77.9847 122.427 78.6676 122.266L78.8166 122.899ZM47.4184 121.154C48.0875 121.363 48.7616 121.561 49.4406 121.746L49.2691 122.373C48.5825 122.185 47.9008 121.985 47.2243 121.774L47.4184 121.154ZM82.9274 121.774C82.2509 121.985 81.5692 122.185 80.8826 122.373L80.7109 121.746C81.39 121.561 82.0642 121.363 82.7333 121.154L82.9274 121.774ZM43.4399 119.75C44.093 120.007 44.7518 120.253 45.4161 120.488L45.1999 121.1C44.5283 120.863 43.8622 120.615 43.2018 120.355L43.4399 119.75ZM86.9499 120.355C86.2895 120.615 85.6234 120.863 84.9518 121.1L84.7355 120.488C85.3997 120.253 86.0586 120.007 86.7117 119.75L86.9499 120.355ZM39.5751 118.065C40.208 118.369 40.8473 118.661 41.4924 118.942L41.2326 119.538C40.5803 119.254 39.9341 118.958 39.2942 118.651L39.5751 118.065ZM90.8575 118.651C90.2176 118.958 89.5714 119.254 88.9191 119.538L88.6593 118.942C89.3045 118.661 89.9437 118.369 90.5766 118.065L90.8575 118.651ZM35.839 116.107C36.449 116.455 37.0659 116.793 37.6892 117.119L37.3874 117.695C36.7572 117.365 36.1336 117.024 35.5169 116.672L35.839 116.107ZM94.6348 116.672C94.0181 117.024 93.3944 117.365 92.7642 117.695L92.4625 117.119C93.0859 116.793 93.7027 116.455 94.3127 116.107L94.6348 116.672ZM32.2534 113.888C32.8372 114.279 33.4284 114.659 34.0266 115.03L33.6845 115.582C33.0797 115.208 32.4821 114.823 31.8919 114.428L32.2534 113.888ZM98.2598 114.428C97.6697 114.823 97.072 115.208 96.4672 115.582L96.1251 115.03C96.7233 114.659 97.3144 114.279 97.8982 113.888L98.2598 114.428ZM28.8344 111.418C29.3891 111.849 29.9516 112.271 30.5218 112.683L30.1412 113.21C29.5648 112.794 28.996 112.367 28.4353 111.931L28.8344 111.418ZM101.716 111.931C101.156 112.367 100.587 112.794 100.011 113.21L99.6298 112.683C100.2 112.271 100.763 111.849 101.317 111.418L101.716 111.931ZM25.5996 108.712C26.1224 109.182 26.6537 109.642 27.1931 110.094L26.776 110.592C26.2307 110.136 25.6936 109.67 25.1651 109.195L25.5996 108.712ZM104.986 109.195C104.458 109.67 103.921 110.136 103.376 110.592L102.959 110.094C103.498 109.642 104.029 109.182 104.552 108.712L104.986 109.195ZM22.565 105.783C23.0532 106.289 23.5505 106.786 24.0564 107.274L23.6049 107.742C23.0935 107.248 22.5909 106.746 22.0973 106.234L22.565 105.783ZM108.054 106.234C107.561 106.746 107.058 107.248 106.547 107.742L106.095 107.274C106.601 106.786 107.099 106.289 107.587 105.783L108.054 106.234ZM19.7455 102.646C20.1968 103.185 20.6575 103.717 21.1274 104.239L20.644 104.674C20.169 104.145 19.7032 103.608 19.2471 103.063L19.7455 102.646ZM110.905 103.063C110.448 103.608 109.983 104.145 109.508 104.674L109.024 104.239C109.494 103.717 109.955 103.185 110.406 102.646L110.905 103.063ZM17.1561 99.3173C17.568 99.8875 17.9897 100.45 18.4212 101.005L17.9082 101.404C17.472 100.843 17.0455 100.274 16.6291 99.698L17.1561 99.3173ZM113.522 99.698C113.106 100.274 112.68 100.843 112.243 101.404L111.73 101.005C112.162 100.45 112.584 99.8875 112.996 99.3173L113.522 99.698ZM14.8097 95.8126C15.18 96.4108 15.5607 97.0019 15.9515 97.5857L15.4113 97.9473C15.0162 97.3572 14.6314 96.7595 14.257 96.1547L14.8097 95.8126ZM115.895 96.1547C115.52 96.7595 115.135 97.3572 114.74 97.9473L114.2 97.5857C114.591 97.0019 114.972 96.4108 115.342 95.8126L115.895 96.1547ZM12.7196 92.15C13.0463 92.7734 13.3839 93.3902 13.7321 94.0002L13.1674 94.3223C12.8155 93.7056 12.4742 93.0819 12.1439 92.4517L12.7196 92.15ZM118.008 92.4517C117.677 93.0819 117.336 93.7056 116.984 94.3223L116.42 94.0002C116.768 93.3902 117.105 92.7734 117.432 92.15L118.008 92.4517ZM10.8967 88.3468C11.1779 88.992 11.4704 89.6312 11.7738 90.2641L11.1876 90.545C10.8809 89.9051 10.5853 89.2589 10.301 88.6066L10.8967 88.3468ZM119.851 88.6066C119.566 89.2589 119.271 89.9051 118.964 90.545L118.378 90.2641C118.681 89.6312 118.974 88.992 119.255 88.3468L119.851 88.6066ZM9.3517 84.423C9.58605 85.0873 9.83194 85.7461 10.0891 86.3992L9.48436 86.6374C9.22432 85.977 8.97562 85.3109 8.73867 84.6393L9.3517 84.423ZM121.413 84.6393C121.176 85.3109 120.927 85.977 120.667 86.6374L120.063 86.3992C120.32 85.7461 120.566 85.0872 120.8 84.423L121.413 84.6393ZM8.09264 80.3984C8.27853 81.0775 8.47623 81.7517 8.68551 82.4208L8.06519 82.6149C7.85358 81.9384 7.65376 81.2567 7.46581 80.5701L8.09264 80.3984ZM122.686 80.5701C122.498 81.2567 122.298 81.9384 122.086 82.6149L121.466 82.4208C121.675 81.7517 121.873 81.0775 122.059 80.3984L122.686 80.5701ZM7.12605 76.2928C7.26292 76.9846 7.4118 77.6722 7.57261 78.3551L6.9399 78.5041C6.77732 77.8136 6.62682 77.1185 6.48843 76.4189L7.12605 76.2928ZM123.663 76.4189C123.525 77.1185 123.374 77.8136 123.212 78.5041L122.579 78.3551C122.74 77.6722 122.889 76.9846 123.026 76.2928L123.663 76.4189ZM6.45653 72.1308C6.54352 72.83 6.64271 73.5255 6.75392 74.2169L6.11217 74.3202C5.99973 73.6211 5.8994 72.9179 5.81145 72.2109L6.45653 72.1308ZM124.34 72.2109C124.252 72.9179 124.152 73.6211 124.04 74.3202L123.398 74.2169C123.509 73.5255 123.608 72.83 123.695 72.1308L124.34 72.2109ZM6.08488 67.9266C6.12209 68.632 6.17166 69.3342 6.23341 70.0329L5.58595 70.0902C5.52352 69.3839 5.47329 68.674 5.43567 67.9608L6.08488 67.9266ZM124.716 67.9608C124.678 68.674 124.628 69.3839 124.566 70.0902L123.918 70.0329C123.98 69.3343 124.03 68.6321 124.067 67.9267L124.716 67.9608ZM124.15 64.7634C124.15 64.4098 124.147 64.0568 124.141 63.7047L124.791 63.6933C124.797 64.0492 124.8 64.406 124.8 64.7634C124.8 65.1208 124.797 65.4775 124.791 65.8334L124.141 65.822C124.147 65.4699 124.15 65.117 124.15 64.7634ZM5.35156 64.7634C5.35156 64.406 5.35467 64.0492 5.36093 63.6933L6.01093 63.7047C6.00474 64.0569 6.00156 64.4098 6.00156 64.7634C6.00156 65.1169 6.00474 65.4698 6.01093 65.8218L5.36093 65.8333C5.35467 65.4774 5.35156 65.1207 5.35156 64.7634ZM6.23341 59.4937C6.17166 60.1924 6.12209 60.8946 6.08488 61.6L5.43567 61.5657C5.47329 60.8526 5.52352 60.1428 5.58595 59.4366L6.23341 59.4937ZM124.566 59.4366C124.628 60.1428 124.678 60.8526 124.716 61.5657L124.067 61.6C124.03 60.8946 123.98 60.1924 123.918 59.4937L124.566 59.4366ZM6.75392 55.3096C6.6427 56.0011 6.54352 56.6967 6.45653 57.396L5.81145 57.3157C5.8994 56.6087 5.99973 55.9056 6.11217 55.2065L6.75392 55.3096ZM124.04 55.2065C124.152 55.9056 124.252 56.6087 124.34 57.3157L123.695 57.396C123.608 56.6967 123.509 56.0011 123.398 55.3096L124.04 55.2065ZM7.57261 51.1714C7.4118 51.8544 7.26293 52.5421 7.12605 53.234L6.48843 53.1078C6.62681 52.4083 6.77732 51.7131 6.9399 51.0226L7.57261 51.1714ZM123.212 51.0226C123.374 51.7131 123.525 52.4083 123.663 53.1078L123.026 53.234C122.889 52.5421 122.74 51.8544 122.579 51.1714L123.212 51.0226ZM8.68551 47.1059C8.47623 47.775 8.27852 48.4491 8.09264 49.1281L7.46581 48.9566C7.65376 48.27 7.85358 47.5883 8.06519 46.9118L8.68551 47.1059ZM122.086 46.9118C122.298 47.5883 122.498 48.27 122.686 48.9566L122.059 49.1281C121.873 48.4491 121.675 47.775 121.466 47.1059L122.086 46.9118ZM10.0891 43.1274C9.83195 43.7805 9.58604 44.4393 9.3517 45.1036L8.73867 44.8874C8.97562 44.2158 9.22433 43.5497 9.48436 42.8893L10.0891 43.1274ZM120.667 42.8893C120.927 43.5497 121.176 44.2158 121.413 44.8874L120.8 45.1036C120.566 44.4393 120.32 43.7805 120.063 43.1274L120.667 42.8893ZM11.7738 39.2626C11.4704 39.8955 11.1779 40.5348 10.8967 41.1799L10.301 40.9201C10.5853 40.2679 10.8809 39.6216 11.1876 38.9817L11.7738 39.2626ZM118.964 38.9817C119.271 39.6216 119.566 40.2678 119.851 40.9201L119.255 41.1799C118.974 40.5348 118.681 39.8955 118.378 39.2626L118.964 38.9817ZM13.7321 35.5265C13.3839 36.1365 13.0463 36.7534 12.7196 37.3767L12.1439 37.0749C12.4742 36.4447 12.8155 35.8211 13.1674 35.2044L13.7321 35.5265ZM116.984 35.2044C117.336 35.8211 117.677 36.4447 118.008 37.0749L117.432 37.3767C117.105 36.7534 116.768 36.1365 116.42 35.5265L116.984 35.2044ZM15.9515 31.9409C15.5607 32.5247 15.18 33.1159 14.8097 33.7141L14.257 33.372C14.6314 32.7672 15.0162 32.1696 15.4113 31.5794L15.9515 31.9409ZM114.74 31.5794C115.135 32.1696 115.52 32.7672 115.895 33.372L115.342 33.7141C114.972 33.1159 114.591 32.5247 114.2 31.9409L114.74 31.5794ZM18.4212 28.5219C17.9898 29.0765 17.568 29.6391 17.1561 30.2093L16.6291 29.8287C17.0455 29.2523 17.472 28.6835 17.9082 28.1228L18.4212 28.5219ZM112.243 28.1228C112.68 28.6835 113.106 29.2523 113.522 29.8287L112.996 30.2093C112.584 29.6391 112.162 29.0766 111.73 28.5219L112.243 28.1228ZM21.1274 25.2871C20.6575 25.8099 20.1968 26.3412 19.7455 26.8806L19.2471 26.4635C19.7033 25.9182 20.169 25.3811 20.644 24.8526L21.1274 25.2871ZM109.508 24.8526C109.983 25.3811 110.448 25.9182 110.905 26.4635L110.406 26.8806C109.955 26.3412 109.494 25.8099 109.024 25.2871L109.508 24.8526ZM24.0564 22.2525C23.5505 22.7407 23.0532 23.238 22.565 23.7439L22.0973 23.2924C22.5909 22.781 23.0935 22.2784 23.6049 21.7848L24.0564 22.2525ZM106.547 21.7848C107.058 22.2784 107.561 22.781 108.054 23.2924L107.587 23.7439C107.099 23.238 106.601 22.7407 106.095 22.2525L106.547 21.7848ZM27.1931 19.433C26.6537 19.8843 26.1224 20.345 25.5996 20.8149L25.1651 20.3315C25.6936 19.8565 26.2307 19.3907 26.776 18.9346L27.1931 19.433ZM103.376 18.9346C103.921 19.3907 104.458 19.8565 104.986 20.3315L104.552 20.8149C104.029 20.345 103.498 19.8843 102.959 19.433L103.376 18.9346ZM30.5218 16.8436C29.9516 17.2555 29.389 17.6773 28.8344 18.1087L28.4353 17.5957C28.996 17.1595 29.5648 16.733 30.1412 16.3166L30.5218 16.8436ZM100.011 16.3166C100.587 16.733 101.156 17.1595 101.716 17.5957L101.317 18.1087C100.763 17.6772 100.2 17.2555 99.6298 16.8436L100.011 16.3166ZM34.0266 14.4972C33.4284 14.8675 32.8372 15.2482 32.2534 15.639L31.8919 15.0988C32.4821 14.7037 33.0797 14.3189 33.6845 13.9445L34.0266 14.4972ZM96.4672 13.9445C97.072 14.3189 97.6697 14.7037 98.2598 15.0988L97.8982 15.639C97.3144 15.2482 96.7233 14.8675 96.1251 14.4972L96.4672 13.9445ZM37.6892 12.4071C37.0659 12.7338 36.449 13.0714 35.839 13.4196L35.5169 12.8549C36.1336 12.503 36.7572 12.1617 37.3874 11.8314L37.6892 12.4071ZM92.7642 11.8314C93.3944 12.1617 94.0181 12.503 94.6348 12.8549L94.3127 13.4196C93.7027 13.0714 93.0859 12.7338 92.4625 12.4071L92.7642 11.8314ZM41.4924 10.5842C40.8473 10.8654 40.208 11.1579 39.5751 11.4613L39.2942 10.8751C39.9341 10.5684 40.5804 10.2728 41.2326 9.98849L41.4924 10.5842ZM88.9191 9.98849C89.5714 10.2728 90.2176 10.5684 90.8575 10.8751L90.5766 11.4613C89.9437 11.1579 89.3045 10.8654 88.6593 10.5842L88.9191 9.98849ZM45.4161 9.0392C44.7518 9.27354 44.093 9.51945 43.4399 9.77664L43.2018 9.17186C43.8622 8.91182 44.5283 8.66312 45.1999 8.42617L45.4161 9.0392ZM84.9518 8.42617C85.6234 8.66312 86.2895 8.91182 86.9499 9.17186L86.7117 9.77664C86.0586 9.51945 85.3997 9.27354 84.7355 9.0392L84.9518 8.42617ZM49.4406 7.78014C48.7616 7.96602 48.0875 8.16373 47.4184 8.37301L47.2243 7.75269C47.9008 7.54108 48.5825 7.34126 49.2691 7.15331L49.4406 7.78014ZM80.8826 7.15331C81.5692 7.34126 82.2509 7.54108 82.9274 7.75269L82.7333 8.37301C82.0642 8.16373 81.39 7.96603 80.7109 7.78014L80.8826 7.15331ZM53.5465 6.81355C52.8546 6.95043 52.1669 7.0993 51.4839 7.26011L51.3351 6.6274C52.0256 6.46482 52.7208 6.31431 53.4203 6.17593L53.5465 6.81355ZM76.7314 6.17593C77.431 6.31432 78.1261 6.46482 78.8166 6.6274L78.6676 7.26011C77.9847 7.0993 77.2971 6.95042 76.6053 6.81355L76.7314 6.17593ZM57.7085 6.14403C57.0092 6.23102 56.3136 6.3302 55.6221 6.44142L55.519 5.79967C56.2181 5.68723 56.9212 5.5869 57.6282 5.49895L57.7085 6.14403ZM72.5234 5.49895C73.2304 5.5869 73.9336 5.68723 74.6327 5.79967L74.5294 6.44142C73.838 6.33021 73.1425 6.23102 72.4433 6.14403L72.5234 5.49895ZM61.9125 5.77238C61.2071 5.80959 60.5049 5.85916 59.8062 5.92091L59.7491 5.27345C60.4553 5.21102 61.1651 5.16079 61.8782 5.12317L61.9125 5.77238ZM68.2733 5.12317C68.9865 5.16079 69.6964 5.21102 70.4027 5.27345L70.3454 5.92091C69.6468 5.85916 68.9446 5.80959 68.2392 5.77238L68.2733 5.12317ZM65.0759 5.03906C65.4333 5.03906 65.79 5.04217 66.1459 5.04843L66.1345 5.69843C65.7824 5.69224 65.4295 5.68906 65.0759 5.68906C64.7223 5.68906 64.3693 5.69224 64.0172 5.69843L64.0058 5.04843C64.3617 5.04217 64.7185 5.03906 65.0759 5.03906Z" fill="#9D6C3C"/>
</g>
<defs>
<linearGradient id="paint0_linear_978_75" x1="65.0366" y1="1.61463" x2="65.0366" y2="127.729" gradientUnits="userSpaceOnUse">
<stop stop-color="#733E0A" stop-opacity="0"/>
<stop offset="0.25" stop-color="#5E3410" stop-opacity="0.43"/>
<stop offset="0.49" stop-color="#4F2D14" stop-opacity="0.75"/>
<stop offset="0.74" stop-color="#462917" stop-opacity="0.94"/>
<stop offset="0.96" stop-color="#432818"/>
<stop offset="1" stop-color="#432818"/>
</linearGradient>
<linearGradient id="paint1_linear_978_75" x1="65.0752" y1="8.12853" x2="65.0752" y2="120.757" gradientUnits="userSpaceOnUse">
<stop stop-color="#FED571"/>
<stop offset="1" stop-color="#F77F00"/>
</linearGradient>
<linearGradient id="paint2_linear_978_75" x1="64.4401" y1="55.3022" x2="64.4401" y2="120.875" gradientUnits="userSpaceOnUse">
<stop stop-color="white" stop-opacity="0"/>
<stop offset="0.04" stop-color="#FBFBFB" stop-opacity="0.08"/>
<stop offset="0.17" stop-color="#EEEEEE" stop-opacity="0.32"/>
<stop offset="0.3" stop-color="#E4E4E4" stop-opacity="0.53"/>
<stop offset="0.44" stop-color="#DBDBDB" stop-opacity="0.7"/>
<stop offset="0.57" stop-color="#D4D4D4" stop-opacity="0.83"/>
<stop offset="0.71" stop-color="#CFCFCF" stop-opacity="0.93"/>
<stop offset="0.85" stop-color="#CCCCCC" stop-opacity="0.98"/>
<stop offset="1" stop-color="#CCCCCC"/>
</linearGradient>
<linearGradient id="paint3_linear_978_75" x1="83.0394" y1="88.7172" x2="83.0394" y2="120.875" gradientUnits="userSpaceOnUse">
<stop stop-color="#403D39" stop-opacity="0"/>
<stop offset="0.18" stop-color="#363430" stop-opacity="0.17"/>
<stop offset="1" stop-color="#141414" stop-opacity="0.8"/>
</linearGradient>
<linearGradient id="paint4_linear_978_75" x1="48.428" y1="87.96" x2="48.428" y2="120.757" gradientUnits="userSpaceOnUse">
<stop stop-color="#403D39" stop-opacity="0"/>
<stop offset="0.18" stop-color="#363430" stop-opacity="0.17"/>
<stop offset="1" stop-color="#141414" stop-opacity="0.8"/>
</linearGradient>
<linearGradient id="paint5_linear_978_75" x1="64.8323" y1="36.7675" x2="64.8323" y2="83.5848" gradientUnits="userSpaceOnUse">
<stop stop-color="#403D39" stop-opacity="0"/>
<stop offset="0.85" stop-color="#1B1B1A" stop-opacity="0.82"/>
<stop offset="1" stop-color="#141414"/>
</linearGradient>
<linearGradient id="paint6_linear_978_75" x1="64.9574" y1="40.6907" x2="64.9574" y2="54.2839" gradientUnits="userSpaceOnUse">
<stop stop-color="#FF7703" stop-opacity="0"/>
<stop offset="1" stop-color="#A63C06"/>
</linearGradient>
<linearGradient id="paint7_linear_978_75" x1="65.3486" y1="80.3174" x2="65.3486" y2="94.6253" gradientUnits="userSpaceOnUse">
<stop stop-color="#FF7703" stop-opacity="0"/>
<stop offset="1" stop-color="#A63C06"/>
</linearGradient>
<linearGradient id="paint8_linear_978_75" x1="61.3708" y1="94.0758" x2="61.3708" y2="116.05" gradientUnits="userSpaceOnUse">
<stop stop-color="#FF7703" stop-opacity="0"/>
<stop offset="1" stop-color="#A63C06"/>
</linearGradient>
<linearGradient id="paint9_linear_978_75" x1="70.7162" y1="94.3043" x2="70.7162" y2="116.28" gradientUnits="userSpaceOnUse">
<stop stop-color="#FF7703" stop-opacity="0"/>
<stop offset="1" stop-color="#A63C06"/>
</linearGradient>
<linearGradient id="paint10_linear_978_75" x1="50.1053" y1="40.5783" x2="50.1053" y2="53.4647" gradientUnits="userSpaceOnUse">
<stop stop-color="white" stop-opacity="0.7"/>
<stop offset="0.38" stop-color="#EDC2C7" stop-opacity="0.86"/>
<stop offset="0.72" stop-color="#E39CA4" stop-opacity="0.97"/>
<stop offset="1" stop-color="#E09099"/>
</linearGradient>
<linearGradient id="paint11_linear_978_75" x1="79.3556" y1="40.5519" x2="79.3556" y2="53.4384" gradientUnits="userSpaceOnUse">
<stop stop-color="white" stop-opacity="0.7"/>
<stop offset="0.38" stop-color="#EDC2C7" stop-opacity="0.86"/>
<stop offset="0.72" stop-color="#E39CA4" stop-opacity="0.97"/>
<stop offset="1" stop-color="#E09099"/>
</linearGradient>
<clipPath id="clip0_978_75">
<rect width="130" height="130" fill="white"/>
</clipPath>
</defs>
</svg>
