<svg width="67" height="67" viewBox="0 0 67 67" fill="none" xmlns="http://www.w3.org/2000/svg">
<path d="M65 33.475C65 16.0642 50.8858 1.95 33.475 1.95C16.0642 1.95 1.95 16.0642 1.95 33.475C1.95 50.8858 16.0642 65 33.475 65C50.8858 65 65 50.8858 65 33.475ZM66.95 33.475C66.95 51.9627 51.9627 66.95 33.475 66.95C14.9873 66.95 0 51.9627 0 33.475C0 14.9873 14.9873 0 33.475 0C51.9627 0 66.95 14.9873 66.95 33.475Z" fill="#9D6C3C"/>
<path d="M33.5 65.3313C51.4492 65.3313 66 50.7922 66 32.8573C66 14.9224 51.4492 0.383301 33.5 0.383301C15.5507 0.383301 1 14.9224 1 32.8573C1 50.7922 15.5507 65.3313 33.5 65.3313Z" fill="#733E0A"/>
<path d="M33.5 65.28C51.4492 65.28 66 50.7409 66 32.806C66 14.8711 51.4492 0.332031 33.5 0.332031C15.5507 0.332031 1 14.8711 1 32.806C1 50.7409 15.5507 65.28 33.5 65.28Z" fill="url(#paint0_linear_898_431)"/>
<path d="M33.4603 61.7514C49.5496 61.7514 62.5925 48.7667 62.5925 32.7493C62.5925 16.7318 49.5496 3.74707 33.4603 3.74707C17.371 3.74707 4.32812 16.7318 4.32812 32.7493C4.32812 48.7667 17.371 61.7514 33.4603 61.7514Z" fill="#FED571"/>
<path d="M33.5228 61.6894C49.6121 61.6894 62.655 48.7047 62.655 32.6872C62.655 16.6698 49.6121 3.68506 33.5228 3.68506C17.4335 3.68506 4.39062 16.6698 4.39062 32.6872C4.39062 48.7047 17.4335 61.6894 33.5228 61.6894Z" fill="url(#paint1_linear_898_431)"/>
<path d="M32.5963 61.7506L35.9893 61.6897C35.9893 61.6897 44.4734 39.5556 44.0078 35.7847C43.5415 32.0139 43.7893 29.3497 39.9494 28.2651C36.1095 27.1804 34.0157 29.5512 34.0157 29.5512C34.0157 29.5512 28.1876 27.4582 26.2945 28.2651C24.4014 29.0719 22.1613 32.603 22.5806 33.3594C22.9998 34.1159 21.218 36.0131 23.7563 40.2836C26.2945 44.5541 32.5971 61.7506 32.5971 61.7506H32.5963Z" fill="white"/>
<path d="M32.5963 61.7506L35.9893 61.6897C35.9893 61.6897 44.4734 39.5556 44.0078 35.7847C43.5415 32.0139 43.7893 29.3497 39.9494 28.2651C36.1095 27.1804 34.0157 29.5512 34.0157 29.5512C34.0157 29.5512 28.1876 27.4582 26.2945 28.2651C24.4014 29.0719 22.1613 32.603 22.5806 33.3594C22.9998 34.1159 21.218 36.0131 23.7563 40.2836C26.2945 44.5541 32.5971 61.7506 32.5971 61.7506H32.5963Z" fill="url(#paint2_linear_898_431)"/>
<path d="M16.8359 56.5684C16.8359 56.5684 22.989 61.4507 33.0559 61.6896C33.0559 61.6896 29.2599 49.082 28.163 47.6585C28.163 47.6585 23.1816 46.7956 22.0392 44.7993C22.0392 44.7993 17.6834 50.0879 16.8359 56.5684Z" fill="#403D39"/>
<path d="M49.9795 56.4991C49.9795 56.4991 44.8526 61.0174 35.5625 61.7511C35.5625 61.7511 38.2438 48.5586 39.5048 47.6591C39.5048 47.6591 43.5014 46.1909 45.5912 45.1899C45.5912 45.1899 50.2533 51.3503 49.9787 56.4999L49.9795 56.4991Z" fill="#403D39"/>
<path d="M49.9795 56.4991C49.9795 56.4991 44.8526 61.0174 35.5625 61.7511C35.5625 61.7511 38.2438 48.5586 39.5048 47.6591C39.5048 47.6591 43.5014 46.1909 45.5912 45.1899C45.5912 45.1899 50.2533 51.3503 49.9787 56.4999L49.9795 56.4991Z" fill="url(#paint3_linear_898_431)"/>
<path d="M16.8359 56.5684C16.8359 56.5684 22.989 61.4507 33.0559 61.6896C33.0559 61.6896 29.2599 49.082 28.163 47.6585C28.163 47.6585 23.1816 46.7956 22.0392 44.7993C22.0392 44.7993 17.6834 50.0879 16.8359 56.5684Z" fill="url(#paint4_linear_898_431)"/>
<path d="M26.8387 42.3652C26.8387 42.3652 23.1581 41.0961 22.79 35.1364C22.79 35.1364 23.1361 27.4429 31.7178 30.3329C31.7178 30.3329 33.1518 31.1917 36.9625 30.0794C40.7731 28.9671 42.5971 31.5403 43.2398 32.6884C44.0085 34.0599 43.7046 41.023 40.8714 42.5464L43.6363 41.4414C43.6363 41.4414 46.3086 37.0401 45.5912 32.6884C45.5912 32.6884 46.4395 33.6959 47.9182 33.0134L45.6887 31.221C45.6887 31.221 46.7555 31.8507 47.9182 31.0918C47.9182 31.0918 44.2465 28.8371 44.0076 25.7756C43.7688 22.7141 42.1194 18.2194 41.2354 18.4436C40.3514 18.6687 39.9492 19.3512 39.9492 19.3512L38.0748 24.4626L37.8749 26.9529C37.8749 26.9529 32.471 24.6332 29.0422 27.4575L28.8927 25.3645C28.8927 25.3645 27.3108 18.5647 25.3128 18.5647C23.3149 18.5647 22.4796 28.5974 21.5038 28.9931C21.5038 28.9931 19.3182 31.1747 18.9501 31.0171C18.5821 30.8594 19.4758 31.858 20.8961 31.3323C20.8961 31.3323 19.4872 32.7964 19.1663 32.9841C18.8453 33.171 21.1244 33.2579 21.4047 32.6892C21.4047 32.6892 21.5794 40.3169 23.4725 41.3155C25.3656 42.3141 26.8379 42.3661 26.8379 42.3661L26.8387 42.3652Z" fill="#403D39"/>
<path d="M26.8387 42.3652C26.8387 42.3652 23.1581 41.0961 22.79 35.1364C22.79 35.1364 23.1361 27.4429 31.7178 30.3329C31.7178 30.3329 33.1518 31.1917 36.9625 30.0794C40.7731 28.9671 42.5971 31.5403 43.2398 32.6884C44.0085 34.0599 43.7046 41.023 40.8714 42.5464L43.6363 41.4414C43.6363 41.4414 46.3086 37.0401 45.5912 32.6884C45.5912 32.6884 46.4395 33.6959 47.9182 33.0134L45.6887 31.221C45.6887 31.221 46.7555 31.8507 47.9182 31.0918C47.9182 31.0918 44.2465 28.8371 44.0076 25.7756C43.7688 22.7141 42.1194 18.2194 41.2354 18.4436C40.3514 18.6687 39.9492 19.3512 39.9492 19.3512L38.0748 24.4626L37.8749 26.9529C37.8749 26.9529 32.471 24.6332 29.0422 27.4575L28.8927 25.3645C28.8927 25.3645 27.3108 18.5647 25.3128 18.5647C23.3149 18.5647 22.4796 28.5974 21.5038 28.9931C21.5038 28.9931 19.3182 31.1747 18.9501 31.0171C18.5821 30.8594 19.4758 31.858 20.8961 31.3323C20.8961 31.3323 19.4872 32.7964 19.1663 32.9841C18.8453 33.171 21.1244 33.2579 21.4047 32.6892C21.4047 32.6892 21.5794 40.3169 23.4725 41.3155C25.3656 42.3141 26.8379 42.3661 26.8379 42.3661L26.8387 42.3652Z" fill="url(#paint5_linear_898_431)"/>
<path d="M29.0469 25.0265C29.0469 25.0265 32.8892 15.131 37.5659 24.4626L37.8796 26.9529C37.8796 26.9529 32.5813 24.5755 29.0469 27.4575V25.0265Z" fill="#FF7703"/>
<path d="M29.0469 25.0265C29.0469 25.0265 32.8892 15.131 37.5659 24.4626L37.8796 26.9529C37.8796 26.9529 32.5813 24.5755 29.0469 27.4575V25.0265Z" fill="url(#paint6_linear_898_431)"/>
<path d="M22.8441 40.8638C22.8441 40.8638 21.2905 42.7675 22.0405 44.7995C22.0405 44.7995 22.5385 47.6587 34.5644 48.2218C34.5644 48.2218 37.8176 48.5581 45.3698 45.4625C45.3698 45.4625 46.0889 42.4108 44.0105 40.8646C44.0105 40.8646 42.7747 42.3661 34.8122 44.4753L33.8152 44.0471L33.0572 44.4753C33.0572 44.4753 23.1666 41.725 22.8441 40.8646V40.8638Z" fill="#FF7703"/>
<path d="M32.4219 47.9495L34.3191 48.2323L29.3474 59.266C29.3474 59.266 27.1886 51.1337 32.4219 47.9487V47.9495Z" fill="#FF7703"/>
<path d="M35.6159 48.0662L33.7188 48.349L38.6904 59.3827C38.6904 59.3827 40.8493 51.2504 35.6159 48.0654V48.0662Z" fill="#FF7703"/>
<path d="M22.8441 40.8638C22.8441 40.8638 21.2905 42.7675 22.0405 44.7995C22.0405 44.7995 22.5385 47.6587 34.5644 48.2218C34.5644 48.2218 37.8176 48.5581 45.3698 45.4625C45.3698 45.4625 46.0889 42.4108 44.0105 40.8646C44.0105 40.8646 42.7747 42.3661 34.8122 44.4753L33.8152 44.0471L33.0572 44.4753C33.0572 44.4753 23.1666 41.725 22.8441 40.8646V40.8638Z" fill="url(#paint7_linear_898_431)"/>
<path d="M32.4219 47.9495L34.3191 48.2323L29.3474 59.266C29.3474 59.266 27.1886 51.1337 32.4219 47.9487V47.9495Z" fill="url(#paint8_linear_898_431)"/>
<path d="M35.6159 48.0662L33.7188 48.349L38.6904 59.3827C38.6904 59.3827 40.8493 51.2504 35.6159 48.0654V48.0662Z" fill="url(#paint9_linear_898_431)"/>
<path d="M23.6719 46.1975L28.0456 43.106L29.3009 43.3749L24.655 46.6655L23.6719 46.1975Z" fill="#FED571"/>
<path d="M35.9375 47.8623L39.6604 42.8004L41.1497 42.6606L37.1969 48.0459L35.9375 47.8623Z" fill="#FED571"/>
<path d="M38.8828 47.3813L43.7919 40.8765L44.6109 41.4785L40.6589 46.8638L38.8828 47.3813Z" fill="#FED571"/>
<path d="M25.8125 46.9076L30.1862 43.8169L31.4415 44.085L26.7956 47.3756L25.8125 46.9076Z" fill="#FED571"/>
<path d="M29.308 53.0649L33.3981 50.2812L32.7855 52.0501L28.9375 54.5656L29.308 53.0649Z" fill="#FED571"/>
<path d="M35.0078 51.6002L37.8743 50.1255L38.1075 51.2102L35.5571 52.6036L35.0078 51.6002Z" fill="#FED571"/>
<path d="M35.7891 53.2444L38.6263 51.6665L38.9992 52.7106L36.4252 54.4249L35.7891 53.2444Z" fill="#FED571"/>
<path d="M28.8594 55.622L32.3523 53.2446L31.5707 54.8648L28.9122 56.74L28.8594 55.622Z" fill="#FED571"/>
<path d="M24.0112 26.432C23.9584 25.2888 24.0608 23.2641 25.013 20.7291C25.1609 20.335 25.6955 20.2773 25.9198 20.6332C26.5324 21.6049 27.4668 23.2649 27.609 24.5446C27.6593 24.9955 27.4465 25.4359 27.0581 25.6715L24.9716 26.9406C24.5613 27.1901 24.0323 26.9114 24.0104 26.432H24.0112Z" fill="url(#paint10_linear_898_431)"/>
<path d="M42.6676 26.4188C42.7204 25.2756 42.618 23.2509 41.6657 20.7159C41.5179 20.3218 40.9832 20.2641 40.759 20.62C40.1464 21.5918 39.212 23.2517 39.0698 24.5314C39.0194 24.9823 39.2323 25.4227 39.6207 25.6583L41.7072 26.9275C42.1175 27.1769 42.6464 26.8982 42.6684 26.4188H42.6676Z" fill="url(#paint11_linear_898_431)"/>
<path d="M22.9966 27.5185C22.9365 25.1883 23.3362 22.8637 24.1845 20.6911C24.4453 20.0232 25.0928 18.2967 26.0573 19.1985C26.4213 19.539 26.6268 20.0444 26.8348 20.4855C27.0664 20.9779 27.2744 21.4792 27.4613 21.9903C27.8635 23.0929 28.173 24.2263 28.5313 25.3435C28.6305 25.6522 29.1196 25.5206 29.0197 25.2086C28.6565 24.076 28.3437 22.9255 27.9325 21.8083C27.7286 21.255 27.5003 20.7098 27.2476 20.1768C27.0136 19.6836 26.7739 19.1465 26.3522 18.7817C26.0053 18.4811 25.5446 18.3487 25.1034 18.5177C24.6606 18.6875 24.36 19.1035 24.1479 19.5105C23.571 20.6196 23.1932 21.879 22.921 23.0937C22.5952 24.544 22.4522 26.0317 22.4904 27.5177C22.4985 27.8427 23.0055 27.8444 22.9966 27.5177V27.5185Z" fill="#26190B"/>
<path d="M22.0467 28.3543C21.157 29.5056 19.9853 30.414 18.6626 31.0161C18.4733 31.1022 18.5245 31.354 18.6626 31.4532C19.393 31.9764 20.342 31.7717 21.1423 31.5482C21.0603 31.4069 20.9782 31.2663 20.8962 31.1249C20.2039 31.6912 19.5401 32.2884 18.9047 32.9181C18.7666 33.0554 18.8365 33.2862 19.0168 33.3414C19.8464 33.5949 20.7702 33.4446 21.4673 32.9254C21.7257 32.7329 21.4738 32.2933 21.2114 32.4883C20.6142 32.9327 19.8651 33.0717 19.1509 32.8531C19.1883 32.9945 19.2257 33.135 19.263 33.2764C19.8984 32.6475 20.5622 32.0496 21.2545 31.4832C21.4568 31.3175 21.2374 30.9957 21.0083 31.0599C20.3355 31.2484 19.5377 31.4597 18.9193 31.0161V31.4532C20.3266 30.8121 21.5413 29.8306 22.4854 28.6094C22.6845 28.3519 22.2449 28.1 22.0483 28.3543H22.0467Z" fill="#26190B"/>
<path d="M21.4303 33.6031C21.3181 36.26 21.5416 39.2394 23.3364 41.3568C23.5477 41.6054 23.9043 41.2463 23.6947 40.9993C21.9958 38.9949 21.8317 36.1089 21.9373 33.6039C21.9511 33.2781 21.4441 33.2789 21.4311 33.6039L21.4303 33.6031Z" fill="#26190B"/>
<path d="M45.0634 33.8801C45.169 36.3859 45.0049 39.2711 43.3059 41.2755C43.0963 41.5225 43.453 41.8824 43.6643 41.633C45.4591 39.5164 45.6825 36.5362 45.5704 33.8793C45.5566 33.5551 45.0504 33.5527 45.0642 33.8793L45.0634 33.8801Z" fill="#26190B"/>
<path d="M44.1389 27.5185C44.2064 24.8917 43.6994 22.2632 42.6423 19.8558C42.2848 19.0417 41.5373 18.0391 40.533 18.5981C40.1114 18.8329 39.8327 19.2781 39.619 19.6941C39.3379 20.2417 39.0917 20.8089 38.8731 21.3833C38.3962 22.6394 38.0614 23.9435 37.6097 25.2086C37.5 25.5157 37.9891 25.6481 38.098 25.3434C38.449 24.3595 38.7334 23.3544 39.0624 22.3624C39.3834 21.3955 39.7368 20.3262 40.3275 19.4869C40.5907 19.1132 41.0181 18.7727 41.4755 19.0563C41.872 19.3017 42.076 19.8079 42.2507 20.2174C42.7114 21.2939 43.0583 22.4209 43.2923 23.5681C43.558 24.8681 43.6669 26.1933 43.6327 27.5185C43.6246 27.8443 44.1308 27.8443 44.1389 27.5185Z" fill="#26190B"/>
<path d="M44.4898 28.7095C45.4412 29.8917 46.6762 30.8317 48.0697 31.433V30.9958C47.4603 31.4517 46.66 31.2599 45.9823 31.0844C45.7565 31.0259 45.5265 31.3428 45.7362 31.5077C46.439 32.0602 47.115 32.6444 47.7625 33.2611C47.7999 33.1197 47.8373 32.9792 47.8747 32.8378C47.1653 33.0702 46.4138 32.9499 45.8068 32.5168C45.5412 32.3267 45.2877 32.7655 45.5509 32.954C46.2578 33.4585 47.184 33.5958 48.0087 33.3261C48.1842 33.2684 48.2647 33.0401 48.1208 32.9028C47.4733 32.2861 46.7973 31.7019 46.0945 31.1494C46.0124 31.2908 45.9303 31.4313 45.8483 31.5727C46.6502 31.7807 47.6073 31.9708 48.3256 31.433C48.458 31.3338 48.5198 31.0803 48.3256 30.9958C46.9655 30.4084 45.7768 29.5049 44.8481 28.3512C44.6442 28.0977 44.2875 28.4576 44.4898 28.7087V28.7095Z" fill="#26190B"/>
<path d="M28.2154 31.034C28.1805 31.4337 28.1545 31.8392 28.1675 32.2405C28.1772 32.5477 28.2885 32.9344 28.6371 33.0019C28.7508 33.0238 28.8613 32.9864 28.9231 32.8857C29.2928 32.2828 29.266 31.4516 28.8337 30.8861C28.7703 30.804 28.6915 30.7488 28.581 30.765C28.4908 30.7789 28.386 30.8479 28.3706 30.9462C28.2788 31.5312 28.2853 32.1146 28.3917 32.698C28.4112 32.806 28.5323 32.884 28.6363 32.884C28.7476 32.884 28.8508 32.8052 28.8808 32.698C29.0393 32.1325 29.0117 31.515 28.7898 30.9706C28.7419 30.8536 28.6322 30.752 28.4973 30.7724C28.3625 30.7927 28.3056 30.9097 28.2918 31.038C28.2373 31.5605 28.2243 32.0862 28.2544 32.611C28.2625 32.7475 28.3649 32.8637 28.5079 32.8637C28.6387 32.8637 28.7687 32.7475 28.7614 32.611C28.7313 32.0862 28.7435 31.5613 28.7988 31.038C28.633 31.0608 28.4673 31.0827 28.3015 31.1055C28.4957 31.5808 28.529 32.078 28.3925 32.5639H28.8808C28.7923 32.0821 28.7842 31.5654 28.8597 31.0819C28.7053 31.1022 28.551 31.1225 28.3966 31.142C28.4413 31.2014 28.4827 31.2623 28.5185 31.3273C28.5355 31.3582 28.551 31.389 28.5656 31.4199C28.5843 31.4589 28.555 31.3915 28.5713 31.4313C28.5778 31.4475 28.5843 31.4638 28.59 31.48C28.6152 31.5499 28.6355 31.6206 28.6509 31.6937C28.6542 31.7108 28.6574 31.7279 28.6607 31.7449C28.6631 31.7587 28.6672 31.7831 28.6631 31.7555C28.6688 31.7945 28.6712 31.8335 28.6737 31.8725C28.6883 32.1577 28.6322 32.3925 28.4868 32.6305C28.5818 32.5915 28.6777 32.5534 28.7728 32.5144C28.759 32.5119 28.746 32.5095 28.733 32.5046C28.763 32.5184 28.7655 32.5192 28.7403 32.5062C28.7655 32.5282 28.7671 32.529 28.746 32.5111C28.7273 32.4908 28.7281 32.4932 28.7476 32.5176C28.7313 32.4957 28.7183 32.4713 28.707 32.4469C28.7305 32.4981 28.707 32.4396 28.7029 32.4266C28.6948 32.3982 28.6891 32.3689 28.6826 32.3397C28.6777 32.3096 28.6777 32.3104 28.6826 32.3397C28.681 32.325 28.6793 32.3096 28.6785 32.295C28.6737 32.2259 28.6745 32.156 28.6753 32.087C28.6769 31.7352 28.694 31.3842 28.724 31.034C28.7362 30.8975 28.5989 30.7813 28.4705 30.7813C28.3235 30.7813 28.2292 30.8975 28.217 31.034H28.2154Z" fill="#26190B"/>
<path d="M38.4185 31.0342C38.3836 31.4339 38.3576 31.8394 38.3706 32.2407C38.3803 32.5479 38.4917 32.9346 38.8402 33.0021C38.954 33.024 39.0645 32.9866 39.1262 32.8859C39.4959 32.283 39.4691 31.4518 39.0368 30.8863C38.9735 30.8043 38.8947 30.749 38.7842 30.7652C38.694 30.7791 38.5892 30.8481 38.5737 30.9464C38.4819 31.5314 38.4884 32.1148 38.5948 32.6982C38.6143 32.8062 38.7354 32.8843 38.8394 32.8843C38.9507 32.8843 39.0539 32.8054 39.084 32.6982C39.2424 32.1327 39.2148 31.5152 38.993 30.9708C38.945 30.8538 38.8378 30.7425 38.7037 30.762C38.5713 30.7823 38.5095 30.9091 38.4957 31.0374C38.4413 31.5599 38.4283 32.0856 38.4583 32.6104C38.4665 32.7469 38.5688 32.8631 38.7118 32.8631C38.8427 32.8631 38.9727 32.7469 38.9653 32.6104C38.9353 32.0856 38.9475 31.5607 39.0027 31.0374C38.837 31.0602 38.6712 31.0821 38.5055 31.1049C38.6997 31.5802 38.733 32.0774 38.5965 32.5633H39.0848C38.9962 32.0815 38.9881 31.5647 39.0637 31.0813C38.9093 31.1016 38.7549 31.1219 38.6005 31.1414C38.6452 31.2007 38.6867 31.2617 38.7224 31.3267C38.7395 31.3576 38.7549 31.3884 38.7695 31.4193C38.7882 31.4583 38.759 31.3909 38.7752 31.4307C38.7817 31.4469 38.7882 31.4632 38.7939 31.4794C38.8191 31.5493 38.8394 31.62 38.8548 31.6931C38.8581 31.7102 38.8613 31.7273 38.8646 31.7443C38.867 31.7581 38.8711 31.7825 38.867 31.7549C38.8727 31.7939 38.8752 31.8329 38.8776 31.8719C38.8922 32.1571 38.8362 32.3919 38.6907 32.6299C38.7858 32.5909 38.8817 32.5528 38.9767 32.5138C38.9629 32.5113 38.9499 32.5089 38.9369 32.504C38.967 32.5178 38.9694 32.5186 38.9442 32.5056C38.9694 32.5276 38.971 32.5284 38.9499 32.5105C38.9312 32.4902 38.932 32.4926 38.9515 32.517C38.9353 32.4951 38.9223 32.4707 38.9109 32.4463C38.9345 32.4975 38.9109 32.439 38.9068 32.426C38.8987 32.3976 38.893 32.3683 38.8865 32.3391C38.8817 32.309 38.8817 32.3098 38.8865 32.3391C38.8849 32.3244 38.8833 32.309 38.8825 32.2944C38.8776 32.2253 38.8784 32.1554 38.8792 32.0864C38.8808 31.7346 38.8979 31.3836 38.928 31.0334C38.9402 30.8969 38.8028 30.7807 38.6745 30.7807C38.5274 30.7807 38.4332 30.8969 38.421 31.0334L38.4185 31.0342Z" fill="#26190B"/>
<path d="M35.0665 36.2383C35.3086 35.8954 35.5174 35.4981 35.5678 35.0764C35.5906 34.8871 35.5556 34.6832 35.4086 34.5483C35.2623 34.415 35.0698 34.389 34.8813 34.3728C34.4506 34.3354 34.0159 34.3224 33.5845 34.3192C33.1685 34.3159 32.7493 34.337 32.3422 34.4297C32.3869 34.5922 32.4316 34.7547 32.4771 34.918L32.5047 34.9115L32.3698 34.4232C31.8758 34.5678 31.7938 35.0983 31.9197 35.5314C32.0505 35.9823 32.3617 36.3545 32.7013 36.6689C32.8768 36.8314 33.0678 36.9801 33.2684 37.1109C33.4805 37.2482 33.7096 37.3725 33.9696 37.2994C34.2085 37.232 34.3864 37.0337 34.5498 36.859C34.7342 36.6624 34.9073 36.4568 35.0665 36.2383C35.1469 36.1278 35.0852 35.9563 34.9755 35.8922C34.8471 35.8174 34.7098 35.8718 34.6294 35.9832C34.5181 36.1351 34.3962 36.2781 34.2694 36.4178C34.1581 36.5389 34.0436 36.69 33.9022 36.7778C33.7633 36.8639 33.6438 36.7526 33.5236 36.6746C33.3724 36.5771 33.2311 36.4682 33.097 36.3472C32.8606 36.1335 32.6054 35.8783 32.473 35.5842C32.4023 35.4266 32.239 34.9887 32.5031 34.9115C32.8167 34.8197 32.6859 34.3508 32.3682 34.4232L32.3406 34.4297C32.0229 34.502 32.1578 34.9903 32.4754 34.918C33.1149 34.7717 33.7966 34.8205 34.4466 34.8513C34.6164 34.8595 34.7951 34.8587 34.9625 34.8879C35.0941 34.9107 35.0795 34.9578 35.0551 35.0845C34.9909 35.4152 34.8211 35.7118 34.6286 35.984C34.4401 36.2505 34.8788 36.5032 35.0657 36.2391L35.0665 36.2383Z" fill="#26190B"/>
<path d="M33.5081 37.3909C33.4122 38.2456 32.9239 39.0557 32.2186 39.5456C32.1065 39.6236 32.0545 39.7674 32.1276 39.8917C32.1926 40.0031 32.3616 40.0607 32.4738 39.9827C33.3399 39.3807 33.8973 38.4374 34.0143 37.3909C34.0297 37.2552 33.8867 37.1382 33.7608 37.1382C33.6113 37.1382 33.5227 37.2552 33.5073 37.3909H33.5081Z" fill="#26190B"/>
<path d="M33.5637 37.2893C33.627 38.3659 34.2389 39.3709 35.1765 39.9088C35.46 40.0713 35.7152 39.6342 35.4324 39.4717C34.6532 39.0248 34.1235 38.1879 34.0699 37.2893C34.0617 37.1528 33.9594 37.0366 33.8164 37.0366C33.6855 37.0366 33.5547 37.1528 33.5629 37.2893H33.5637Z" fill="#26190B"/>
<path d="M32.6265 34.7576C32.4015 34.7754 32.2682 34.9168 32.187 35.1183C32.1106 35.3052 32.113 35.5384 32.3145 35.6448C32.503 35.7448 32.7232 35.6375 32.85 35.488C32.9905 35.3214 33.0311 35.1183 32.9938 34.9063C32.9613 34.7202 32.6907 34.6609 32.5705 34.7949C32.3876 34.9989 32.2682 35.2711 32.2999 35.5489C32.334 35.8496 32.5835 36.0901 32.8995 36.0113C33.153 35.9479 33.3651 35.7139 33.4146 35.4588C33.4675 35.1833 33.3196 34.8762 33.0295 34.8144C32.6777 34.7389 32.5201 35.1297 32.486 35.41C32.4543 35.6765 32.5266 35.9528 32.694 36.1632C32.8678 36.3818 33.1636 36.4874 33.4138 36.3241C33.656 36.1664 33.7681 35.8423 33.7616 35.5636C33.7551 35.2841 33.63 34.9964 33.3748 34.8583C33.127 34.7234 32.8223 34.8112 32.6777 35.0517C32.4031 35.5075 32.6883 36.1681 33.1035 36.4354C33.3472 36.5922 33.6478 36.5719 33.864 36.3793C34.0419 36.2201 34.1418 35.9788 34.2003 35.7529C34.2743 35.4677 34.2596 35.1524 34.0362 34.9363C33.8233 34.7308 33.4926 34.7218 33.2773 34.929C33.0872 35.1126 33.0238 35.4035 33.0125 35.657C33.0003 35.9276 33.0669 36.2014 33.192 36.4403C33.3147 36.6743 33.53 36.8888 33.8063 36.9099C34.0809 36.9302 34.3092 36.7409 34.4173 36.5012C34.6293 36.0316 34.4701 35.2881 33.8469 35.2743C33.2578 35.2613 33.0539 36.0722 33.3431 36.4914C33.5048 36.7254 33.7981 36.7953 34.063 36.7108C34.3206 36.6288 34.5196 36.4468 34.6781 36.2347C34.8325 36.0291 34.9389 35.7813 34.9795 35.527C35.0006 35.3929 35.0258 35.241 34.9543 35.1167C34.8763 34.981 34.7211 34.9144 34.5684 34.9225C34.2735 34.9388 34.0403 35.2394 34.1069 35.5286C34.1678 35.7951 34.4481 35.9723 34.7155 35.9113C34.9657 35.8544 35.1778 35.5823 35.2387 35.3418C35.3224 35.0103 35.0892 34.7763 34.7675 34.7616C34.5408 34.7511 34.2783 34.7795 34.0833 34.9038C33.851 35.0525 33.6909 35.3889 33.9168 35.618C34.1426 35.8471 34.4815 35.7448 34.6513 35.5132C34.7228 35.4149 34.7967 35.2841 34.7967 35.1589C34.7967 34.9851 34.6602 34.8681 34.5001 34.838C34.3547 34.8104 34.2044 34.7966 34.0565 34.799C33.8989 34.8014 33.7193 34.8023 33.6226 34.9477C33.4358 35.2304 33.764 35.5059 34.0354 35.5099C34.358 35.5148 34.5538 35.1557 34.3246 34.9054C34.1483 34.7129 33.7851 34.6479 33.5357 34.6633C33.374 34.6731 33.2302 34.7779 33.2294 34.9518C33.2286 35.1557 33.4033 35.2467 33.5836 35.2215C33.7193 35.2028 33.7933 35.0298 33.7608 34.9103C33.721 34.7641 33.5853 34.7145 33.4496 34.7332L33.4309 34.7356C33.513 34.7576 33.595 34.7787 33.6771 34.8006L33.6625 34.7836C33.6868 34.8429 33.712 34.903 33.7364 34.9623V34.9396C33.7128 34.9989 33.6876 35.059 33.6633 35.1183L33.6803 35.1029C33.643 35.1248 33.6056 35.1459 33.5682 35.1679C33.5316 35.1793 33.5747 35.1679 33.5942 35.1679C33.6275 35.1687 33.6616 35.1703 33.6958 35.1744C33.7583 35.1825 33.8217 35.1996 33.8818 35.2191C33.8989 35.2248 33.9192 35.2361 33.9371 35.2394C33.9468 35.2451 33.9574 35.2516 33.9671 35.2573C33.9858 35.1736 34.0045 35.0907 34.0232 35.007C34.0216 35.0029 34.072 35.0021 34.0297 34.9989C33.9875 34.9956 34.0915 34.9526 34.0785 35.0948C34.0671 35.137 34.0557 35.1801 34.0435 35.2223L34.0598 35.2012C34.0297 35.2313 33.9988 35.2613 33.9688 35.2922C33.8932 35.3263 34.0143 35.3036 34.033 35.3036C34.0801 35.3028 34.1272 35.3036 34.1751 35.3052C34.2223 35.3076 34.2694 35.3101 34.3165 35.3166C34.3571 35.3223 34.4124 35.3629 34.358 35.306C34.336 35.2686 34.3149 35.2313 34.293 35.1947L34.3003 35.2256V35.0907C34.2938 35.1305 34.2198 35.2183 34.2255 35.241C34.2239 35.2345 34.2735 35.2573 34.2759 35.2589C34.2865 35.2987 34.2978 35.3385 34.3084 35.3775L34.3263 35.3491C34.3336 35.3466 34.3531 35.3296 34.3531 35.3296C34.3978 35.2995 34.4644 35.2857 34.5188 35.2768C34.5595 35.2703 34.6017 35.2694 34.6423 35.2678C34.6586 35.2678 34.8 35.2776 34.8081 35.2678C34.7943 35.2841 34.7536 35.2061 34.752 35.2061C34.7585 35.2044 34.7244 35.2719 34.7228 35.2751C34.7041 35.3093 34.6805 35.3418 34.6537 35.3702C34.6431 35.3816 34.6301 35.3913 34.6212 35.4035L34.5895 35.4222L34.6171 35.4165C34.622 35.4124 34.5903 35.4279 34.5952 35.4068C34.5952 35.4051 34.6033 35.4425 34.5976 35.4401C34.5952 35.4393 34.6009 35.4246 34.6033 35.4254C34.6082 35.4263 34.4945 35.3084 34.4969 35.3076C34.4936 35.3093 34.492 35.3897 34.492 35.3864C34.4563 35.7017 34.2418 36.1348 33.9111 36.2282C33.7591 36.2713 33.725 36.1697 33.725 36.0308C33.725 35.9479 33.738 35.7691 33.8469 35.7805C33.9996 35.7968 34.0183 36.0023 34.0053 36.1193C33.9964 36.203 33.9493 36.4045 33.8404 36.4053C33.7015 36.4061 33.5999 36.1356 33.5682 36.0356C33.5097 35.8488 33.5 35.6497 33.5495 35.4596C33.569 35.3848 33.6072 35.228 33.6901 35.306C33.8063 35.4157 33.7039 35.6749 33.656 35.7951C33.6291 35.8626 33.5918 35.9349 33.5406 35.9869C33.4991 36.0283 33.4756 36.0454 33.4252 36.0316C33.2692 35.9893 33.153 35.7773 33.11 35.6343C33.0864 35.5571 33.071 35.4677 33.0831 35.3938C33.0888 35.3613 33.0978 35.3263 33.1148 35.306C33.1286 35.2889 33.1189 35.2979 33.1148 35.2979C33.162 35.2971 33.2123 35.3808 33.2286 35.4198C33.2651 35.5083 33.2627 35.618 33.24 35.7098C33.2237 35.7732 33.192 35.8821 33.1246 35.904C33.1628 35.8918 33.1319 35.8951 33.1026 35.8642C33.0734 35.8333 33.049 35.7935 33.0311 35.7545C32.9686 35.6204 32.9466 35.3596 33.0685 35.2499C33.0311 35.2719 32.9938 35.293 32.9564 35.3149C32.9491 35.3174 32.906 35.2979 32.906 35.2979C32.9133 35.2873 32.9133 35.3344 32.9182 35.3174C32.9133 35.3369 32.9215 35.3588 32.9125 35.384C32.8995 35.4214 32.8695 35.462 32.8378 35.4872C32.8361 35.4888 32.7638 35.5359 32.7655 35.5221C32.7671 35.5099 32.8101 35.5384 32.8085 35.5384C32.8313 35.5359 32.8061 35.5749 32.8093 35.5327C32.8118 35.5034 32.7971 35.4661 32.8004 35.4328C32.811 35.3296 32.8597 35.2296 32.9288 35.1533C32.7874 35.1159 32.6468 35.0785 32.5055 35.0419C32.5095 35.0679 32.5014 35.0996 32.4908 35.1224C32.4851 35.1346 32.473 35.1459 32.4689 35.1581C32.4372 35.2434 32.3608 35.0858 32.5445 35.1931C32.5745 35.2231 32.6054 35.2532 32.6355 35.2841C32.6346 35.3596 32.6403 35.3694 32.6525 35.3141C32.6493 35.293 32.6533 35.2833 32.6647 35.2841C32.6663 35.2361 32.7086 35.2581 32.6273 35.2646C32.7638 35.254 32.8808 35.1557 32.8808 35.0119C32.8808 34.8835 32.7646 34.7478 32.6273 34.7592L32.6265 34.7576Z" fill="#26190B"/>
<path d="M29.4456 35.9065C29.4277 37.607 30.2638 39.2337 31.6353 40.233C31.8993 40.4248 32.152 39.986 31.8912 39.7959C30.666 38.9038 29.9372 37.4169 29.9526 35.9065C29.9558 35.5807 29.4497 35.5807 29.4464 35.9065H29.4456Z" fill="#26190B"/>
<path d="M37.7358 35.9097C37.7512 37.4201 37.0224 38.907 35.7972 39.7991C35.5363 39.9893 35.789 40.4288 36.0531 40.2363C37.4246 39.2377 38.2598 37.6103 38.2428 35.9097C38.2395 35.5839 37.7325 35.5831 37.7366 35.9097H37.7358Z" fill="#26190B"/>
<path d="M30.11 35.0175C30.9176 33.7313 32.3899 33.4681 33.7996 33.4908C35.0776 33.5111 36.8903 33.6005 37.5257 34.9379C37.6654 35.232 38.1026 34.9753 37.9628 34.6828C37.2446 33.1723 35.2556 33.0082 33.7996 32.9855C32.9505 32.9716 32.1031 33.0196 31.3166 33.3657C30.643 33.6623 30.0645 34.1392 29.6729 34.7632C29.499 35.0403 29.9369 35.2946 30.11 35.0183V35.0175Z" fill="#26190B"/>
<path d="M32.192 40.7035C32.6526 41.2202 33.3433 41.5021 34.0347 41.4583C34.6985 41.416 35.3339 41.2202 35.7353 40.6588C35.8149 40.5475 35.7548 40.3768 35.6443 40.3126C35.5167 40.2379 35.3778 40.2915 35.2982 40.4036C35.0024 40.8172 34.4661 40.9318 33.9868 40.9553C33.4359 40.9821 32.9151 40.7563 32.5503 40.346C32.3333 40.1022 31.9758 40.4613 32.192 40.7035Z" fill="#26190B"/>
<path d="M29.2716 25.0859C29.6827 24.0045 30.1036 22.841 30.9088 21.9854C31.7229 21.1209 32.9587 20.6887 34.1304 20.8666C35.2492 21.0372 35.9991 21.74 36.5191 22.7085C36.9985 23.6007 37.4242 24.5887 37.6168 25.5897C37.6802 25.9163 38.175 25.7782 38.1116 25.4524C37.8947 24.3287 37.3966 23.1895 36.827 22.204C36.2307 21.1745 35.2906 20.4937 34.1027 20.3442C32.8685 20.189 31.5686 20.6196 30.6732 21.4906C29.7185 22.4193 29.2399 23.7274 28.776 24.9486C28.6574 25.2598 29.1538 25.3947 29.2708 25.0859H29.2716Z" fill="#26190B"/>
<path d="M29.1152 25.7121C31.6551 23.7337 35.148 23.7085 37.7139 25.6536C37.9723 25.8494 38.2225 25.4098 37.9674 25.2165C35.2772 23.1771 31.5259 23.1998 28.8625 25.275C28.6107 25.4716 28.8601 25.9112 29.116 25.7121H29.1152Z" fill="#26190B"/>
<path d="M29.2639 27.5945C30.5347 26.648 32.0622 26.2946 33.6449 26.2824C35.1481 26.271 36.4838 26.5659 37.6985 27.4524C37.9674 27.6482 38.2283 27.2094 37.9626 27.0152C36.6796 26.08 35.2301 25.7648 33.6449 25.7762C31.9809 25.7884 30.3373 26.1613 28.9999 27.1574C28.7374 27.3532 28.9966 27.7928 29.2639 27.5945Z" fill="#26190B"/>
<path d="M28.7736 25.6172C28.7427 26.1461 28.7573 26.6767 28.8158 27.204C28.8305 27.3348 28.9223 27.464 29.0693 27.4567C29.1937 27.451 29.3383 27.3446 29.3228 27.204C29.2643 26.6767 29.2505 26.1469 29.2806 25.6172C29.2879 25.4847 29.1587 25.358 29.0271 25.3645C28.8833 25.371 28.7817 25.4758 28.7736 25.6172Z" fill="#26190B"/>
<path d="M37.5745 25.6172C37.6054 26.1461 37.5908 26.6767 37.5323 27.204C37.5177 27.3364 37.659 27.4624 37.7858 27.4567C37.9353 27.4502 38.023 27.3454 38.0393 27.204C38.0978 26.6767 38.1116 26.1469 38.0815 25.6172C38.0742 25.4856 37.9702 25.358 37.828 25.3645C37.6972 25.3702 37.5664 25.4758 37.5745 25.6172Z" fill="#26190B"/>
<path d="M24.2938 41.9859C27.1635 43.1348 30.2088 43.7775 33.1476 44.7192C33.4588 44.8191 33.592 44.3308 33.2825 44.2309C30.3436 43.2892 27.2984 42.6465 24.4287 41.4976C24.1264 41.3766 23.9948 41.8657 24.2938 41.9859Z" fill="#26190B"/>
<path d="M34.5549 44.7878C37.2321 44.0086 39.9654 43.3708 42.5516 42.3113C42.8489 42.1895 42.7189 41.6995 42.4167 41.823C39.8305 42.8825 37.0972 43.5203 34.4201 44.2995C34.1081 44.3905 34.2405 44.8788 34.5549 44.7878Z" fill="#26190B"/>
<path d="M22.6551 40.7108C22.0645 41.1268 21.8394 41.8336 21.6891 42.5088C21.5111 43.3083 21.464 44.133 21.5485 44.9471C21.5818 45.2681 22.0888 45.2713 22.0547 44.9471C21.98 44.2273 22.0035 43.4993 22.1457 42.7891C22.2587 42.2261 22.4073 41.5005 22.9095 41.1479C23.1735 40.9618 22.9208 40.5231 22.6535 40.7108H22.6551Z" fill="#26190B"/>
<path d="M44.089 41.1771C44.5879 41.6289 44.8504 42.2464 44.9999 42.8915C45.1762 43.6512 45.2127 44.4426 45.1615 45.2185C45.1404 45.5435 45.6466 45.5427 45.6677 45.2185C45.7238 44.3767 45.6734 43.5131 45.4727 42.6916C45.3021 41.9904 44.9885 41.3096 44.4465 40.8188C44.2052 40.6002 43.8461 40.9569 44.0882 41.1763L44.089 41.1771Z" fill="#26190B"/>
<path d="M22.6541 46.08C23.8916 46.9298 25.4377 47.2727 26.8889 47.553C28.691 47.9008 30.5272 47.9723 32.3562 48.0633C32.682 48.0795 32.6812 47.5733 32.3562 47.5571C30.5727 47.4677 28.7804 47.4035 27.0229 47.0647C25.6124 46.7925 24.1109 46.4683 22.9084 45.6428C22.6395 45.4576 22.3852 45.8963 22.6525 46.08H22.6541Z" fill="#26190B"/>
<path d="M35.8901 48.2192C38.7119 47.904 41.4727 47.1979 44.0939 46.1043C44.3904 45.9808 44.2604 45.4909 43.959 45.616C41.3834 46.6909 38.6647 47.4027 35.8901 47.7122C35.5699 47.748 35.5659 48.2542 35.8901 48.2184V48.2192Z" fill="#26190B"/>
<path d="M34.9834 48.0472C34.5958 48.0407 34.2083 48.0163 33.824 47.9684C33.6412 47.9457 33.4583 47.9164 33.2772 47.8831C33.1439 47.8587 32.9302 47.8644 32.9237 47.6978C32.9164 47.515 32.9652 47.32 32.992 47.1397C33.0204 46.9471 33.0505 46.7553 33.0838 46.5636C33.1463 46.1931 33.217 45.8242 33.295 45.457C33.3357 45.2677 33.3779 45.0783 33.4226 44.889C33.4429 44.8021 33.473 44.7135 33.486 44.625C33.486 44.6282 33.5038 44.508 33.4892 44.5583C33.4778 44.5973 33.5225 44.5023 33.5412 44.4828C33.7086 44.3073 33.9832 44.291 34.1538 44.4698C34.37 44.6956 34.4788 45.0662 34.604 45.3465C34.7551 45.6837 34.9013 46.0233 35.0313 46.3694C35.1735 46.748 35.2978 47.134 35.3888 47.528C35.4278 47.6954 35.5042 47.9164 35.4863 48.0895C35.4993 47.9652 35.5302 48.0748 35.4733 48.0415C35.4392 48.022 35.336 48.0456 35.2987 48.0464C35.1938 48.048 35.089 48.048 34.9834 48.0472C34.6576 48.044 34.6568 48.5501 34.9834 48.5534C35.3482 48.5566 35.9511 48.6282 35.9893 48.1187C36.0047 47.905 35.9389 47.6727 35.8934 47.4655C35.8406 47.2258 35.7756 46.9893 35.7017 46.7553C35.5611 46.3141 35.388 45.8851 35.2044 45.4602C35.0338 45.0645 34.881 44.6136 34.6316 44.2593C34.4098 43.9457 34.0588 43.78 33.6745 43.8555C33.5071 43.8888 33.3462 43.9709 33.2211 44.0879C33.0529 44.2447 33.0131 44.4243 32.9611 44.6412C32.7328 45.5927 32.5427 46.562 32.4313 47.5345C32.4045 47.771 32.4257 48.0082 32.6142 48.1756C32.7953 48.3373 33.0683 48.3592 33.2967 48.3974C33.8548 48.4917 34.4187 48.5436 34.985 48.5534C35.3108 48.5591 35.3108 48.0529 34.985 48.0472H34.9834Z" fill="#26190B"/>
<path d="M32.6471 47.6659C31.7452 47.8633 30.9798 48.6766 30.446 49.3819C29.8001 50.235 29.3483 51.2246 29.0583 52.2516C28.3798 54.6525 28.6203 57.1745 28.9551 59.6096C28.9843 59.8233 29.3288 59.8558 29.4182 59.6697C31.2219 55.9306 32.9786 52.1679 34.7823 48.428C34.9229 48.1363 34.4866 47.8787 34.3452 48.1729C32.5414 51.912 30.7848 55.6747 28.9811 59.4146C29.1354 59.4349 29.2898 59.4552 29.4442 59.4747C29.1314 57.1997 28.9055 54.8378 29.4929 52.5864C29.7432 51.626 30.1356 50.703 30.7036 49.8864C31.1838 49.1958 31.9191 48.3427 32.7828 48.1542C33.1013 48.0843 32.9664 47.5968 32.6479 47.6659H32.6471Z" fill="#26190B"/>
<path d="M35.6435 48.4436C36.495 48.6215 37.1149 49.534 37.5431 50.2295C38.0477 51.0477 38.3881 51.9536 38.6026 52.888C39.0982 55.05 38.8764 57.3015 38.5774 59.4741C38.7318 59.4538 38.8862 59.4335 39.0405 59.414C37.4375 56.0917 35.8336 52.7694 34.2305 49.447C34.0892 49.1537 33.652 49.4105 33.7934 49.7022C35.3965 53.0245 37.0003 56.3468 38.6034 59.6691C38.692 59.8527 39.0365 59.8235 39.0665 59.609C39.3883 57.2739 39.6231 54.8672 39.0438 52.5516C38.7976 51.5669 38.406 50.6049 37.8429 49.7574C37.3522 49.0197 36.6948 48.1462 35.7783 47.9545C35.4607 47.8879 35.3242 48.3754 35.6435 48.4428V48.4436Z" fill="#26190B"/>
<path d="M21.0819 46.0248C19.9915 47.4296 18.9531 48.8881 18.1959 50.5033C17.4443 52.104 17.0112 53.8053 16.8374 55.5628C16.8057 55.887 17.3119 55.8845 17.3436 55.5628C17.5109 53.8687 17.9391 52.2136 18.6728 50.6748C19.4081 49.1335 20.3953 47.7286 21.4402 46.3831C21.6376 46.1288 21.2817 45.7681 21.0819 46.0256V46.0248Z" fill="#26190B"/>
<path d="M45.6437 46.3831C46.6886 47.7286 47.6758 49.1326 48.4111 50.6748C49.1448 52.2136 49.573 53.8687 49.7403 55.5628C49.772 55.8837 50.279 55.8869 50.2465 55.5628C50.0727 53.8061 49.6396 52.1039 48.888 50.5033C48.13 48.8889 47.0924 47.4296 46.002 46.0248C45.8022 45.7681 45.4463 46.128 45.6437 46.3823V46.3831Z" fill="#26190B"/>
<path d="M17.8576 7.69645C15.1146 9.47339 12.682 11.7102 10.6694 14.2826C8.66176 16.8484 7.0652 19.7239 5.96588 22.7911C4.84951 25.907 4.27101 29.2066 4.27345 32.5159C4.27588 35.9357 4.87957 39.3579 6.02601 42.5795C7.1692 45.7929 8.84701 48.8089 11.005 51.4528C11.2739 51.7819 11.5502 52.1053 11.8338 52.4221C12.0507 52.6659 12.4082 52.3068 12.1921 52.0646C7.70463 47.032 5.08107 40.4158 4.80482 33.6875C4.53832 27.1989 6.57038 20.7785 10.3656 15.5224C12.4667 12.6121 15.0992 10.086 18.1136 8.13358C18.3858 7.95726 18.1323 7.51851 17.8576 7.69645Z" fill="#26190B"/>
<path d="M20.655 7.08556C26.5156 3.93224 33.4999 3.29605 39.9479 4.74637C43.0207 5.4378 45.979 6.58505 48.6408 8.27749C51.162 9.88137 53.3915 11.9151 55.3057 14.2047C57.4897 16.8169 59.2561 19.7671 60.6244 22.8806C60.7552 23.1779 61.1915 22.9212 61.0615 22.6254C58.5931 17.0111 54.7817 11.8696 49.6938 8.36931C44.3711 4.70737 37.6379 3.1173 31.2216 3.57393C27.4467 3.84287 23.736 4.85281 20.3991 6.64843C20.1123 6.80281 20.3674 7.23993 20.655 7.08556Z" fill="#26190B"/>
<path d="M13.1338 54.0498C16.9729 57.5931 21.6845 60.0623 26.7765 61.2331C29.2579 61.8035 31.8075 62.0765 34.3522 62.0813C36.7775 62.0854 39.1517 61.8457 41.4787 61.1413C46.205 59.7113 50.5941 56.9772 54.204 53.637C55.829 52.1339 57.3102 50.465 58.4989 48.5938C59.8046 46.5374 60.8284 44.3038 61.5222 41.9687C62.9937 37.023 62.94 31.7767 62.1154 26.7213C62.0016 26.0267 61.8732 25.3344 61.7335 24.6446C61.6685 24.3253 61.1802 24.461 61.2452 24.7795C62.2673 29.8097 62.6264 35.0633 61.4857 40.1065C60.4668 44.611 58.2739 48.7823 55.0539 52.1006C51.6991 55.5586 47.5066 58.3869 42.9924 60.0915C40.797 60.9211 38.5374 61.4192 36.1925 61.5321C33.69 61.6523 31.1705 61.5248 28.6997 61.1023C23.6882 60.2467 18.918 58.1765 14.9635 54.9679C14.459 54.5584 13.969 54.1318 13.4921 53.6915C13.2532 53.4705 12.8941 53.828 13.1338 54.049V54.0498Z" fill="#26190B"/>
<path d="M33.4992 65.3313C15.5787 65.3313 1 50.764 1 32.8573C1 14.9506 15.5787 0.383301 33.4992 0.383301C51.4197 0.383301 65.9992 14.9514 65.9992 32.8573C65.9992 50.7632 51.4197 65.3321 33.4992 65.3321V65.3313ZM33.4992 0.889488C15.8582 0.889488 1.50619 15.2293 1.50619 32.8573C1.50619 50.4853 15.8582 64.8259 33.4992 64.8259C51.1402 64.8259 65.4922 50.4853 65.4922 32.8573C65.4922 15.2293 51.141 0.889488 33.4992 0.889488Z" fill="#26190B"/>
<path d="M34.0458 62.724C33.8705 62.7269 33.6948 62.7284 33.5188 62.7284C33.3427 62.7284 33.167 62.7269 32.9917 62.724L32.9971 62.3991C33.1706 62.402 33.3445 62.4034 33.5188 62.4034C33.693 62.4034 33.8669 62.402 34.0404 62.3991L34.0458 62.724ZM30.9219 62.2942C31.2665 62.3233 31.6127 62.3467 31.9604 62.3642L31.9441 62.6888C31.5926 62.6711 31.2428 62.6475 30.8946 62.618L30.9219 62.2942ZM36.143 62.618C35.7947 62.6475 35.4449 62.6711 35.0934 62.6888L35.0771 62.3642C35.4248 62.3467 35.771 62.3233 36.1156 62.2942L36.143 62.618ZM28.86 62.0491C29.2009 62.1014 29.5437 62.1481 29.8882 62.1891L29.8499 62.5118C29.5017 62.4704 29.1552 62.4232 28.8107 62.3703L28.86 62.0491ZM38.2268 62.3703C37.8823 62.4232 37.5358 62.4704 37.1876 62.5118L37.1493 62.1891C37.4938 62.1481 37.8366 62.1014 38.1775 62.0491L38.2268 62.3703ZM26.8171 61.663C27.1542 61.7388 27.4934 61.809 27.8347 61.8735L27.7744 62.1928C27.4295 62.1277 27.0865 62.0567 26.7458 61.9801L26.8171 61.663ZM40.2917 61.9801C39.951 62.0567 39.6081 62.1277 39.2632 62.1928L39.2028 61.8735C39.5441 61.809 39.8833 61.7388 40.2204 61.663L40.2917 61.9801ZM24.8071 61.138C25.1385 61.2369 25.4722 61.3303 25.8083 61.418L25.7261 61.7325C25.3865 61.6438 25.0491 61.5494 24.7142 61.4495L24.8071 61.138ZM42.3233 61.4494C41.9884 61.5494 41.651 61.6438 41.3114 61.7325L41.2293 61.418C41.5653 61.3303 41.899 61.2369 42.2304 61.138L42.3233 61.4494ZM22.8378 60.476C23.1614 60.5974 23.4876 60.7134 23.8164 60.8239L23.7128 61.1319C23.3805 61.0202 23.0508 60.903 22.7237 60.7803L22.8378 60.476ZM44.3138 60.7803C43.9867 60.903 43.657 61.0202 43.3247 61.1319L43.2211 60.8239C43.5499 60.7134 43.8761 60.5974 44.1997 60.476L44.3138 60.7803ZM20.9182 59.68C21.233 59.8235 21.5508 59.9617 21.8713 60.0946L21.7468 60.3948C21.4228 60.2605 21.1017 60.1207 20.7834 59.9758L20.9182 59.68ZM46.2541 59.9758C45.9359 60.1207 45.6147 60.2604 45.2907 60.3948L45.1662 60.0946C45.4867 59.9617 45.8045 59.8234 46.1193 59.68L46.2541 59.9758ZM19.0584 58.7546C19.3626 58.9192 19.6699 59.0787 19.9802 59.2332L19.8355 59.5241C19.5218 59.368 19.2111 59.2067 18.9037 59.0404L19.0584 58.7546ZM48.1338 59.0404C47.8264 59.2067 47.5157 59.368 47.2021 59.5241L47.0573 59.2332C47.3676 59.0787 47.6749 58.9192 47.9791 58.7546L48.1338 59.0404ZM17.2654 57.7035C17.5579 57.8887 17.8537 58.069 18.1527 58.2443L17.9884 58.5246C17.6862 58.3474 17.3872 58.1652 17.0917 57.9781L17.2654 57.7035ZM49.9459 57.9781C49.6503 58.1652 49.3513 58.3474 49.0491 58.5246L48.8848 58.2442C49.1838 58.0689 49.4797 57.8887 49.7721 57.7035L49.9459 57.9781ZM15.5488 56.5329C15.828 56.7376 16.1109 56.9377 16.3973 57.133L16.2142 57.4015C15.9247 57.2041 15.6388 57.0019 15.3566 56.795L15.5488 56.5329ZM51.6809 56.795C51.3987 57.0019 51.1128 57.2041 50.8233 57.4015L50.6402 57.133C50.9266 56.9377 51.2095 56.7376 51.4887 56.5329L51.6809 56.795ZM13.9155 55.2482C14.1802 55.4714 14.4489 55.6901 14.7212 55.9044L14.5202 56.1598C14.245 55.9433 13.9736 55.7222 13.706 55.4966L13.9155 55.2482ZM53.3315 55.4966C53.0639 55.7222 52.7925 55.9433 52.5173 56.1598L52.3163 55.9044C52.5886 55.6901 52.8573 55.4714 53.122 55.2482L53.3315 55.4966ZM12.3733 53.8555C12.6223 54.0962 12.8755 54.3327 13.1326 54.5649L12.9148 54.8061C12.655 54.5715 12.3991 54.3325 12.1475 54.0892L12.3733 53.8555ZM54.89 54.0892C54.6384 54.3325 54.3825 54.5715 54.1227 54.8061L53.9049 54.5649C54.162 54.3327 54.4152 54.0962 54.6642 53.8555L54.89 54.0892ZM10.9291 52.3614C11.1613 52.6186 11.3978 52.8717 11.6385 53.1208L11.4049 53.3466C11.1616 53.0949 10.9225 52.8391 10.6879 52.5792L10.9291 52.3614ZM56.3496 52.5792C56.115 52.8391 55.8759 53.0949 55.6326 53.3466L55.399 53.1208C55.6397 52.8717 55.8762 52.6186 56.1084 52.3614L56.3496 52.5792ZM9.58967 50.7729C9.8039 51.0452 10.0227 51.3138 10.2459 51.5785L9.99743 51.788C9.77186 51.5205 9.55075 51.249 9.33426 50.9738L9.58967 50.7729ZM57.7032 50.9738C57.4868 51.249 57.2656 51.5205 57.0401 51.788L56.7916 51.5785C57.0149 51.3138 57.2336 51.0452 57.4478 50.7729L57.7032 50.9738ZM8.36108 49.0967C8.55637 49.3831 8.75648 49.666 8.96118 49.9453L8.69902 50.1374C8.49214 49.8552 8.28994 49.5693 8.09258 49.2799L8.36108 49.0967ZM58.9449 49.2799C58.7476 49.5693 58.5454 49.8552 58.3385 50.1374L58.0763 49.9453C58.281 49.666 58.4811 49.3831 58.6764 49.0967L58.9449 49.2799ZM7.24985 47.3413C7.42516 47.6404 7.60539 47.9362 7.79051 48.2286L7.51597 48.4024C7.32887 48.1068 7.14663 47.8079 6.96944 47.5056L7.24985 47.3413ZM60.0681 47.5056C59.8909 47.8079 59.7086 48.1068 59.5215 48.4024L59.247 48.2286C59.4321 47.9362 59.6124 47.6404 59.7877 47.3413L60.0681 47.5056ZM6.26088 45.5138C6.41531 45.8241 6.57489 46.1315 6.7395 46.4357L6.45369 46.5904C6.28732 46.2829 6.12601 45.9723 5.96992 45.6586L6.26088 45.5138ZM61.0676 45.6585C60.9115 45.9722 60.7502 46.2829 60.5838 46.5904L60.298 46.4357C60.4626 46.1315 60.6222 45.8241 60.7766 45.5138L61.0676 45.6585ZM5.39943 43.6228C5.53234 43.9433 5.67065 44.261 5.81409 44.5759L5.51829 44.7107C5.3733 44.3924 5.2336 44.0712 5.09926 43.7473L5.39943 43.6228ZM61.9382 43.7473C61.8039 44.0712 61.6642 44.3924 61.5192 44.7106L61.2235 44.5759C61.3669 44.261 61.5052 43.9433 61.6381 43.6228L61.9382 43.7473ZM4.67016 41.6777C4.78068 42.0064 4.89668 42.3326 5.01801 42.6563L4.71372 42.7704C4.59108 42.4433 4.47385 42.1135 4.36214 41.7812L4.67016 41.6777ZM62.6754 41.7812C62.5637 42.1135 62.4464 42.4433 62.3238 42.7704L62.0195 42.6563C62.1408 42.3326 62.2568 42.0064 62.3673 41.6777L62.6754 41.7812ZM4.07602 39.6858C4.16377 40.0218 4.25718 40.3556 4.35603 40.687L4.0446 40.7799C3.94468 40.4449 3.85027 40.1076 3.76157 39.7679L4.07602 39.6858ZM63.2759 39.7679C63.1872 40.1076 63.0929 40.4449 62.993 40.7799L62.6815 40.687C62.7803 40.3556 62.8737 40.0218 62.9615 39.6858L63.2759 39.7679ZM3.62058 37.6594C3.68505 38.0006 3.75523 38.3399 3.831 38.677L3.51393 38.7482C3.43735 38.4075 3.36638 38.0647 3.30121 37.7198L3.62058 37.6594ZM63.7363 37.7197C63.6711 38.0646 63.6002 38.4075 63.5236 38.7482L63.2065 38.677C63.2823 38.3399 63.3525 38.0006 63.4169 37.6594L63.7363 37.7197ZM3.30494 35.6058C3.3459 35.9504 3.39261 36.2931 3.44498 36.634L3.12379 36.6834C3.07086 36.3388 3.02364 35.9924 2.98224 35.6442L3.30494 35.6058ZM64.0553 35.6442C64.0139 35.9924 63.9666 36.3388 63.9137 36.6834L63.5925 36.634C63.6449 36.2931 63.6916 35.9504 63.7326 35.6058L64.0553 35.6442ZM3.12982 33.5336C3.14736 33.8814 3.17077 34.2276 3.19988 34.5721L2.87599 34.5995C2.84657 34.2513 2.82294 33.9014 2.80522 33.55L3.12982 33.5336ZM64.2323 33.55C64.2146 33.9014 64.1909 34.2513 64.1615 34.5995L63.8376 34.5721C63.8667 34.2276 63.8901 33.8814 63.9077 33.5336L64.2323 33.55ZM2.76562 31.9753C2.76562 31.7993 2.76712 31.6235 2.77007 31.4482L3.09499 31.4537C3.09207 31.6272 3.09063 31.8011 3.09063 31.9753C3.09063 32.1495 3.09207 32.3234 3.09499 32.4969L2.77007 32.5024C2.76712 32.3271 2.76562 32.1513 2.76562 31.9753ZM63.9469 31.9753C63.9469 31.8011 63.9454 31.6272 63.9425 31.4537L64.2674 31.4482C64.2704 31.6235 64.2719 31.7993 64.2719 31.9753C64.2719 32.1513 64.2704 32.3271 64.2674 32.5024L63.9425 32.4969C63.9454 32.3234 63.9469 32.1495 63.9469 31.9753ZM3.19988 29.3785C3.17077 29.723 3.14736 30.0692 3.12982 30.4169L2.80522 30.4006C2.82294 30.0492 2.84657 29.6993 2.87599 29.3511L3.19988 29.3785ZM64.1615 29.3511C64.1909 29.6993 64.2146 30.0492 64.2323 30.4006L63.9077 30.4169C63.8901 30.0692 63.8667 29.723 63.8376 29.3785L64.1615 29.3511ZM3.44498 27.3166C3.39261 27.6575 3.3459 28.0002 3.30494 28.3448L2.98224 28.3064C3.02364 27.9582 3.07086 27.6118 3.12379 27.2672L3.44498 27.3166ZM63.9137 27.2672C63.9666 27.6118 64.0139 27.9582 64.0553 28.3064L63.7326 28.3448C63.6916 28.0002 63.6449 27.6575 63.5925 27.3166L63.9137 27.2672ZM3.831 25.2736C3.75523 25.6107 3.68505 25.95 3.62058 26.2912L3.30121 26.2309C3.36638 25.886 3.43735 25.5431 3.51393 25.2023L3.831 25.2736ZM63.5236 25.2023C63.6002 25.5431 63.6711 25.8859 63.7363 26.2308L63.4169 26.2912C63.3525 25.95 63.2823 25.6107 63.2065 25.2736L63.5236 25.2023ZM4.35603 23.2636C4.25718 23.595 4.16377 23.9288 4.07602 24.2648L3.76157 24.1827C3.85027 23.843 3.94461 23.5057 4.04452 23.1707L4.35603 23.2636ZM62.9929 23.1707C63.0928 23.5057 63.1872 23.843 63.2759 24.1827L62.9615 24.2648C62.8737 23.9288 62.7803 23.595 62.6815 23.2636L62.9929 23.1707ZM5.01801 21.2943C4.89668 21.6179 4.78068 21.9442 4.67016 22.2729L4.36214 22.1694C4.47385 21.8371 4.59108 21.5073 4.71372 21.1802L5.01801 21.2943ZM62.3238 21.1802C62.4464 21.5073 62.5637 21.8371 62.6754 22.1694L62.3673 22.2729C62.2568 21.9442 62.1408 21.6179 62.0195 21.2943L62.3238 21.1802ZM5.81401 19.3747C5.67057 19.6896 5.53233 20.0073 5.39943 20.3278L5.09926 20.2033C5.2336 19.8794 5.37331 19.5582 5.51829 19.24L5.81401 19.3747ZM61.5192 19.2399C61.6642 19.5582 61.8039 19.8794 61.9382 20.2033L61.6381 20.3278C61.5052 20.0073 61.3669 19.6896 61.2234 19.3747L61.5192 19.2399ZM6.7395 17.5149C6.57489 17.8191 6.41531 18.1264 6.26088 18.4368L5.96992 18.292C6.12602 17.9784 6.28731 17.6677 6.45369 17.3602L6.7395 17.5149ZM60.5838 17.3602C60.7502 17.6677 60.9115 17.9783 61.0676 18.292L60.7766 18.4368C60.6222 18.1264 60.4626 17.8191 60.298 17.5149L60.5838 17.3602ZM7.79051 15.722C7.60538 16.0144 7.42509 16.3102 7.24977 16.6093L6.96944 16.445C7.14663 16.1427 7.32887 15.8437 7.51597 15.5482L7.79051 15.722ZM59.5215 15.5482C59.7086 15.8437 59.8909 16.1427 60.0681 16.445L59.7877 16.6093C59.6123 16.3102 59.4321 16.0144 59.247 15.722L59.5215 15.5482ZM8.96118 14.0053C8.75648 14.2846 8.55637 14.5675 8.36108 14.8538L8.09258 14.6707C8.28994 14.3813 8.49214 14.0954 8.69902 13.8131L8.96118 14.0053ZM58.3385 13.8131C58.5454 14.0954 58.7476 14.3813 58.9449 14.6707L58.6764 14.8538C58.4811 14.5675 58.281 14.2846 58.0763 14.0053L58.3385 13.8131ZM10.2459 12.3721C10.0227 12.6368 9.8039 12.9054 9.58967 13.1777L9.33426 12.9768C9.55075 12.7015 9.77186 12.4301 9.99743 12.1626L10.2459 12.3721ZM57.0401 12.1626C57.2656 12.4301 57.4868 12.7015 57.7032 12.9768L57.4478 13.1777C57.2336 12.9054 57.0149 12.6368 56.7916 12.3721L57.0401 12.1626ZM11.6385 10.8298C11.3978 11.0789 11.1613 11.332 10.9291 11.5892L10.6879 11.3714C10.9225 11.1115 11.1616 10.8557 11.4049 10.604L11.6385 10.8298ZM55.6326 10.604C55.8759 10.8557 56.115 11.1115 56.3496 11.3714L56.1084 11.5892C55.8762 11.332 55.6397 11.0789 55.399 10.8298L55.6326 10.604ZM13.1326 9.38565C12.8755 9.61784 12.6223 9.85435 12.3733 10.0951L12.1475 9.86141C12.3991 9.61812 12.655 9.37909 12.9148 9.14444L13.1326 9.38565ZM54.1227 9.14444C54.3825 9.37909 54.6384 9.61812 54.89 9.86141L54.6642 10.0951C54.4152 9.85435 54.162 9.61784 53.9049 9.38565L54.1227 9.14444ZM14.7212 8.04622C14.4489 8.26044 14.1802 8.4792 13.9155 8.7024L13.706 8.45397C13.9736 8.2284 14.245 8.0073 14.5202 7.7908L14.7212 8.04622ZM52.5173 7.7908C52.7925 8.0073 53.0639 8.2284 53.3315 8.45397L53.122 8.7024C52.8573 8.4792 52.5886 8.26044 52.3163 8.04622L52.5173 7.7908ZM16.3973 6.81763C16.1109 7.01291 15.828 7.21302 15.5488 7.41772L15.3566 7.15556C15.6388 6.94869 15.9247 6.74649 16.2142 6.54912L16.3973 6.81763ZM50.8233 6.54912C51.1128 6.74649 51.3987 6.94869 51.6809 7.15556L51.4887 7.41772C51.2095 7.21302 50.9266 7.01291 50.6402 6.81763L50.8233 6.54912ZM18.1527 5.70639C17.8537 5.8817 17.5578 6.06193 17.2654 6.24705L17.0917 5.97252C17.3872 5.78541 17.6862 5.60317 17.9884 5.42598L18.1527 5.70639ZM49.0491 5.42598C49.3513 5.60317 49.6503 5.78541 49.9459 5.97252L49.7721 6.24705C49.4796 6.06192 49.1838 5.88163 48.8848 5.70631L49.0491 5.42598ZM19.9802 4.71743C19.6699 4.87186 19.3626 5.03143 19.0584 5.19604L18.9037 4.91024C19.2111 4.74386 19.5218 4.58256 19.8354 4.42647L19.9802 4.71743ZM47.202 4.42647C47.5157 4.58256 47.8264 4.74385 48.1338 4.91024L47.9791 5.19604C47.6749 5.03143 47.3676 4.87186 47.0573 4.71743L47.202 4.42647ZM21.8713 3.85597C21.5508 3.98888 21.233 4.12719 20.9182 4.27063L20.7834 3.97483C21.1016 3.82985 21.4228 3.69014 21.7468 3.5558L21.8713 3.85597ZM45.2907 3.5558C45.6147 3.69014 45.9358 3.82985 46.2541 3.97483L46.1193 4.27055C45.8045 4.12711 45.4867 3.98888 45.1662 3.85597L45.2907 3.5558ZM23.8164 3.1267C23.4876 3.23722 23.1614 3.35322 22.8378 3.47455L22.7237 3.17026C23.0508 3.04762 23.3805 2.93039 23.7128 2.81868L23.8164 3.1267ZM43.3247 2.81868C43.657 2.93039 43.9867 3.04763 44.3138 3.17026L44.1997 3.47455C43.8761 3.35322 43.5499 3.23722 43.2211 3.1267L43.3247 2.81868ZM25.8083 2.53256C25.4722 2.62032 25.1385 2.71372 24.8071 2.81257L24.7142 2.50114C25.0491 2.40123 25.3865 2.30682 25.7261 2.21812L25.8083 2.53256ZM41.3114 2.21812C41.651 2.30681 41.9884 2.40115 42.3233 2.50106L42.2304 2.81257C41.899 2.71372 41.5653 2.62032 41.2293 2.53256L41.3114 2.21812ZM27.8347 2.07712C27.4934 2.1416 27.1542 2.21177 26.8171 2.28754L26.7458 1.97048C27.0865 1.89389 27.4294 1.82292 27.7743 1.75775L27.8347 2.07712ZM39.2631 1.75775C39.6081 1.82292 39.951 1.89389 40.2917 1.97048L40.2204 2.28754C39.8833 2.21177 39.5441 2.1416 39.2028 2.07712L39.2631 1.75775ZM29.8882 1.76148C29.5437 1.80244 29.2009 1.84915 28.86 1.90153L28.8107 1.58033C29.1552 1.5274 29.5017 1.48018 29.8499 1.43878L29.8882 1.76148ZM37.1876 1.43878C37.5358 1.48018 37.8823 1.5274 38.2268 1.58033L38.1775 1.90153C37.8366 1.84915 37.4938 1.80244 37.1493 1.76148L37.1876 1.43878ZM31.9604 1.58636C31.6127 1.60391 31.2665 1.62731 30.9219 1.65643L30.8946 1.33254C31.2428 1.30311 31.5926 1.27949 31.9441 1.26176L31.9604 1.58636ZM35.0934 1.26176C35.4449 1.27949 35.7947 1.30311 36.143 1.33254L36.1156 1.65643C35.771 1.62731 35.4248 1.60391 35.0771 1.58636L35.0934 1.26176ZM33.5188 1.22217C33.6948 1.22217 33.8705 1.22366 34.0458 1.22661L34.0404 1.55153C33.8669 1.54862 33.693 1.54717 33.5188 1.54717C33.3445 1.54717 33.1706 1.54862 32.9971 1.55153L32.9917 1.22661C33.167 1.22366 33.3427 1.22217 33.5188 1.22217Z" fill="#9D6C3C"/>
<defs>
<linearGradient id="paint0_linear_898_431" x1="33.5" y1="0.331219" x2="33.5" y2="65.28" gradientUnits="userSpaceOnUse">
<stop stop-color="#733E0A" stop-opacity="0"/>
<stop offset="0.25" stop-color="#5E3410" stop-opacity="0.43"/>
<stop offset="0.49" stop-color="#4F2D14" stop-opacity="0.75"/>
<stop offset="0.74" stop-color="#462917" stop-opacity="0.94"/>
<stop offset="0.96" stop-color="#432818"/>
<stop offset="1" stop-color="#432818"/>
</linearGradient>
<linearGradient id="paint1_linear_898_431" x1="33.5228" y1="3.68587" x2="33.5228" y2="61.6894" gradientUnits="userSpaceOnUse">
<stop stop-color="#FED571"/>
<stop offset="1" stop-color="#F77F00"/>
</linearGradient>
<linearGradient id="paint2_linear_898_431" x1="33.1918" y1="27.9807" x2="33.1918" y2="61.7506" gradientUnits="userSpaceOnUse">
<stop stop-color="white" stop-opacity="0"/>
<stop offset="0.04" stop-color="#FBFBFB" stop-opacity="0.08"/>
<stop offset="0.17" stop-color="#EEEEEE" stop-opacity="0.32"/>
<stop offset="0.3" stop-color="#E4E4E4" stop-opacity="0.53"/>
<stop offset="0.44" stop-color="#DBDBDB" stop-opacity="0.7"/>
<stop offset="0.57" stop-color="#D4D4D4" stop-opacity="0.83"/>
<stop offset="0.71" stop-color="#CFCFCF" stop-opacity="0.93"/>
<stop offset="0.85" stop-color="#CCCCCC" stop-opacity="0.98"/>
<stop offset="1" stop-color="#CCCCCC"/>
</linearGradient>
<linearGradient id="paint3_linear_898_431" x1="42.7767" y1="45.1891" x2="42.7767" y2="61.7503" gradientUnits="userSpaceOnUse">
<stop stop-color="#403D39" stop-opacity="0"/>
<stop offset="0.18" stop-color="#363430" stop-opacity="0.17"/>
<stop offset="1" stop-color="#141414" stop-opacity="0.8"/>
</linearGradient>
<linearGradient id="paint4_linear_898_431" x1="24.9463" y1="44.7993" x2="24.9463" y2="61.6896" gradientUnits="userSpaceOnUse">
<stop stop-color="#403D39" stop-opacity="0"/>
<stop offset="0.18" stop-color="#363430" stop-opacity="0.17"/>
<stop offset="1" stop-color="#141414" stop-opacity="0.8"/>
</linearGradient>
<linearGradient id="paint5_linear_898_431" x1="33.394" y1="18.4355" x2="33.394" y2="42.5464" gradientUnits="userSpaceOnUse">
<stop stop-color="#403D39" stop-opacity="0"/>
<stop offset="0.85" stop-color="#1B1B1A" stop-opacity="0.82"/>
<stop offset="1" stop-color="#141414"/>
</linearGradient>
<linearGradient id="paint6_linear_898_431" x1="33.4628" y1="20.4562" x2="33.4628" y2="27.4567" gradientUnits="userSpaceOnUse">
<stop stop-color="#FF7703" stop-opacity="0"/>
<stop offset="1" stop-color="#A63C06"/>
</linearGradient>
<linearGradient id="paint7_linear_898_431" x1="33.6633" y1="40.8638" x2="33.6633" y2="48.2323" gradientUnits="userSpaceOnUse">
<stop stop-color="#FF7703" stop-opacity="0"/>
<stop offset="1" stop-color="#A63C06"/>
</linearGradient>
<linearGradient id="paint8_linear_898_431" x1="31.6119" y1="47.9495" x2="31.6119" y2="59.266" gradientUnits="userSpaceOnUse">
<stop stop-color="#FF7703" stop-opacity="0"/>
<stop offset="1" stop-color="#A63C06"/>
</linearGradient>
<linearGradient id="paint9_linear_898_431" x1="36.4252" y1="48.0662" x2="36.4252" y2="59.3836" gradientUnits="userSpaceOnUse">
<stop stop-color="#FF7703" stop-opacity="0"/>
<stop offset="1" stop-color="#A63C06"/>
</linearGradient>
<linearGradient id="paint10_linear_898_431" x1="25.8085" y1="20.3976" x2="25.8085" y2="27.0341" gradientUnits="userSpaceOnUse">
<stop stop-color="white" stop-opacity="0.7"/>
<stop offset="0.38" stop-color="#EDC2C7" stop-opacity="0.86"/>
<stop offset="0.72" stop-color="#E39CA4" stop-opacity="0.97"/>
<stop offset="1" stop-color="#E09099"/>
</linearGradient>
<linearGradient id="paint11_linear_898_431" x1="40.8711" y1="20.3844" x2="40.8711" y2="27.0209" gradientUnits="userSpaceOnUse">
<stop stop-color="white" stop-opacity="0.7"/>
<stop offset="0.38" stop-color="#EDC2C7" stop-opacity="0.86"/>
<stop offset="0.72" stop-color="#E39CA4" stop-opacity="0.97"/>
<stop offset="1" stop-color="#E09099"/>
</linearGradient>
</defs>
</svg>
