<svg width="1920" height="708" viewBox="0 0 1920 708" fill="none" xmlns="http://www.w3.org/2000/svg">
<g clip-path="url(#clip0_988_375)">
<rect width="1920" height="708" fill="#1C6D41"/>
<path d="M-50.7261 88.8862C-32.7289 71.5534 8.35026 19.0734 26.6402 -5C43.7572 38.5543 87.9123 65.3684 107.85 73.3311C95.7788 83.8864 50.7857 57.2205 61.7596 70.5534C72.7336 83.8864 115.532 104.441 104.009 102.219C94.7912 100.441 67.9782 97.7749 55.724 96.6638C67.2466 136.107 125.408 139.996 119.921 143.885C115.532 146.996 82.9759 142.588 67.2466 139.996C96.8762 172.773 128.701 169.995 128.701 177.773C128.701 183.995 93.584 185.18 76.0258 184.995C92.4867 204.994 149.551 209.438 147.905 213.883C146.588 217.438 109.679 215.364 91.3893 213.883C92.2672 228.549 116.629 234.067 128.701 234.993L134.188 243.326C120.141 249.993 72.7336 234.993 50.7857 226.66C51.8831 232.215 5.24385 262.215 -17.8014 266.659C-36.0407 270.176 -8.1664 238.46 8.54729 221.644C-3.39063 232.992 -50.641 239.916 -45.2363 234.993C-40.8444 230.993 -35.7246 219.253 -33.7136 213.883C-61.3679 215.216 -74.5001 211.475 -77.6094 209.438C-47.7603 191.661 -12.8631 164.254 0.854279 152.773C-34.2623 177.217 -53.6496 174.439 -58.9537 169.995C-34.4343 151.869 -6.09023 120.757 8.94468 102.836C-7.64315 116.858 -50.7261 121.203 -50.7261 117.774C-50.7261 114.663 -21.0965 89.8121 -6.28166 77.7754C-28.5953 88.701 -68.7234 106.219 -50.7261 88.8862Z" fill="url(#paint0_linear_988_375)"/>
<path d="M22.8047 298.325V247.215L46.3987 230.549C49.4714 247.437 44.021 280.918 40.9117 295.547L22.8047 298.325Z" fill="url(#paint1_linear_988_375)"/>
<path d="M-51.3661 89.5539C-51.3381 89.5575 -50.6766 88.4227 -49.3818 86.1494C-48.087 83.8761 -46.6549 81.9836 -45.0854 80.4719C-43.5158 78.9602 -41.7248 77.264 -39.7122 75.3834C-37.6996 73.5027 -35.5491 71.4524 -33.2608 69.2326C-30.9724 67.0127 -28.6492 64.6781 -26.2909 62.2286C-23.9327 59.7791 -21.7192 57.429 -19.6504 55.1782C-17.5816 52.9274 -15.3465 50.431 -12.9449 47.6891C-10.5434 44.9472 -7.8035 41.6786 -4.72533 37.8834C-1.64716 34.0881 -0.108068 32.1905 -0.108068 32.1905C-0.108068 32.1905 1.76939 29.6823 5.52431 24.6659C9.27922 19.6494 11.1567 17.1412 11.1567 17.1412L25.5389 -3.50619C25.5299 -3.53331 25.5139 -3.55516 25.4909 -3.57175C25.4679 -3.58833 25.4422 -3.59647 25.414 -3.59618C25.3857 -3.59589 25.3602 -3.58723 25.3375 -3.57018C25.3148 -3.55313 22.9084 -0.123793 18.1183 6.71782C13.3282 13.5594 9.05653 19.4873 5.30336 24.5013C1.55018 29.5154 -1.86438 33.9186 -4.9403 37.711C-8.01623 41.5034 -10.7539 44.7692 -13.1532 47.5085C-15.5526 50.2478 -17.786 52.7421 -19.8534 54.9914C-21.9208 57.2406 -24.1329 59.5892 -26.4896 62.0371C-28.8463 64.485 -31.1677 66.8177 -33.4538 69.0353C-35.7399 71.2529 -37.8887 73.3014 -39.9001 75.181C-41.9115 77.0605 -43.7028 78.7572 -45.2741 80.2711C-46.8454 81.7849 -48.2734 83.6857 -49.5582 85.9734C-50.8429 88.2611 -51.4827 89.419 -51.4775 89.4471M-51.3661 89.5539C-51.3941 89.5502 -51.4184 89.5385 -51.4389 89.5188C-51.4594 89.4992 -51.4723 89.4753 -51.4775 89.4471M-51.3661 89.5539C-51.3381 89.5575 -51.1592 89.5948 -50.8297 89.6657C-50.5001 89.7366 -49.5101 89.7987 -47.8599 89.8522C-46.2096 89.9057 -44.0028 89.5561 -41.2395 88.8033C-38.4762 88.0506 -35.5898 87.1329 -32.5804 86.0503C-29.571 84.9677 -26.8663 83.9675 -24.4661 83.0498C-22.066 82.1321 -20.1485 81.3916 -18.7138 80.8282C-17.279 80.2648 -15.997 79.7508 -14.8679 79.2863C-13.7387 78.8217 -12.6886 78.3963 -11.7177 78.0099C-10.7467 77.6235 -9.84605 77.2948 -9.01561 77.0237C-8.18516 76.7526 -7.42422 76.6029 -6.73281 76.5746C-6.0414 76.5463 -5.52203 76.8204 -5.1747 77.3968C-4.82737 77.9733 -5.01642 78.9507 -5.74187 80.3292C-6.46732 81.7076 -7.63606 83.3322 -9.24806 85.2029C-10.8601 87.0737 -12.6929 89.0002 -14.7467 90.9825C-16.8005 92.9649 -18.87 94.8361 -20.955 96.5963C-23.0401 98.3565 -25.0976 99.9787 -27.1273 101.463C-29.1571 102.947 -31.1404 104.316 -33.0771 105.571C-35.0139 106.825 -36.8886 108.007 -38.7012 109.117C-40.5137 110.227 -42.2498 111.314 -43.9095 112.378C-45.5691 113.441 -47.0844 114.831 -48.4552 116.547C-49.8261 118.263 -50.5118 119.135 -50.5123 119.164M-51.4775 89.4471C-51.4827 89.419 -51.3119 89.4355 -50.9651 89.4966C-50.6184 89.5577 -49.5986 89.6004 -47.9059 89.6247C-46.2132 89.649 -43.9998 89.2853 -41.2659 88.5336C-38.532 87.7819 -35.664 86.8658 -32.6617 85.7854C-29.6595 84.7049 -26.9591 83.7062 -24.5607 82.7891C-22.1622 81.872 -20.246 81.132 -18.812 80.5688C-17.378 80.0057 -16.0971 79.4922 -14.9692 79.0282C-13.8413 78.5641 -12.7913 78.1387 -11.8193 77.7519C-10.8472 77.3651 -9.94075 77.0356 -9.09988 76.7633C-8.25901 76.491 -7.47192 76.3533 -6.73861 76.3502C-6.00531 76.3471 -5.43444 76.6742 -5.02602 77.3316C-4.6176 77.989 -4.77561 79.0179 -5.50003 80.4182C-6.22446 81.8185 -7.39868 83.464 -9.0227 85.3546C-10.6467 87.2452 -12.4886 89.1849 -14.5485 91.1738C-16.6083 93.1627 -18.6831 95.0393 -20.7728 96.8036C-22.8625 98.5679 -24.9247 100.194 -26.9595 101.682C-28.9943 103.17 -30.9821 104.543 -32.9231 105.8C-34.8641 107.058 -36.7418 108.242 -38.5563 109.353C-40.3708 110.464 -42.1059 111.55 -43.7616 112.609C-45.4174 113.668 -46.9351 115.048 -48.3148 116.751C-49.6945 118.454 -50.3977 119.3 -50.4244 119.291M-50.4244 119.291C-50.4511 119.282 -50.4726 119.265 -50.4888 119.242C-50.505 119.218 -50.5128 119.192 -50.5123 119.164M-50.4244 119.291C-50.3977 119.3 -50.0841 119.304 -49.4837 119.303C-48.8832 119.302 -47.1483 119.198 -44.2788 118.992C-41.4093 118.785 -37.7634 118.21 -33.341 117.267C-28.9186 116.325 -24.3689 115.159 -19.692 113.77C-15.0151 112.382 -10.9249 111.005 -7.42152 109.639C-3.91814 108.273 -1.36892 107.176 0.226135 106.349C1.82119 105.522 3.17547 104.721 4.28896 103.947C5.40245 103.173 6.44268 102.388 7.40965 101.593C8.37662 100.798 9.30304 100.006 10.1889 99.2178C11.0748 98.4293 12.0642 97.6205 13.157 96.7913C14.2499 95.9621 14.7948 95.5332 14.7918 95.5048M-50.5123 119.164C-50.5118 119.135 -50.2061 119.116 -49.5951 119.107C-48.9842 119.098 -47.2303 118.979 -44.3335 118.75C-41.4367 118.52 -37.7841 117.935 -33.3758 116.993C-28.9675 116.052 -24.4285 114.888 -19.7589 113.501C-15.0893 112.115 -11.0067 110.74 -7.51121 109.377C-4.01571 108.014 -1.47469 106.921 0.111876 106.097C1.69844 105.274 3.04369 104.478 4.14763 103.71C5.25157 102.941 6.28413 102.162 7.2453 101.371C8.20648 100.58 9.12874 99.7919 10.0121 99.0056C10.8954 98.2193 11.8888 97.4186 12.9923 96.6034C14.0958 95.7882 14.6614 95.3836 14.6891 95.3895M14.6891 95.3895C14.7167 95.3954 14.74 95.409 14.7589 95.4302C14.7779 95.4515 14.7888 95.4763 14.7918 95.5048M14.6891 95.3895C14.6614 95.3836 14.5726 95.5122 14.4227 95.7753C14.2728 96.0385 13.7929 96.8249 12.983 98.1345C12.1732 99.4442 10.9812 101.215 9.40703 103.448C7.83288 105.68 6.0406 108.152 4.03017 110.864C2.01975 113.575 -0.00870995 116.249 -2.05522 118.887C-4.10172 121.524 -6.04931 123.907 -7.89798 126.036C-9.74666 128.164 -11.6199 130.153 -13.5176 132.001C-15.4153 133.85 -17.3722 135.624 -19.3883 137.324C-21.4044 139.024 -23.4916 140.703 -25.6501 142.36C-27.8085 144.017 -30.0596 145.706 -32.4034 147.429C-34.7472 149.151 -37.1526 150.901 -39.6196 152.677C-42.0866 154.453 -44.3571 156.079 -46.431 157.553C-48.505 159.028 -50.3333 160.341 -51.916 161.492C-53.4987 162.643 -54.8391 163.664 -55.9374 164.554C-57.0357 165.445 -57.8878 166.258 -58.4938 166.994C-59.0999 167.73 -59.3894 168.432 -59.3624 169.098C-59.3354 169.765 -58.953 170.331 -58.2151 170.798C-57.4773 171.264 -56.4994 171.637 -55.2816 171.915C-54.0637 172.193 -52.7608 172.392 -51.3728 172.511C-49.9849 172.63 -48.5454 172.661 -47.0544 172.603C-45.5633 172.544 -43.8199 172.318 -41.8241 171.922C-39.8282 171.527 -37.7225 170.928 -35.5069 170.124C-33.2912 169.32 -30.9473 168.332 -28.4751 167.159C-26.0029 165.987 -23.343 164.663 -20.4952 163.189C-17.6475 161.715 -14.8485 160.266 -12.0983 158.841C-9.34812 157.417 -7.35615 156.38 -6.12243 155.73C-4.88872 155.081 -3.90814 154.549 -3.18071 154.137C-2.45327 153.725 -1.85283 153.372 -1.37937 153.078C-0.905906 152.784 -0.284568 152.445 0.484651 152.059C1.25387 151.673 1.63877 151.465 1.63935 151.437M14.7918 95.5048C14.7948 95.5332 14.7251 95.6777 14.5828 95.9382C14.4404 96.1987 13.9751 96.9808 13.1867 98.2846C12.3984 99.5883 11.2151 101.36 9.63679 103.599C8.05849 105.838 6.26345 108.314 4.25165 111.027C2.23986 113.741 0.21004 116.417 -1.8378 119.056C-3.88564 121.695 -5.83553 124.081 -7.68747 126.213C-9.53941 128.346 -11.4168 130.339 -13.3198 132.193C-15.2227 134.047 -17.1846 135.827 -19.2055 137.531C-21.2264 139.236 -23.3177 140.918 -25.4794 142.577C-27.6411 144.237 -29.8946 145.928 -32.2399 147.652C-34.5853 149.376 -36.9918 151.126 -39.4595 152.903C-41.9273 154.679 -44.1983 156.305 -46.2727 157.78C-48.3471 159.255 -50.1751 160.568 -51.7569 161.718C-53.3386 162.869 -54.676 163.887 -55.7692 164.772C-56.8624 165.657 -57.707 166.452 -58.303 167.155C-58.899 167.858 -59.1841 168.504 -59.1582 169.092C-59.1322 169.68 -58.7605 170.19 -58.0429 170.62C-57.3253 171.051 -56.3711 171.399 -55.1803 171.664C-53.9896 171.929 -52.7066 172.12 -51.3313 172.237C-49.9559 172.355 -48.5278 172.384 -47.0469 172.326C-45.566 172.267 -43.835 172.042 -41.8539 171.648C-39.8727 171.254 -37.781 170.657 -35.5787 169.857C-33.3764 169.057 -31.0432 168.072 -28.579 166.903C-26.1149 165.733 -23.4605 164.412 -20.6157 162.94C-17.7709 161.467 -14.9735 160.018 -12.2233 158.594C-9.47311 157.17 -7.48153 156.133 -6.24854 155.484C-5.01555 154.834 -4.03659 154.304 -3.31164 153.893C-2.58668 153.482 -1.98903 153.131 -1.51868 152.839C-1.04834 152.547 -0.425679 152.217 0.349286 151.848C1.12425 151.48 1.52508 151.3 1.55177 151.309M1.55177 151.309C1.57846 151.319 1.59987 151.335 1.61601 151.359C1.63215 151.382 1.63993 151.408 1.63935 151.437M1.55177 151.309C1.52508 151.3 1.38814 151.429 1.14095 151.695C0.893761 151.962 0.142079 152.742 -1.11409 154.035C-2.37026 155.328 -4.08673 157.005 -6.26349 159.066C-8.44025 161.126 -10.7608 163.284 -13.2251 165.539C-15.6894 167.794 -18.0099 169.887 -20.1868 171.816C-22.3637 173.745 -24.4021 175.483 -26.3021 177.029C-28.202 178.575 -30.065 180.001 -31.8912 181.305C-33.7173 182.61 -35.5335 183.833 -37.3398 184.976C-39.1461 186.118 -40.9504 187.212 -42.7528 188.257C-44.5552 189.302 -46.3684 190.324 -48.1924 191.324C-50.0165 192.324 -51.8756 193.306 -53.7699 194.271C-55.6642 195.235 -57.5641 196.169 -59.4695 197.073C-61.3749 197.977 -63.2378 198.861 -65.0581 199.727C-66.8784 200.592 -68.6032 201.456 -70.2325 202.318C-71.8618 203.18 -73.5631 204.524 -75.3363 206.348C-77.1095 208.173 -77.9973 209.099 -77.9995 209.128M1.63935 151.437C1.63877 151.465 1.51803 151.613 1.27711 151.88C1.0362 152.147 0.2965 152.928 -0.941972 154.224C-2.18044 155.519 -3.88992 157.199 -6.0704 159.263C-8.25088 161.327 -10.5739 163.487 -13.0394 165.744C-15.5048 168 -17.8266 170.093 -20.0047 172.023C-22.1827 173.953 -24.2232 175.693 -26.1261 177.242C-28.029 178.791 -29.8957 180.219 -31.7264 181.527C-33.5571 182.835 -35.3777 184.062 -37.1882 185.207C-38.9987 186.352 -40.8066 187.449 -42.612 188.495C-44.4174 189.542 -46.233 190.566 -48.059 191.567C-49.8849 192.567 -51.7462 193.551 -53.643 194.517C-55.5398 195.483 -57.442 196.418 -59.3497 197.323C-61.2574 198.228 -63.1214 199.113 -64.9415 199.978C-66.7617 200.844 -68.4842 201.706 -70.1091 202.565C-71.7339 203.425 -73.4354 204.758 -75.2134 206.566C-76.9915 208.373 -77.8935 209.271 -77.9196 209.26M-77.9196 209.26C-77.9457 209.249 -77.9661 209.232 -77.9809 209.207C-77.9956 209.183 -78.0018 209.156 -77.9995 209.128M-77.9196 209.26C-77.8935 209.271 -77.6947 209.363 -77.323 209.535C-76.9514 209.707 -75.7817 210.085 -73.8141 210.669C-71.8464 211.253 -69.0129 211.656 -65.3137 211.878C-61.6144 212.099 -57.4417 212.25 -52.7958 212.329C-48.1498 212.408 -43.8402 212.527 -39.867 212.685C-35.8938 212.843 -33.4716 213.125 -32.6006 213.531C-31.7295 213.937 -31.4868 214.61 -31.8724 215.55C-32.258 216.49 -32.9806 217.643 -34.0403 219.011C-35.0999 220.378 -36.3415 221.902 -37.7651 223.583C-39.1886 225.263 -40.5608 226.896 -41.8815 228.483C-43.2023 230.069 -44.1125 231.255 -44.6122 232.042C-45.1118 232.829 -45.3858 233.474 -45.434 233.977C-45.4821 234.481 -45.3773 234.904 -45.1195 235.249C-44.8617 235.593 -44.5041 235.876 -44.0467 236.098C-43.5893 236.32 -42.8933 236.494 -41.9587 236.62C-41.0242 236.746 -39.4748 236.789 -37.3108 236.75C-35.1467 236.711 -32.8631 236.469 -30.46 236.023C-28.057 235.577 -25.6169 234.954 -23.1398 234.154C-20.6626 233.354 -18.1284 232.44 -15.5371 231.411C-12.9458 230.383 -10.442 229.373 -8.02586 228.383C-5.60969 227.393 -3.70733 226.615 -2.31879 226.05C-0.930247 225.484 0.291566 224.978 1.34666 224.533C2.40176 224.087 3.36816 223.665 4.24586 223.268C5.12356 222.87 5.92343 222.489 6.64548 222.126C7.36752 221.762 8.18963 221.406 9.1118 221.056C10.034 220.706 10.4967 220.517 10.5001 220.489M-77.9995 209.128C-77.9973 209.099 -77.801 209.168 -77.4107 209.335C-77.0204 209.502 -75.8171 209.869 -73.8007 210.435C-71.7843 211.002 -68.9381 211.393 -65.2619 211.609C-61.5858 211.825 -57.4267 211.972 -52.7848 212.051C-48.1429 212.13 -43.824 212.263 -39.8283 212.45C-35.8326 212.636 -33.3673 212.975 -32.4322 213.467C-31.4972 213.959 -31.2245 214.68 -31.6142 215.631C-32.004 216.581 -32.7345 217.752 -33.806 219.144C-34.8774 220.536 -36.1263 222.074 -37.5526 223.758C-38.979 225.442 -40.3518 227.076 -41.6713 228.66C-42.9907 230.245 -43.8967 231.421 -44.3892 232.189C-44.8817 232.958 -45.1494 233.569 -45.1921 234.022C-45.2348 234.476 -45.1356 234.85 -44.8943 235.146C-44.6531 235.442 -44.3179 235.688 -43.8887 235.885C-43.4596 236.082 -42.7882 236.24 -41.8746 236.359C-40.961 236.478 -39.4317 236.517 -37.2866 236.476C-35.1415 236.435 -32.8749 236.192 -30.4869 235.748C-28.0988 235.304 -25.6718 234.683 -23.206 233.885C-20.7402 233.088 -18.2144 232.176 -15.6287 231.149C-13.043 230.123 -10.5426 229.115 -8.1273 228.125C-5.71204 227.135 -3.81009 226.358 -2.42146 225.792C-1.03282 225.226 0.18849 224.721 1.24249 224.276C2.29649 223.831 3.26126 223.41 4.13679 223.013C5.01232 222.616 5.8096 222.237 6.52864 221.875C7.24768 221.513 8.07051 221.166 8.99715 220.834C9.92379 220.501 10.3999 220.341 10.4256 220.353M10.4256 220.353C10.4512 220.365 10.4709 220.384 10.4846 220.409C10.4984 220.434 10.5035 220.461 10.5001 220.489M10.4256 220.353C10.3999 220.341 10.2944 220.474 10.1089 220.751C9.9234 221.029 9.34037 221.843 8.3598 223.195C7.37924 224.546 5.96989 226.33 4.13178 228.544C2.29367 230.759 0.236079 233.187 -2.04101 235.828C-4.31809 238.469 -6.4975 240.992 -8.57924 243.397C-10.661 245.801 -12.3423 247.757 -13.6232 249.265C-14.9041 250.772 -16.0204 252.123 -16.9721 253.316C-17.9238 254.509 -18.7507 255.617 -19.4526 256.642C-20.1545 257.666 -20.7217 258.626 -21.1543 259.523C-21.5869 260.419 -21.7753 261.329 -21.7195 262.252C-21.6638 263.175 -21.0529 264.099 -19.8869 265.023C-18.7208 265.947 -16.9474 266.235 -14.5665 265.887C-12.1856 265.539 -9.40211 264.659 -6.2161 263.246C-3.03008 261.833 0.290343 260.171 3.74519 258.261C7.20004 256.351 10.3953 254.546 13.331 252.847C16.2666 251.147 18.5516 249.8 20.1859 248.806C21.8202 247.812 23.3282 246.869 24.7099 245.976C26.0917 245.084 27.4803 244.165 28.8757 243.22C30.2711 242.274 31.7089 241.281 33.1892 240.239C34.6694 239.197 36.1123 238.161 37.5177 237.131C38.9231 236.101 40.0818 235.215 40.9936 234.474C41.9055 233.733 42.7718 232.994 43.5925 232.258C44.4132 231.521 45.6504 230.347 47.3042 228.735C48.958 227.124 49.792 226.298 49.8061 226.258C49.8202 226.219 49.8156 226.182 49.7923 226.147C49.769 226.112 49.7366 226.094 49.6951 226.093C49.6536 226.091 49.6201 226.107 49.5946 226.14C49.5692 226.174 49.5622 226.21 49.5737 226.251C49.5853 226.291 49.6106 226.318 49.6496 226.333C49.6887 226.347 49.7254 226.342 49.7597 226.319C49.7941 226.295 49.8119 226.262 49.8133 226.22C49.8146 226.178 49.7989 226.144 49.7661 226.119C49.7334 226.093 49.697 226.086 49.6571 226.097C49.6173 226.109 48.7714 226.92 47.1195 228.53C45.4676 230.14 44.233 231.312 43.4156 232.046C42.5982 232.779 41.7353 233.515 40.8268 234.254C39.9184 234.992 38.7623 235.876 37.3586 236.905C35.9549 237.934 34.5136 238.969 33.0347 240.01C31.5558 241.05 30.1194 242.043 28.7257 242.987C27.3319 243.931 25.9452 244.849 24.5654 245.74C23.1857 246.631 21.6795 247.573 20.0468 248.567C18.4142 249.56 16.1309 250.906 13.1969 252.605C10.2629 254.303 7.07224 256.106 3.62481 258.012C0.177392 259.919 -3.12705 261.576 -6.28849 262.983C-9.44994 264.39 -12.2008 265.275 -14.5412 265.637C-16.8816 265.999 -18.6126 265.747 -19.7344 264.879C-20.8561 264.012 -21.4408 263.143 -21.4883 262.272C-21.5359 261.401 -21.3463 260.527 -20.9195 259.65C-20.4927 258.773 -19.9304 257.825 -19.2326 256.807C-18.5348 255.788 -17.711 254.684 -16.7611 253.493C-15.8113 252.303 -14.6962 250.954 -13.4159 249.447C-12.1356 247.94 -10.4545 245.984 -8.3727 243.579C-6.29087 241.175 -4.11082 238.651 -1.83253 236.009C0.445751 233.366 2.50646 230.934 4.3496 228.712C6.19274 226.491 7.59011 224.709 8.54171 223.366C9.49331 222.024 10.0568 221.216 10.2321 220.942C10.4074 220.668 10.4967 220.517 10.5001 220.489" stroke="#053F28" stroke-width="2" stroke-linecap="round"/>
<path d="M74.0448 184.841C74.0475 184.873 74.5448 185.362 75.5369 186.307C76.529 187.253 77.5011 188.071 78.4534 188.762C79.4057 189.454 80.5294 190.248 81.8247 191.144C83.12 192.041 84.6085 192.987 86.2902 193.981C87.972 194.976 89.9011 195.983 92.0778 197.002C94.2544 198.022 96.8641 199.09 99.907 200.206C102.95 201.322 106.159 202.371 109.535 203.353C112.911 204.335 116.35 205.232 119.852 206.043C123.354 206.854 126.883 207.607 130.44 208.301C133.997 208.996 137.363 209.629 140.536 210.202C143.71 210.775 145.768 211.178 146.711 211.41C147.653 211.642 148.136 211.817 148.158 211.936C148.181 212.055 148.075 212.197 147.841 212.364C147.607 212.531 147.208 212.705 146.644 212.884C146.081 213.064 145.141 213.228 143.825 213.375C142.509 213.522 139.882 213.651 135.944 213.759C132.007 213.868 127.561 213.74 122.607 213.376C117.653 213.011 112.928 212.57 108.43 212.052C103.932 211.534 100.118 211.228 96.988 211.134C93.8577 211.041 91.7179 211.331 90.5687 212.005C89.4195 212.679 88.9207 213.445 89.0721 214.304C89.2236 215.163 89.5863 216.076 90.1601 217.045C90.734 218.014 91.4206 219.038 92.22 220.117C93.0195 221.195 93.9482 222.285 95.0063 223.387C96.0644 224.488 97.318 225.562 98.7671 226.609C100.216 227.656 102.125 228.677 104.494 229.673C106.862 230.669 109.481 231.507 112.351 232.187C115.22 232.867 118.012 233.495 120.726 234.073C123.441 234.65 125.79 235.344 127.776 236.155C129.761 236.965 131.187 237.931 132.055 239.052C132.923 240.172 133.374 240.935 133.407 241.34C133.44 241.745 133.306 242.035 133.006 242.211C132.705 242.386 132.288 242.553 131.755 242.711C131.221 242.869 130.518 242.988 129.644 243.067C128.769 243.146 127.519 243.147 125.893 243.068C124.268 242.99 121.46 242.735 117.47 242.305C113.48 241.874 109.2 241.265 104.63 240.476C100.059 239.688 95.417 238.724 90.7035 237.585C85.9899 236.446 83.6332 235.877 83.6332 235.877C83.6332 235.877 81.0802 235.152 75.9742 233.703C70.8682 232.254 68.3152 231.529 68.3152 231.529L49.6039 225.968C49.5816 225.988 49.5668 226.014 49.5594 226.045C49.5519 226.076 49.5534 226.106 49.5636 226.136C49.5738 226.166 49.591 226.19 49.615 226.207C49.6389 226.225 52.7497 227.166 58.9471 229.031C65.1445 230.897 70.7968 232.554 75.9041 234.004C81.0114 235.453 85.9234 236.748 90.6402 237.888C95.357 239.027 100.003 239.992 104.579 240.782C109.155 241.571 113.441 242.182 117.436 242.613C121.432 243.045 124.245 243.3 125.877 243.378C127.508 243.457 128.767 243.457 129.653 243.377C130.539 243.297 131.257 243.176 131.807 243.014C132.357 242.852 132.795 242.667 133.12 242.459C133.445 242.252 133.604 241.901 133.596 241.408C133.589 240.915 133.146 240.085 132.266 238.919C131.386 237.753 129.937 236.75 127.921 235.91C125.904 235.07 123.531 234.358 120.801 233.775C118.072 233.193 115.273 232.561 112.406 231.882C109.539 231.203 106.928 230.368 104.574 229.378C102.22 228.387 100.327 227.373 98.8945 226.336C97.462 225.298 96.223 224.234 95.1774 223.144C94.1318 222.054 93.2134 220.974 92.4221 219.905C91.6309 218.836 90.9505 217.83 90.3811 216.888C89.8117 215.946 89.4474 215.082 89.2883 214.299C89.1291 213.515 89.6075 212.81 90.7233 212.186C91.8392 211.561 93.944 211.305 97.0377 211.417C100.131 211.53 103.923 211.845 108.413 212.362C112.903 212.88 117.627 213.321 122.584 213.685C127.542 214.05 131.994 214.178 135.94 214.07C139.887 213.961 142.522 213.833 143.847 213.684C145.171 213.536 146.125 213.367 146.709 213.178C147.293 212.989 147.714 212.783 147.973 212.56C148.231 212.336 148.346 212.109 148.315 211.879C148.285 211.648 147.792 211.407 146.835 211.154C145.878 210.902 143.803 210.486 140.61 209.906C137.417 209.326 134.042 208.689 130.486 207.995C126.93 207.301 123.403 206.548 119.904 205.738C116.405 204.927 112.97 204.031 109.598 203.05C106.227 202.07 103.023 201.022 99.9858 199.908C96.9488 198.794 94.3455 197.729 92.1757 196.712C90.0059 195.695 88.0839 194.691 86.4096 193.701C84.7353 192.71 83.2532 191.769 81.9632 190.875C80.6733 189.982 79.553 189.19 78.6023 188.5C77.6516 187.81 76.6741 187 75.6698 186.069C74.6656 185.138 74.1503 184.679 74.124 184.692M74.0448 184.841C74.0421 184.809 74.0481 184.78 74.0627 184.752C74.0773 184.725 74.0977 184.705 74.124 184.692M74.0448 184.841C74.0475 184.873 74.3099 184.859 74.8322 184.798C75.3545 184.738 76.8948 184.602 79.4531 184.392C82.0114 184.182 85.3595 184.007 89.4974 183.869C93.6354 183.73 97.9409 183.502 102.414 183.184C106.887 182.866 110.773 182.433 114.072 181.884C117.371 181.334 119.642 180.901 120.885 180.583C122.128 180.266 123.08 179.985 123.741 179.74C124.402 179.496 124.948 179.261 125.378 179.037C125.807 178.813 126.159 178.584 126.431 178.348C126.703 178.112 126.851 177.753 126.875 177.27C126.899 176.787 126.608 176.018 126.003 174.962C125.398 173.905 124.366 172.995 122.909 172.229C121.451 171.464 119.664 170.843 117.546 170.368C115.429 169.892 113.124 169.448 110.63 169.038C108.137 168.628 105.653 168.109 103.177 167.482C100.702 166.855 98.4511 166.037 96.425 165.027C94.3989 164.018 92.4756 162.938 90.6552 161.788C88.8347 160.639 87.0913 159.442 85.425 158.198C83.7587 156.954 82.1651 155.661 80.6442 154.319C79.1234 152.977 77.7424 151.664 76.5013 150.382C75.2601 149.099 74.2955 148.046 73.6075 147.222C72.9194 146.398 72.2923 145.613 71.7261 144.866C71.1599 144.119 70.2922 142.96 69.123 141.391C67.9538 139.821 67.35 139.027 67.3114 139.008C67.2728 138.989 67.2354 138.992 67.1992 139.016C67.163 139.04 67.1429 139.075 67.1389 139.122C67.1349 139.169 67.1487 139.208 67.1802 139.239C67.2117 139.27 67.248 139.281 67.2891 139.27C67.3301 139.26 67.359 139.233 67.3757 139.19C67.3924 139.147 67.3901 139.105 67.3687 139.065C67.3473 139.024 67.3157 139.002 67.2739 138.997C67.232 138.993 67.1972 139.008 67.1693 139.043C67.1415 139.079 67.1322 139.119 67.1413 139.165C67.1505 139.211 67.74 140.019 68.91 141.59C70.08 143.161 70.9495 144.322 71.5185 145.072C72.0876 145.823 72.7183 146.612 73.4109 147.441C74.1035 148.27 75.0733 149.329 76.3203 150.617C77.5674 151.905 78.9543 153.223 80.4811 154.57C82.0079 155.917 83.6074 157.215 85.2795 158.463C86.9517 159.71 88.7019 160.911 90.5302 162.065C92.3585 163.219 94.2939 164.304 96.3365 165.32C98.379 166.335 100.642 167.157 103.125 167.787C105.608 168.416 108.094 168.935 110.582 169.344C113.071 169.754 115.363 170.192 117.46 170.659C119.556 171.126 121.318 171.725 122.745 172.457C124.172 173.189 125.183 174.053 125.778 175.05C126.373 176.047 126.669 176.753 126.666 177.168C126.662 177.584 126.534 177.897 126.281 178.107C126.028 178.318 125.691 178.533 125.272 178.751C124.853 178.97 124.317 179.2 123.664 179.442C123.012 179.684 122.067 179.963 120.831 180.279C119.595 180.595 117.331 181.027 114.041 181.575C110.75 182.123 106.87 182.556 102.401 182.874C97.9309 183.191 93.6241 183.419 89.4801 183.559C85.3361 183.698 82.0023 183.884 79.4787 184.118C76.9552 184.351 75.4384 184.502 74.9284 184.57C74.4184 184.639 74.1503 184.679 74.124 184.692" stroke="#053F28" stroke-width="2" stroke-linecap="round"/>
<path d="M120.718 143.749C120.695 143.734 120.489 143.832 120.101 144.044C119.714 144.256 119.256 144.422 118.727 144.542C118.198 144.662 117.49 144.761 116.602 144.839C115.715 144.917 114.459 144.949 112.834 144.934C111.209 144.92 108.47 144.813 104.618 144.614C100.766 144.415 96.864 144.114 92.9117 143.712C88.9594 143.309 85.3194 142.813 81.9917 142.222C78.664 141.632 77.0002 141.336 77.0002 141.336C77.0002 141.336 75.5857 140.967 72.7567 140.229C69.9277 139.49 68.5132 139.121 68.5132 139.121L60.2098 136.368C60.1868 136.385 60.1708 136.407 60.1619 136.434C60.1529 136.461 60.1527 136.488 60.1612 136.515C60.1697 136.543 60.1853 136.565 60.208 136.582C60.2307 136.599 61.6061 137.07 64.3341 137.996C67.0622 138.921 69.8437 139.754 72.6787 140.495C75.5137 141.235 78.5986 141.901 81.9333 142.493C85.2679 143.086 88.9148 143.583 92.8737 143.987C96.8327 144.39 100.741 144.691 104.598 144.891C108.455 145.091 111.198 145.198 112.828 145.212C114.457 145.226 115.72 145.194 116.616 145.116C117.512 145.037 118.231 144.937 118.773 144.814C119.315 144.691 119.783 144.514 120.175 144.282C120.567 144.051 120.767 143.922 120.774 143.894M120.718 143.749C120.742 143.765 120.759 143.786 120.769 143.812C120.78 143.839 120.781 143.866 120.774 143.894M120.718 143.749C120.695 143.734 120.56 143.629 120.314 143.435C120.068 143.241 119.381 142.775 118.255 142.039C117.129 141.303 115.752 140.649 114.126 140.079C112.501 139.509 110.749 139.007 108.873 138.574C106.997 138.14 105.075 137.667 103.108 137.156C101.142 136.644 99.1715 135.989 97.1978 135.188C95.2241 134.388 93.2265 133.445 91.2049 132.358C89.1832 131.271 87.1903 130.147 85.2261 128.986C83.2618 127.825 81.3398 126.64 79.4599 125.43C77.5801 124.22 75.7445 122.974 73.9531 121.692C72.1617 120.41 70.4392 119.086 68.7855 117.721C67.1318 116.355 65.6283 114.968 64.2749 113.559C62.9216 112.149 61.7348 110.727 60.7147 109.291C59.6945 107.855 58.8331 106.453 58.1304 105.086C57.4277 103.719 56.8703 102.446 56.4581 101.268C56.0459 100.089 55.8374 99.0086 55.8325 98.0276C55.8276 97.0466 56.3073 96.1613 57.2717 95.3717C58.2361 94.5821 59.8803 94.2537 62.2041 94.3866C64.5279 94.5195 67.4306 94.9787 70.9121 95.7642C74.3936 96.5498 78.2762 97.3969 82.5599 98.3054C86.8436 99.214 90.926 99.9346 94.807 100.467C98.688 101 101.267 101.308 102.545 101.391C103.823 101.474 104.621 101.441 104.938 101.292C105.256 101.143 105.26 100.923 104.951 100.633C104.642 100.343 104.153 100.058 103.485 99.7783C102.817 99.4987 101.715 99.0185 100.179 98.3376C98.6421 97.6567 97.0073 96.8519 95.2743 95.9233C93.5412 94.9946 91.7878 93.9887 90.014 92.9056C88.2402 91.8225 86.4609 90.7018 84.676 89.5435C82.8912 88.3851 81.1281 87.2309 79.3868 86.0807C77.6455 84.9305 76.0095 83.8167 74.4789 82.7391C72.9482 81.6616 71.53 80.6017 70.2242 79.5593C68.9184 78.517 67.7282 77.5108 66.6538 76.5408C65.5793 75.5709 64.6238 74.6659 63.7871 73.8259C62.9504 72.9859 62.2149 71.9351 61.5805 70.6738C60.9462 69.4124 60.615 68.7834 60.587 68.787M120.774 143.894C120.767 143.922 120.63 143.839 120.363 143.646C120.097 143.453 119.372 142.991 118.19 142.261C117.008 141.53 115.613 140.885 114.007 140.325C112.401 139.766 110.664 139.27 108.797 138.84C106.931 138.409 105.013 137.938 103.044 137.426C101.075 136.913 99.0978 136.255 97.113 135.451C95.1283 134.648 93.1206 133.7 91.0899 132.609C89.0592 131.519 87.0601 130.392 85.0926 129.229C83.1251 128.066 81.1999 126.879 79.3171 125.667C77.4344 124.455 75.5954 123.207 73.8003 121.922C72.0052 120.638 70.2782 119.311 68.6194 117.941C66.9607 116.572 65.4507 115.179 64.0895 113.762C62.7284 112.346 61.5334 110.914 60.5046 109.467C59.4759 108.021 58.6067 106.608 57.8971 105.23C57.1875 103.852 56.6245 102.565 56.208 101.369C55.7915 100.173 55.5856 99.0639 55.5905 98.0415C55.5953 97.0191 56.1009 96.0841 57.1072 95.2363C58.1135 94.3886 59.797 94.0223 62.1576 94.1374C64.5183 94.2525 67.4478 94.7035 70.9461 95.4907C74.4445 96.2778 78.3351 97.1256 82.6179 98.0341C86.9007 98.9425 90.9789 99.6624 94.8526 100.194C98.7262 100.725 101.289 101.043 102.54 101.147C103.791 101.251 104.545 101.272 104.802 101.209C105.059 101.146 105.049 101.002 104.771 100.777C104.492 100.552 104.024 100.302 103.366 100.027C102.708 99.7529 101.609 99.2748 100.072 98.5932C98.5336 97.9117 96.8949 97.105 95.1556 96.1733C93.4163 95.2416 91.6575 94.233 89.8791 93.1473C88.1008 92.0617 86.3182 90.939 84.5312 89.7793C82.7442 88.6196 80.9797 87.4645 79.2378 86.3139C77.4958 85.1633 75.8584 84.0484 74.3254 82.9693C72.7925 81.8902 71.3709 80.8278 70.0607 79.7821C68.7505 78.7364 67.556 77.7268 66.4773 76.7532C65.3986 75.7796 64.4386 74.8701 63.5973 74.0247C62.7561 73.1792 62.024 72.1196 61.4012 70.8459C60.7784 69.5721 60.4697 68.9212 60.475 68.8931M60.475 68.8931C60.4804 68.865 60.4933 68.8411 60.514 68.8216C60.5346 68.802 60.559 68.7905 60.587 68.787M60.475 68.8931C60.4697 68.9212 60.6346 68.9223 60.9697 68.8966C61.3048 68.8708 62.2756 68.8646 63.882 68.878C65.4884 68.8913 67.5639 69.1142 70.1086 69.5466C72.6533 69.979 75.3983 70.5187 78.3437 71.1659C81.2891 71.813 84.0306 72.4181 86.5681 72.9813C89.1057 73.5444 91.0942 73.9403 92.5338 74.169C93.9735 74.3977 95.3022 74.5459 96.5202 74.6136C97.7381 74.6813 98.9082 74.6995 100.03 74.6682C101.153 74.6368 102.198 74.5732 103.166 74.4772C104.134 74.3813 104.977 74.2636 105.693 74.1243C106.41 73.985 106.968 73.8205 107.369 73.6308C107.77 73.441 108.02 73.2215 108.118 72.9721C108.217 72.7227 108.186 72.4673 108.027 72.2057C107.867 71.9442 107.622 71.6835 107.29 71.4235C106.957 71.1636 106.458 70.8486 105.791 70.4786C105.124 70.1086 104.036 69.5444 102.527 68.786C101.018 68.0276 99.3983 67.2332 97.669 66.4029C95.9397 65.5726 94.1797 64.7488 92.3891 63.9315C90.5984 63.1142 88.7995 62.3175 86.9923 61.5412C85.1852 60.7649 83.3383 59.9641 81.4516 59.1388C79.565 58.3134 77.5506 57.2888 75.4083 56.065C73.266 54.8411 71.0906 53.3634 68.8819 51.6318C66.6733 49.9002 64.4864 47.9848 62.321 45.8856C60.1557 43.7864 58.0588 41.6057 56.0303 39.3434C54.0017 37.081 52.1179 34.8594 50.3788 32.6785C48.6398 30.4976 47.1307 28.4474 45.8517 26.5277C44.5728 24.608 43.3791 22.7208 42.2708 20.8661C41.1624 19.0114 40.0901 17.1646 39.0539 15.3257C38.0176 13.4869 36.9916 11.6494 35.9758 9.81342C34.96 7.97742 34.0074 6.26948 33.118 4.68958C32.2287 3.10969 31.5539 1.9435 31.0937 1.191C30.6335 0.438499 30.2102 -0.227449 29.8239 -0.806846C29.4375 -1.38624 28.8442 -2.22263 28.044 -3.31601C27.2437 -4.40938 26.8252 -4.96578 26.7883 -4.98519C26.7515 -5.0046 26.7145 -5.00493 26.6774 -4.98618C26.6402 -4.96742 26.6182 -4.93732 26.6113 -4.89586C26.6045 -4.8544 26.6156 -4.81868 26.6447 -4.7887C26.6738 -4.75872 26.7089 -4.74683 26.7499 -4.75304C26.791 -4.75925 26.8211 -4.781 26.8403 -4.81828C26.8595 -4.85556 26.8598 -4.89302 26.8413 -4.93064C26.8227 -4.96826 26.793 -4.99054 26.7521 -4.99748C26.7111 -5.00442 26.6758 -4.99316 26.6462 -4.9637C26.6166 -4.93424 26.6049 -4.89872 26.611 -4.85715C26.6171 -4.81557 27.0197 -4.24908 27.8186 -3.15767C28.6175 -2.06625 29.2092 -1.2323 29.5937 -0.655795C29.9783 -0.0792947 30.3998 0.583836 30.8584 1.3336C31.317 2.08336 31.9907 3.24773 32.8795 4.82671C33.7683 6.40568 34.7208 8.11349 35.7369 9.95012C36.7531 11.7868 37.7799 13.6255 38.8174 15.4664C39.8548 17.3073 40.9289 19.157 42.0397 21.0155C43.1504 22.874 44.3475 24.7662 45.631 26.692C46.9145 28.6178 48.4276 30.6733 50.1703 32.8586C51.9129 35.0438 53.8008 37.2699 55.8339 39.5369C57.8669 41.8039 59.9698 43.9902 62.1425 46.0957C64.3152 48.2012 66.5115 50.1235 68.7313 51.8624C70.9511 53.6014 73.1365 55.085 75.2873 56.3134C77.4382 57.5417 79.4571 58.5686 81.344 59.3941C83.231 60.2197 85.0771 61.0202 86.8824 61.7956C88.6877 62.5711 90.4849 63.3671 92.2739 64.1836C94.0629 65.0001 95.8214 65.8232 97.5492 66.6527C99.277 67.4823 100.893 68.275 102.397 69.0307C103.902 69.7865 104.982 70.3459 105.639 70.7089C106.296 71.072 106.781 71.3717 107.094 71.6081C107.407 71.8445 107.641 72.0719 107.796 72.2902C107.951 72.5084 107.995 72.7078 107.927 72.8883C107.86 73.0687 107.639 73.2406 107.266 73.4038C106.893 73.5671 106.354 73.7168 105.648 73.8529C104.943 73.9891 104.11 74.1049 103.148 74.2004C102.187 74.2959 101.148 74.3594 100.034 74.3908C98.919 74.4223 97.7571 74.4047 96.5481 74.3379C95.3391 74.2711 94.0174 74.1238 92.5832 73.8961C91.149 73.6683 89.1632 73.2729 86.6259 72.7098C84.0887 72.1467 81.345 71.5411 78.3951 70.8932C75.4452 70.2452 72.6886 69.7047 70.1255 69.2717C67.5625 68.8387 65.4986 68.6308 63.934 68.648C62.3694 68.6652 61.4274 68.6918 61.1081 68.7277C60.7887 68.7637 60.615 68.7834 60.587 68.787" stroke="#053F28" stroke-width="2" stroke-linecap="round"/>
<path d="M23.6952 253.372C22.8072 253.324 21.9192 253.276 21.0311 253.228C20.9708 254.347 20.9106 255.462 20.8503 256.582C20.7899 257.702 20.7297 258.817 20.6694 259.936L20.6688 259.948C20.6015 261.455 20.5343 262.957 20.4669 264.465C20.4335 265.212 20.4026 265.958 20.3737 266.705C20.2697 269.402 20.1914 272.097 20.1277 274.793C20.037 278.645 19.9957 282.498 20.0051 286.352C20.0245 289.015 20.0077 291.623 20.2614 294.402C20.4137 295.524 20.4608 296.583 21.172 297.972C21.535 298.599 22.0972 299.321 23.0302 299.706C23.6827 299.974 24.3975 300.088 25.0682 300.069C25.6944 300.053 26.3153 299.979 26.9198 299.857C27.4879 299.742 28.0531 299.611 28.6143 299.464C29.1518 299.323 29.6892 299.182 30.2265 299.04C30.7603 298.899 31.296 298.764 31.8333 298.635C32.3768 298.505 32.9235 298.384 33.4728 298.274C34.0403 298.159 34.611 298.056 35.1842 297.962C35.8088 297.86 36.4312 297.748 37.0512 297.628C37.7841 297.487 38.495 297.26 39.1665 296.968C40.0326 296.591 40.745 296.037 41.3426 295.443C42.209 294.566 42.7521 293.608 43.2218 292.657C43.9232 291.193 44.3447 289.731 44.7099 288.27C45.2284 286.144 45.5534 284.025 45.8184 281.907C46.1641 279.102 46.3931 276.299 46.567 273.497C46.7901 269.735 46.8957 265.997 46.9964 262.26C47.026 261.12 47.0551 259.981 47.0839 258.839C47.1258 257.172 47.171 255.507 47.218 253.842C47.2415 253.014 47.2656 252.177 47.2904 251.348C47.3029 250.933 47.3157 250.514 47.329 250.103C47.3357 249.893 47.3425 249.689 47.3499 249.484C47.3537 249.379 47.3574 249.281 47.3616 249.178C47.3636 249.132 47.3659 249.078 47.3681 249.034C47.3694 249.008 47.3702 248.993 47.3716 248.971C47.3721 248.963 47.3725 248.957 47.3727 248.955C47.3727 248.955 47.3725 248.959 47.3716 248.969C47.3707 248.977 47.3718 248.971 47.3665 249.012C47.3636 249.032 47.3605 249.057 47.3489 249.111C47.3255 249.178 47.3551 249.218 47.1754 249.542C47.0136 249.859 46.4981 250.127 46.2605 250.126C46.0176 250.178 45.4927 250.035 45.2754 249.795C45.393 249.906 45.5813 250.048 45.8654 250.126C46.1459 250.207 46.502 250.177 46.7462 250.071C47.2445 249.844 47.3442 249.594 47.4269 249.473C47.5613 249.218 47.5543 249.156 47.574 249.092C47.5974 248.981 47.597 248.955 47.6008 248.926C47.6057 248.875 47.6061 248.858 47.6071 248.839C47.6088 248.805 47.6095 248.774 47.6097 248.771C47.6103 248.751 47.6108 248.73 47.6113 248.707C47.6123 248.663 47.6133 248.6 47.6138 248.571C47.615 248.501 47.6163 248.388 47.6172 248.318C47.619 248.166 47.6207 247.981 47.622 247.827C47.6249 247.486 47.6271 247.159 47.629 246.84C47.6328 246.186 47.6354 245.517 47.637 244.871C47.6429 242.486 47.6447 240.118 47.6455 237.74C47.6458 236.552 47.6459 235.36 47.6457 234.178C47.6455 233.57 47.6453 233.002 47.645 232.393C47.6448 232.093 47.6446 231.803 47.6442 231.499C47.6441 231.374 47.6438 231.183 47.6436 231.06C47.6434 230.975 47.6432 230.896 47.643 230.833C47.643 230.808 47.6427 230.743 47.6426 230.711C47.6425 230.693 47.6424 230.676 47.6423 230.662C47.6423 230.663 47.6421 230.628 47.6418 230.614C47.6417 230.605 47.6416 230.598 47.6411 230.58C47.6407 230.569 47.6409 230.562 47.6381 230.52C47.6339 230.489 47.6425 230.491 47.6093 230.321C47.5964 230.271 47.589 230.211 47.5202 230.052C47.4813 229.971 47.432 229.854 47.271 229.676C47.1243 229.509 46.7107 229.192 46.1465 229.24C45.5903 229.294 45.3067 229.601 45.1838 229.748C45.0548 229.912 45.0159 230.011 44.9832 230.084C44.9254 230.227 44.9176 230.282 44.9062 230.329C44.8743 230.498 44.883 230.493 44.879 230.523C44.8775 230.544 44.8771 230.554 44.8768 230.562C44.8761 230.578 44.876 230.585 44.8758 230.592C44.8755 230.605 44.8754 230.613 44.8753 230.623C44.8751 230.641 44.8748 230.669 44.8748 230.673C44.8747 230.691 44.8745 230.712 44.8744 230.736C44.8741 230.786 44.8738 230.844 44.8737 230.881C44.8733 230.962 44.8728 231.085 44.8726 231.16C44.8719 231.344 44.8714 231.527 44.8708 231.716C44.8631 234.594 44.8564 237.479 44.8468 240.355C44.8421 241.791 44.8369 243.239 44.8304 244.67C44.8271 245.395 44.8235 246.113 44.8191 246.829C44.8168 247.193 44.8143 247.547 44.8112 247.908C44.8096 248.087 44.8079 248.269 44.8057 248.442C44.8049 248.512 44.8033 248.632 44.8019 248.705C44.8014 248.738 44.8004 248.793 44.7993 248.833C44.7988 248.852 44.7984 248.868 44.798 248.878C44.798 248.88 44.7971 248.899 44.7978 248.886C44.7983 248.879 44.7983 248.869 44.8033 248.824C44.8065 248.8 44.8084 248.772 44.826 248.689C44.8365 248.645 44.8464 248.591 44.8939 248.47C44.92 248.407 44.9529 248.327 45.0386 248.2C45.1273 248.081 45.2678 247.875 45.645 247.708C45.8914 247.579 46.4206 247.591 46.6655 247.737C46.7838 247.795 46.9521 247.902 47.0992 248.089C47.2482 248.273 47.3376 248.518 47.36 248.696C47.3875 248.869 47.374 249.135 47.274 249.367C47.1767 249.602 47.0274 249.762 46.9191 249.852C46.6923 250.075 46.1633 250.191 45.9174 250.125C45.6791 250.114 45.1653 249.811 45.0213 249.475C44.8668 249.149 44.897 249.114 44.878 249.048C44.8696 248.995 44.8678 248.971 44.866 248.952C44.8628 248.912 44.8636 248.918 44.8631 248.911C44.8626 248.901 44.8626 248.898 44.8626 248.898C44.8626 248.9 44.8627 248.906 44.8628 248.915C44.863 248.938 44.863 248.953 44.8631 248.979C44.863 249.023 44.8627 249.077 44.8624 249.124C44.8615 249.226 44.8604 249.324 44.859 249.43C44.8563 249.635 44.853 249.84 44.8495 250.049C44.8425 250.461 44.8346 250.88 44.8265 251.296C44.8102 252.125 44.7927 252.962 44.7751 253.791C44.7395 255.457 44.7024 257.123 44.6651 258.79C44.6476 259.569 44.6293 260.348 44.6101 261.127C44.505 265.214 44.3958 269.307 44.1569 273.352C43.9849 276.122 43.7578 278.885 43.4198 281.619C43.1616 283.683 42.8403 285.737 42.3564 287.705C42.0139 289.079 41.6005 290.438 41.0283 291.607C40.6246 292.426 40.1458 293.192 39.6095 293.717C39.1581 294.16 38.6733 294.514 38.1868 294.723C37.6637 294.948 37.1305 295.119 36.5944 295.223C35.9997 295.339 35.4041 295.446 34.8081 295.543C34.2075 295.641 33.6077 295.75 33.0091 295.87C32.4317 295.987 31.8557 296.114 31.2816 296.252C30.7262 296.385 30.172 296.525 29.6193 296.67C29.0804 296.813 28.5414 296.954 28.0022 297.095C27.4808 297.232 26.9538 297.352 26.4225 297.457C25.9433 297.552 25.4579 297.602 24.9705 297.605C24.5898 297.608 24.2436 297.539 23.9144 297.395C23.7231 297.316 23.4829 297.093 23.2656 296.712C22.9736 296.201 22.7703 295.11 22.6656 294.132C22.4329 291.656 22.4357 288.965 22.4193 286.344C22.4099 282.512 22.4508 278.679 22.5411 274.848C22.6223 271.419 22.7261 267.993 22.8784 264.574C22.9958 261.953 23.1198 259.333 23.2606 256.717C23.276 256.431 23.2913 256.144 23.3064 255.858C23.3964 254.144 23.4801 252.429 23.5515 250.712C23.57 250.266 23.5887 249.821 23.6082 249.376C23.6179 249.155 23.6279 248.931 23.6382 248.712C23.6435 248.601 23.6488 248.491 23.6544 248.384C23.6572 248.33 23.6601 248.276 23.663 248.226C23.6645 248.201 23.666 248.176 23.6674 248.156C23.6681 248.146 23.6688 248.136 23.6691 248.133C23.6692 248.131 23.6693 248.13 23.6686 248.138C23.6681 248.142 23.6678 248.147 23.6654 248.165C23.6476 248.218 23.7137 248.084 23.5741 248.507C23.4772 248.762 23.2398 249.008 23.0573 249.109C22.8646 249.23 22.5846 249.295 22.3851 249.284C22.1867 249.282 21.9077 249.2 21.7194 249.063L21.1229 247.879C21.0716 249.672 21.0204 251.466 20.9692 253.26C21.8985 253.287 22.8278 253.313 23.7571 253.34C23.8084 251.546 23.8596 249.752 23.9108 247.958L23.9323 247.205L23.3142 246.774C23.0754 246.602 22.735 246.5 22.4749 246.496C22.2135 246.483 21.8707 246.563 21.6249 246.716C21.392 246.847 21.1129 247.138 20.9941 247.448C20.853 247.875 20.9178 247.751 20.8992 247.809C20.8959 247.835 20.8948 247.847 20.8937 247.857C20.8915 247.879 20.8904 247.892 20.8894 247.904C20.8873 247.931 20.8861 247.947 20.8849 247.965C20.8824 248.001 20.8806 248.032 20.8788 248.062C20.8752 248.123 20.8721 248.181 20.8691 248.239C20.8631 248.353 20.8576 248.467 20.8523 248.58C20.8417 248.805 20.8316 249.031 20.8218 249.254C20.8021 249.702 20.7834 250.149 20.7648 250.596C20.6941 252.299 20.6108 254.005 20.5211 255.711C20.5061 255.996 20.4909 256.282 20.4755 256.567C20.3341 259.196 20.2098 261.823 20.0921 264.45C19.9386 267.897 19.8344 271.34 19.7528 274.782C19.662 278.638 19.6208 282.494 19.6302 286.351C19.6499 289.024 19.6333 291.64 19.8933 294.436C20.049 295.589 20.1184 296.698 20.8485 298.103C21.239 298.783 21.8504 299.537 22.7979 299.951C23.4884 300.256 24.2591 300.402 24.9911 300.394C25.653 300.389 26.316 300.322 26.9641 300.193C27.5479 300.078 28.1296 299.945 28.7079 299.794C29.2492 299.652 29.7902 299.51 30.3311 299.367C30.8634 299.227 31.3975 299.092 31.9331 298.963C32.4726 298.834 33.0152 298.714 33.5605 298.604C34.1229 298.491 34.6887 298.388 35.2571 298.296C35.8829 298.194 36.5059 298.082 37.1264 297.961C37.8817 297.815 38.6072 297.579 39.2914 297.284C40.1934 296.893 40.9344 296.322 41.5603 295.711C42.4628 294.814 43.0381 293.824 43.5296 292.841C44.2532 291.353 44.6897 289.863 45.0637 288.375C45.5899 286.232 45.92 284.096 46.1877 281.962C46.5356 279.147 46.766 276.335 46.9407 273.524C47.1844 269.392 47.2925 265.301 47.3983 261.196C47.4176 260.415 47.4358 259.633 47.453 258.852C47.4898 257.184 47.5258 255.517 47.56 253.849C47.577 253.019 47.5938 252.181 47.6092 251.349C47.6169 250.932 47.6244 250.511 47.631 250.095C47.6344 249.883 47.6375 249.676 47.64 249.465C47.6413 249.356 47.6424 249.255 47.6432 249.144C47.6435 249.093 47.6438 249.034 47.6438 248.978C47.6437 248.944 47.6437 248.926 47.6432 248.884C47.643 248.863 47.6429 248.854 47.6421 248.824C47.6417 248.809 47.6412 248.793 47.6402 248.773C47.6394 248.76 47.6401 248.762 47.636 248.711C47.6338 248.687 47.6316 248.66 47.6228 248.604C47.6033 248.536 47.6331 248.5 47.4782 248.173C47.2959 247.76 46.7027 247.407 46.3808 247.384C46.0494 247.301 45.4277 247.44 45.1348 247.72C44.8389 247.904 44.4946 248.653 44.6079 249.089C44.6326 249.554 45.1363 250.128 45.4456 250.235C45.7688 250.421 46.3937 250.436 46.7204 250.271C47.0978 250.104 47.2384 249.898 47.3271 249.779C47.413 249.652 47.4459 249.571 47.4721 249.509C47.5199 249.387 47.53 249.332 47.5407 249.287C47.5587 249.203 47.561 249.172 47.5647 249.143C47.5704 249.092 47.5713 249.072 47.5727 249.05C47.5749 249.012 47.5759 248.979 47.5761 248.974C47.5769 248.951 47.5775 248.927 47.5781 248.901C47.5794 248.848 47.5805 248.788 47.5811 248.752C47.5824 248.672 47.584 248.546 47.5847 248.474C47.5867 248.296 47.5883 248.112 47.5897 247.931C47.5924 247.566 47.5945 247.211 47.5963 246.845C47.6 246.126 47.6027 245.407 47.6052 244.681C47.6101 243.249 47.6137 241.799 47.6171 240.363C47.6239 237.486 47.6287 234.599 47.6365 231.724C47.637 231.535 47.6376 231.353 47.6382 231.169C47.6385 231.095 47.639 230.973 47.6393 230.893C47.6395 230.857 47.6398 230.801 47.6401 230.753C47.6402 230.73 47.6404 230.711 47.6405 230.695C47.6405 230.692 47.6407 230.667 47.6409 230.659C47.6409 230.654 47.641 230.652 47.6409 230.657C47.6408 230.66 47.6407 230.664 47.6402 230.678C47.6398 230.685 47.6395 230.694 47.6381 230.714C47.6341 230.744 47.6428 230.739 47.611 230.907C47.5996 230.954 47.5918 231.01 47.5341 231.153C47.5014 231.226 47.4625 231.325 47.3334 231.488C47.2106 231.636 46.927 231.943 46.3708 231.997C45.8066 232.045 45.393 231.728 45.2463 231.56C45.0852 231.382 45.036 231.266 44.9971 231.185C44.9283 231.025 44.9209 230.966 44.908 230.915C44.8749 230.746 44.8835 230.748 44.8794 230.718C44.8766 230.677 44.8769 230.672 44.8766 230.663C44.8762 230.65 44.8763 230.651 44.8763 230.652C44.8763 230.653 44.8766 230.681 44.8765 230.681C44.8766 230.693 44.8767 230.707 44.8768 230.724C44.8769 230.754 44.8771 230.817 44.8772 230.841C44.8773 230.902 44.8775 230.98 44.8776 231.065C44.8778 231.187 44.878 231.377 44.8781 231.502C44.8783 231.804 44.8783 232.095 44.8783 232.394C44.8782 233.002 44.8779 233.57 44.8774 234.177C44.8765 235.359 44.8751 236.55 44.8734 237.737C44.8698 240.115 44.8656 242.482 44.8597 244.864C44.8581 245.509 44.8568 246.177 44.8554 246.829C44.8548 247.147 44.8541 247.472 44.8529 247.811C44.8524 247.963 44.8517 248.146 44.8508 248.293C44.8505 248.362 44.8496 248.471 44.849 248.535C44.8488 248.562 44.8481 248.62 44.8476 248.654C44.8473 248.672 44.8471 248.687 44.8469 248.697C44.8469 248.698 44.8462 248.717 44.8467 248.707C44.8472 248.7 44.8469 248.693 44.8512 248.649C44.8547 248.622 44.854 248.599 44.877 248.489C44.8966 248.426 44.8894 248.364 45.0236 248.109C45.1063 247.989 45.2059 247.738 45.7041 247.512C45.9483 247.406 46.3044 247.376 46.5848 247.457C46.8688 247.535 47.0571 247.677 47.1747 247.788C46.8952 247.486 46.2789 247.317 45.9501 247.381C45.6279 247.388 45.0301 247.701 44.8248 248.092C44.6446 248.417 44.6736 248.459 44.6497 248.528C44.6375 248.585 44.6338 248.613 44.6304 248.637C44.6236 248.689 44.6245 248.687 44.623 248.701C44.621 248.721 44.6198 248.737 44.6187 248.753C44.6165 248.784 44.6161 248.793 44.6149 248.813C44.6126 248.856 44.6119 248.874 44.6104 248.908C44.608 248.964 44.6058 249.023 44.6041 249.074C44.6002 249.185 44.5972 249.287 44.5941 249.395C44.588 249.606 44.5828 249.813 44.5776 250.025C44.5675 250.441 44.5582 250.862 44.5493 251.278C44.5317 252.11 44.5154 252.948 44.4997 253.778C44.4681 255.445 44.438 257.112 44.4058 258.779C44.3838 259.919 44.3588 261.054 44.3293 262.191C44.2293 265.911 44.1229 269.648 43.9041 273.332C43.7327 276.095 43.5069 278.851 43.1706 281.579C42.9145 283.632 42.5975 285.675 42.1192 287.633C41.7833 288.988 41.381 290.332 40.8227 291.49C40.4345 292.288 39.9745 293.04 39.4604 293.552C39.0323 293.979 38.571 294.319 38.1048 294.52C37.5965 294.741 37.0743 294.907 36.5441 295.009C35.9484 295.124 35.3518 295.231 34.7544 295.329C34.1503 295.427 33.547 295.537 32.9451 295.658C32.3652 295.775 31.7866 295.903 31.2099 296.041C30.6539 296.175 30.0991 296.314 29.5456 296.461C29.0098 296.602 28.4739 296.743 27.9379 296.883C27.426 297.018 26.9101 297.137 26.3909 297.242C25.9284 297.336 25.4639 297.39 25.0015 297.402C24.6494 297.41 24.3324 297.355 24.0367 297.235C23.9038 297.187 23.6833 296.993 23.4842 296.641C23.2099 296.158 23.0142 295.07 22.9139 294.115C22.6856 291.64 22.6894 288.959 22.6731 286.345C22.6638 282.515 22.7048 278.685 22.795 274.855C22.8583 272.17 22.9363 269.488 23.0397 266.808C23.0684 266.066 23.099 265.325 23.1322 264.584C23.1996 263.076 23.2668 261.574 23.3341 260.067L23.3335 260.08C23.3938 258.961 23.454 257.845 23.5144 256.726C23.5747 255.606 23.6349 254.49 23.6952 253.372ZM21.0311 253.228L23.6952 253.372L23.7571 253.34L20.9692 253.26L21.0311 253.228Z" fill="#392316"/>
<path d="M1543.19 556.776C1544.42 559.32 1544.53 562.671 1545.37 565.878C1545.47 566.272 1545.29 566.616 1544.91 566.811C1544.41 567.06 1543.91 566.944 1543.5 566.624C1543.02 566.244 1542.77 565.701 1542.81 565.144C1542.94 563.63 1542.32 562.25 1541.93 560.835C1541.58 559.59 1541.3 558.352 1541.14 557.062C1540.95 555.437 1540.27 553.858 1539.81 552.261C1539.47 551.06 1539.64 550.441 1540.31 550.423C1541.29 550.395 1541.38 551.133 1541.58 551.723C1542.08 553.218 1542.54 554.729 1543.19 556.781L1543.19 556.776Z" fill="#053F28"/>
<path d="M1525.31 554.881C1525.47 554.932 1525.78 554.975 1525.99 555.13C1526.56 555.535 1526.95 556.065 1527.19 556.688C1527.76 558.085 1528.8 559.213 1529.86 560.33C1530.92 561.442 1531.94 562.58 1532.93 563.739C1533.22 564.088 1533.43 564.529 1533.56 564.956C1533.63 565.171 1533.5 565.512 1533.33 565.697C1533.05 565.991 1532.62 566.052 1532.21 565.907C1531.94 565.807 1531.63 565.665 1531.47 565.464C1529.52 563.008 1527.24 560.782 1525.47 558.214C1524.92 557.413 1524.51 556.599 1524.45 555.666C1524.43 555.281 1524.7 554.989 1525.31 554.893L1525.31 554.881Z" fill="#053F28"/>
<path d="M1532.41 558.953C1531.91 557.39 1531.51 556.152 1531.13 554.912C1530.98 554.456 1531.04 554.016 1531.34 553.597C1531.54 553.317 1532.19 553.244 1532.39 553.505C1532.44 553.582 1532.55 553.634 1532.57 553.713C1533.8 557.405 1535.91 560.818 1536.77 564.627C1536.81 564.81 1536.85 564.988 1536.88 565.169C1536.94 565.572 1536.78 565.882 1536.39 566.09C1535.99 566.307 1535.4 566.075 1535.17 565.577C1534.13 563.291 1532.77 561.109 1532.4 558.956L1532.41 558.953Z" fill="#053F28"/>
<path d="M579.681 649.851C580.577 651.703 580.656 654.144 581.27 656.479C581.343 656.766 581.207 657.016 580.932 657.158C580.568 657.339 580.207 657.255 579.909 657.022C579.555 656.745 579.374 656.35 579.406 655.944C579.495 654.842 579.048 653.837 578.761 652.807C578.51 651.9 578.301 650.998 578.19 650.059C578.048 648.876 577.554 647.726 577.221 646.563C576.971 645.689 577.098 645.238 577.579 645.225C578.296 645.205 578.361 645.742 578.507 646.172C578.871 647.26 579.207 648.36 579.682 649.854L579.681 649.851Z" fill="#053F28"/>
<path d="M566.66 648.471C566.773 648.508 567.002 648.539 567.157 648.652C567.567 648.947 567.85 649.333 568.031 649.787C568.446 650.804 569.201 651.626 569.973 652.439C570.743 653.248 571.487 654.077 572.204 654.921C572.422 655.175 572.57 655.496 572.664 655.807C572.714 655.964 572.619 656.212 572.497 656.347C572.295 656.561 571.979 656.605 571.685 656.499C571.487 656.427 571.262 656.324 571.142 656.177C569.727 654.389 568.067 652.768 566.777 650.898C566.376 650.315 566.078 649.722 566.036 649.042C566.015 648.762 566.213 648.549 566.658 648.48L566.66 648.471Z" fill="#053F28"/>
<path d="M571.825 651.436C571.463 650.297 571.172 649.397 570.89 648.494C570.784 648.161 570.824 647.841 571.043 647.536C571.189 647.332 571.667 647.279 571.81 647.469C571.85 647.525 571.927 647.563 571.945 647.62C572.84 650.308 574.372 652.794 575.002 655.568C575.031 655.701 575.058 655.83 575.077 655.962C575.124 656.256 575.004 656.481 574.722 656.633C574.433 656.791 574 656.622 573.834 656.259C573.076 654.595 572.09 653.005 571.817 651.438L571.825 651.436Z" fill="#053F28"/>
<path d="M705.978 188.801C706.873 190.654 706.953 193.094 707.567 195.429C707.64 195.716 707.504 195.967 707.229 196.108C706.865 196.29 706.504 196.205 706.206 195.973C705.852 195.696 705.671 195.3 705.703 194.895C705.792 193.792 705.344 192.787 705.058 191.757C704.807 190.851 704.598 189.949 704.487 189.01C704.345 187.827 703.851 186.677 703.518 185.514C703.268 184.64 703.395 184.189 703.876 184.176C704.593 184.155 704.658 184.693 704.804 185.122C705.168 186.211 705.504 187.311 705.979 188.805L705.978 188.801Z" fill="#053F28"/>
<path d="M692.957 187.422C693.069 187.459 693.299 187.49 693.454 187.603C693.864 187.898 694.147 188.284 694.328 188.738C694.743 189.755 695.498 190.577 696.27 191.39C697.04 192.2 697.784 193.028 698.501 193.872C698.719 194.126 698.867 194.448 698.961 194.758C699.011 194.915 698.916 195.163 698.794 195.298C698.592 195.512 698.276 195.556 697.981 195.451C697.784 195.378 697.559 195.275 697.439 195.128C696.024 193.34 694.364 191.719 693.073 189.849C692.673 189.266 692.375 188.673 692.333 187.993C692.312 187.713 692.51 187.501 692.955 187.431L692.957 187.422Z" fill="#053F28"/>
<path d="M698.122 190.387C697.76 189.249 697.469 188.348 697.187 187.445C697.081 187.112 697.121 186.792 697.34 186.487C697.486 186.284 697.964 186.23 698.107 186.42C698.147 186.476 698.223 186.514 698.242 186.572C699.137 189.26 700.669 191.745 701.299 194.519C701.327 194.652 701.355 194.782 701.374 194.913C701.421 195.207 701.301 195.433 701.019 195.584C700.73 195.742 700.297 195.573 700.131 195.211C699.373 193.546 698.387 191.957 698.113 190.39L698.122 190.387Z" fill="#053F28"/>
<path d="M1289.32 488.287C1289.98 492.514 1291.31 496.596 1292.64 500.678C1292.73 500.936 1292.8 501.211 1292.97 501.438C1293.25 501.837 1293.65 502.133 1294.22 501.934C1294.73 501.756 1295.07 501.357 1294.99 500.872C1294.84 499.982 1294.69 499.065 1294.34 498.23C1293.04 495.075 1292.24 491.808 1291.47 488.524C1291.41 488.26 1291.37 487.979 1291.26 487.737C1291.05 487.289 1290.67 486.993 1290.1 487.036C1289.58 487.074 1289.18 487.715 1289.32 488.287H1289.32Z" fill="#053F28"/>
<path d="M1283 492.186C1283.17 493 1283.38 493.971 1283.58 494.941C1284.12 497.508 1284.71 500.064 1285.98 502.447C1286.2 502.857 1286.34 503.283 1286.78 503.547C1287.15 503.762 1287.57 503.806 1287.91 503.601C1288.13 503.471 1288.29 503.186 1288.35 502.943C1288.49 502.388 1288.24 501.881 1287.98 501.385C1286.6 498.748 1285.93 495.933 1285.41 493.086C1285.3 492.45 1285.15 491.852 1284.79 491.296C1284.56 490.957 1284.24 490.735 1283.82 490.784C1283.24 490.849 1283.04 491.264 1283.01 491.755C1283.01 491.846 1283.01 491.938 1283.01 492.186H1283Z" fill="#053F28"/>
<path d="M1448.43 176.745C1448.43 176.625 1448.43 177.047 1448.5 177.469C1448.57 177.935 1448.91 178.237 1449.4 178.313C1449.88 178.382 1450.31 178.193 1450.64 177.866C1451.07 177.45 1451.15 176.934 1451.22 176.405C1451.83 171.915 1452.46 167.432 1453.06 162.942C1453.1 162.64 1453.09 162.281 1452.94 162.029C1452.8 161.777 1452.47 161.513 1452.17 161.456C1451.88 161.399 1451.47 161.519 1451.22 161.695C1450.96 161.872 1450.73 162.193 1450.68 162.476C1449.91 166.84 1449.18 171.204 1448.45 175.574C1448.41 175.781 1448.45 175.995 1448.45 176.745H1448.43Z" fill="#053F28"/>
<path d="M1447.09 167.11C1446.97 166.254 1446.95 165.618 1446.76 165.026C1446.69 164.805 1446.24 164.56 1445.96 164.553C1445.68 164.547 1445.2 164.755 1445.12 164.969C1444.79 165.75 1444.51 166.562 1444.37 167.387C1443.87 170.384 1443.43 173.394 1443.01 176.404C1442.92 176.996 1443.38 177.437 1443.97 177.556C1444.61 177.689 1445.12 177.323 1445.33 176.794C1445.56 176.209 1445.61 175.56 1445.79 174.956C1446.6 172.311 1446.26 169.528 1447.09 167.11Z" fill="#053F28"/>
<path d="M107.313 558.708C107.307 558.613 107.313 558.948 107.368 559.283C107.423 559.653 107.689 559.893 108.082 559.953C108.464 560.008 108.801 559.858 109.067 559.598C109.405 559.268 109.466 558.858 109.527 558.438C110.008 554.873 110.506 551.314 110.982 547.749C111.016 547.509 111.01 547.224 110.894 547.024C110.778 546.824 110.517 546.614 110.279 546.569C110.052 546.524 109.726 546.619 109.527 546.759C109.322 546.899 109.134 547.154 109.095 547.379C108.486 550.844 107.905 554.308 107.324 557.778C107.296 557.943 107.324 558.113 107.324 558.708H107.313Z" fill="#053F28"/>
<path d="M106.25 551.058C106.15 550.378 106.134 549.873 105.984 549.403C105.929 549.228 105.575 549.033 105.353 549.028C105.126 549.023 104.75 549.188 104.684 549.358C104.423 549.978 104.196 550.623 104.086 551.278C103.693 553.658 103.339 556.048 103.006 558.438C102.94 558.908 103.3 559.258 103.77 559.353C104.274 559.458 104.684 559.168 104.85 558.748C105.032 558.283 105.071 557.768 105.215 557.288C105.857 555.188 105.586 552.978 106.25 551.058Z" fill="#053F28"/>
<path d="M1332.31 603.804C1332.31 603.709 1332.31 604.044 1332.37 604.379C1332.42 604.749 1332.69 604.989 1333.08 605.049C1333.46 605.104 1333.8 604.954 1334.07 604.694C1334.4 604.364 1334.47 603.954 1334.53 603.534C1335.01 599.969 1335.51 596.409 1335.98 592.845C1336.02 592.605 1336.01 592.32 1335.89 592.12C1335.78 591.92 1335.52 591.71 1335.28 591.665C1335.05 591.62 1334.73 591.715 1334.53 591.855C1334.32 591.995 1334.13 592.25 1334.09 592.475C1333.49 595.939 1332.9 599.404 1332.32 602.874C1332.3 603.039 1332.32 603.209 1332.32 603.804H1332.31Z" fill="#053F28"/>
<path d="M1331.25 596.154C1331.15 595.474 1331.13 594.969 1330.98 594.499C1330.93 594.324 1330.57 594.129 1330.35 594.124C1330.13 594.119 1329.75 594.284 1329.68 594.454C1329.42 595.074 1329.2 595.719 1329.09 596.374C1328.69 598.754 1328.34 601.144 1328.01 603.534C1327.94 604.004 1328.3 604.353 1328.77 604.448C1329.27 604.553 1329.68 604.264 1329.85 603.844C1330.03 603.379 1330.07 602.864 1330.21 602.384C1330.86 600.284 1330.59 598.074 1331.25 596.154Z" fill="#053F28"/>
<path d="M451.687 136.614C451.693 136.519 451.687 136.854 451.632 137.189C451.577 137.559 451.311 137.799 450.918 137.859C450.536 137.914 450.199 137.764 449.933 137.504C449.595 137.174 449.534 136.764 449.473 136.344C448.992 132.78 448.494 129.22 448.018 125.655C447.984 125.415 447.99 125.13 448.106 124.93C448.222 124.73 448.483 124.52 448.721 124.475C448.948 124.43 449.274 124.525 449.473 124.665C449.678 124.805 449.866 125.06 449.905 125.285C450.514 128.75 451.095 132.215 451.676 135.684C451.704 135.849 451.676 136.019 451.676 136.614H451.687Z" fill="#053F28"/>
<path d="M452.75 128.965C452.85 128.285 452.866 127.78 453.016 127.31C453.071 127.135 453.425 126.94 453.647 126.935C453.874 126.93 454.25 127.095 454.316 127.265C454.577 127.885 454.804 128.53 454.914 129.185C455.307 131.564 455.661 133.954 455.994 136.344C456.06 136.814 455.7 137.164 455.23 137.259C454.726 137.364 454.316 137.074 454.15 136.654C453.968 136.189 453.929 135.674 453.785 135.194C453.143 133.094 453.414 130.884 452.75 128.965Z" fill="#053F28"/>
<path d="M932.817 648.478C934.047 651.022 934.156 654.374 934.999 657.581C935.1 657.975 934.913 658.319 934.535 658.513C934.035 658.762 933.54 658.647 933.13 658.327C932.644 657.947 932.396 657.404 932.439 656.847C932.562 655.333 931.947 653.953 931.554 652.538C931.209 651.293 930.922 650.055 930.77 648.765C930.574 647.14 929.896 645.56 929.439 643.963C929.095 642.763 929.269 642.144 929.93 642.126C930.915 642.098 931.005 642.836 931.205 643.426C931.705 644.921 932.167 646.431 932.819 648.483L932.817 648.478Z" fill="#053F28"/>
<path d="M914.936 646.583C915.091 646.634 915.407 646.677 915.619 646.832C916.182 647.238 916.571 647.767 916.819 648.39C917.389 649.788 918.427 650.916 919.486 652.033C920.544 653.145 921.566 654.283 922.551 655.442C922.85 655.79 923.053 656.232 923.182 656.659C923.251 656.874 923.12 657.214 922.953 657.4C922.675 657.693 922.242 657.755 921.837 657.61C921.566 657.509 921.257 657.368 921.092 657.166C919.149 654.711 916.869 652.485 915.096 649.916C914.546 649.116 914.137 648.302 914.079 647.368C914.051 646.983 914.323 646.691 914.934 646.595L914.936 646.583Z" fill="#053F28"/>
<path d="M922.035 650.656C921.538 649.092 921.138 647.855 920.75 646.615C920.605 646.158 920.66 645.718 920.961 645.299C921.161 645.02 921.817 644.946 922.014 645.208C922.069 645.284 922.174 645.336 922.199 645.415C923.429 649.107 925.533 652.521 926.398 656.33C926.437 656.513 926.475 656.69 926.501 656.871C926.566 657.274 926.4 657.584 926.014 657.793C925.617 658.009 925.021 657.777 924.794 657.279C923.753 654.993 922.399 652.811 922.023 650.659L922.035 650.656Z" fill="#053F28"/>
<path d="M207.434 650.248C207.427 650.129 207.434 650.55 207.504 650.972C207.573 651.438 207.908 651.741 208.403 651.816C208.884 651.885 209.309 651.696 209.644 651.369C210.069 650.953 210.146 650.437 210.222 649.908C210.829 645.419 211.456 640.935 212.056 636.446C212.098 636.143 212.091 635.784 211.944 635.533C211.798 635.281 211.47 635.016 211.171 634.96C210.885 634.903 210.473 635.022 210.222 635.199C209.965 635.375 209.728 635.696 209.679 635.98C208.912 640.343 208.18 644.707 207.448 649.077C207.413 649.285 207.448 649.499 207.448 650.248H207.434Z" fill="#053F28"/>
<path d="M206.094 640.613C205.968 639.757 205.947 639.121 205.759 638.529C205.689 638.309 205.243 638.063 204.964 638.057C204.679 638.05 204.205 638.258 204.121 638.472C203.793 639.253 203.507 640.065 203.368 640.89C202.873 643.888 202.427 646.898 202.009 649.907C201.925 650.499 202.378 650.94 202.971 651.06C203.605 651.192 204.121 650.827 204.33 650.298C204.56 649.712 204.609 649.064 204.79 648.459C205.599 645.814 205.257 643.031 206.094 640.613Z" fill="#053F28"/>
<path d="M1247.31 659.723C1247.31 659.628 1247.31 659.963 1247.37 660.298C1247.42 660.668 1247.69 660.908 1248.08 660.968C1248.46 661.023 1248.8 660.873 1249.07 660.613C1249.4 660.283 1249.47 659.873 1249.53 659.453C1250.01 655.888 1250.51 652.328 1250.98 648.763C1251.02 648.523 1251.01 648.238 1250.89 648.039C1250.78 647.839 1250.52 647.629 1250.28 647.584C1250.05 647.539 1249.73 647.634 1249.53 647.774C1249.32 647.914 1249.13 648.169 1249.09 648.393C1248.49 651.858 1247.9 655.323 1247.32 658.793C1247.3 658.958 1247.32 659.128 1247.32 659.723H1247.31Z" fill="#053F28"/>
<path d="M1246.25 652.072C1246.15 651.393 1246.13 650.888 1245.98 650.418C1245.93 650.243 1245.57 650.048 1245.35 650.043C1245.13 650.038 1244.75 650.203 1244.68 650.373C1244.42 650.993 1244.2 651.637 1244.09 652.292C1243.69 654.672 1243.34 657.062 1243.01 659.452C1242.94 659.922 1243.3 660.272 1243.77 660.367C1244.27 660.472 1244.68 660.182 1244.85 659.762C1245.03 659.297 1245.07 658.782 1245.21 658.302C1245.86 656.202 1245.59 653.992 1246.25 652.072Z" fill="#053F28"/>
<path d="M569.978 501.764C570.873 503.617 570.953 506.057 571.567 508.392C571.64 508.679 571.504 508.93 571.229 509.071C570.865 509.252 570.504 509.168 570.206 508.935C569.852 508.659 569.671 508.263 569.703 507.858C569.792 506.755 569.344 505.75 569.058 504.72C568.807 503.813 568.598 502.912 568.487 501.973C568.345 500.79 567.851 499.639 567.518 498.477C567.268 497.603 567.395 497.152 567.876 497.139C568.593 497.118 568.658 497.656 568.804 498.085C569.168 499.174 569.504 500.274 569.979 501.768L569.978 501.764Z" fill="#053F28"/>
<path d="M556.957 500.385C557.069 500.422 557.299 500.453 557.454 500.566C557.864 500.861 558.147 501.247 558.328 501.701C558.743 502.718 559.498 503.54 560.27 504.353C561.04 505.163 561.784 505.991 562.501 506.835C562.719 507.089 562.867 507.41 562.961 507.721C563.011 507.878 562.916 508.126 562.794 508.261C562.592 508.475 562.276 508.519 561.981 508.414C561.784 508.341 561.559 508.238 561.439 508.091C560.024 506.303 558.364 504.682 557.073 502.812C556.673 502.229 556.375 501.636 556.333 500.956C556.312 500.676 556.51 500.464 556.955 500.394L556.957 500.385Z" fill="#053F28"/>
<path d="M562.122 503.35C561.76 502.212 561.469 501.311 561.187 500.408C561.081 500.075 561.121 499.755 561.34 499.45C561.486 499.246 561.964 499.193 562.107 499.383C562.147 499.439 562.223 499.477 562.242 499.534C563.137 502.222 564.669 504.708 565.299 507.482C565.327 507.615 565.355 507.744 565.374 507.876C565.421 508.17 565.301 508.395 565.019 508.547C564.73 508.705 564.297 508.536 564.131 508.173C563.373 506.509 562.387 504.919 562.113 503.352L562.122 503.35Z" fill="#053F28"/>
<path d="M1839.35 186.83C1811.66 110.617 1755.45 78.1433 1730.81 71.4334C1715.01 77.0131 1676.72 107.751 1649.92 186.065C1667.21 183.695 1718.27 183.865 1784.24 203.503C1793.26 185.761 1824.74 184.995 1839.35 186.83Z" fill="url(#paint2_linear_988_375)"/>
<path d="M1730.21 70.6454C1738.07 78.9493 1741.51 82.7518 1745.72 88.3671C1750.09 94.2053 1753.39 102.551 1765.59 133.445C1769.29 142.809 1770.26 148.836 1773.28 158.919C1775.73 167.108 1776.18 173.06 1778.03 179.006C1779.55 185.709 1780.17 189.711 1780.96 193.493C1781.32 196.212 1781.59 200.555 1783.99 203.795" stroke="#BF8E0D" stroke-width="2.8198" stroke-linecap="round"/>
<path d="M1731.02 70.3195C1740.64 71.9061 1743.88 73.8168 1759.98 85.4231C1767.32 90.7086 1776.61 98.8684 1784.28 106.495C1789 111.184 1792.79 116.24 1797.51 121.266C1802.4 126.466 1808.12 132.519 1812.82 137.189C1817.56 141.894 1820.43 147.16 1822.75 151.98C1825.29 157.228 1827.92 161.377 1830.22 165.642C1832.59 170.051 1834.61 174.169 1836.35 178.47C1837.21 180.612 1839 184.105 1839.32 186.282" stroke="#BF8E0D" stroke-width="2.8198" stroke-linecap="round"/>
<path d="M1839.32 186.283C1830.88 185.712 1818.66 186.303 1810.81 188.074C1805.92 189.174 1800.46 189.736 1796.23 192.567C1792.02 195.771 1790.2 197.35 1787.87 199.698C1786.99 200.576 1784.59 202.91 1784.29 204.052" stroke="#BF8E0D" stroke-width="2.8198" stroke-linecap="round"/>
<path d="M1729.39 70.6973C1722.94 72.9304 1718.06 76.8917 1713.39 81.5946C1704.75 90.2964 1693.37 104.493 1688.17 112.345C1684.29 118.203 1679.87 123.332 1676.84 127.931C1674.04 132.19 1672.65 136.997 1670 141.755C1666.97 147.225 1663.76 153.322 1661.16 158.644C1658.92 163.222 1656.96 167.71 1655.22 172.229C1654.08 174.497 1653.11 176.771 1652.34 179.016C1651.86 180.153 1651 182.398 1650.46 185.757" stroke="#BF8E0D" stroke-width="2.8198" stroke-linecap="round"/>
<path d="M1783.99 203.795C1774.16 198.555 1759.66 195.788 1754.43 194.465C1747.74 192.772 1740.39 192.594 1734.8 191.657C1730.37 190.914 1725.11 189.149 1719.4 188.952C1714.64 188.787 1709.6 187.547 1704.76 186.755C1699.5 185.893 1692.89 184.566 1687.91 184.323C1685.15 183.952 1682.53 183.379 1675.78 183.252C1670.14 183.419 1658.91 184.125 1650.73 185.74" stroke="#BF8E0D" stroke-width="2.8198" stroke-linecap="round"/>
<path d="M1736.56 112.057C1733.47 107.325 1732.25 104.638 1725.84 101.749C1720.52 99.8804 1717.63 100.062 1715.63 100.374C1712.57 101.117 1709.35 102.42 1705.12 105.262C1701.31 108.816 1697.58 113.937 1694.99 119.117C1692.71 123.669 1690.8 128.186 1689.24 132.69C1687.68 137.198 1686.1 141.811 1684.58 146.195C1683.02 150.702 1681.11 155.215 1679.93 159.7C1678.74 164.184 1672.72 173.164 1678.29 174.292C1683.13 175.27 1690.65 174.745 1696.4 176.27C1700.89 177.458 1705.82 176.151 1713.46 178.871C1718.71 180.743 1723.28 181.225 1727.6 182.199C1732.08 183.207 1736.48 185.513 1741 185.206C1742.11 185.131 1743.17 184.701 1743.85 183.915C1744.54 183.129 1744.83 182.02 1745.13 180.895C1746.32 176.411 1745.36 155.868 1743.92 141.29C1742.4 126.01 1742.31 120.848 1736.56 112.057Z" fill="url(#paint3_linear_988_375)" stroke="#BF8E0D" stroke-width="2.8198" stroke-linecap="round"/>
</g>
<defs>
<linearGradient id="paint0_linear_988_375" x1="35.1653" y1="-5" x2="35.1653" y2="266.929" gradientUnits="userSpaceOnUse">
<stop stop-color="#008F58"/>
<stop offset="0.792668" stop-color="#08623F"/>
</linearGradient>
<linearGradient id="paint1_linear_988_375" x1="35.0561" y1="230.549" x2="35.0561" y2="298.325" gradientUnits="userSpaceOnUse">
<stop offset="0.254808" stop-color="#462D15"/>
<stop offset="1" stop-color="#7E5023"/>
</linearGradient>
<linearGradient id="paint2_linear_988_375" x1="1737.39" y1="71.0201" x2="1745.86" y2="205.914" gradientUnits="userSpaceOnUse">
<stop stop-color="#FED571"/>
<stop offset="1" stop-color="#DBB045"/>
</linearGradient>
<linearGradient id="paint3_linear_988_375" x1="1706.57" y1="100.869" x2="1711.98" y2="187.029" gradientUnits="userSpaceOnUse">
<stop offset="0.331731" stop-color="#DBB95F"/>
<stop offset="1" stop-color="#756333" stop-opacity="0.5"/>
</linearGradient>
<clipPath id="clip0_988_375">
<rect width="1920" height="708" fill="white"/>
</clipPath>
</defs>
</svg>
