<svg width="1920" height="708" viewBox="0 0 1920 708" fill="none" xmlns="http://www.w3.org/2000/svg">
    <g clip-path="url(#clip0_988_375)">
        <rect width="1920" height="708" fill="#1C6D41"/>
        <path d="M-47.7261 104.886C-29.7289 87.5534 11.3503 35.0734 29.6402 11C46.7572 54.5543 90.9123 81.3684 110.85 89.3311C98.7788 99.8864 53.7857 73.2205 64.7596 86.5534C75.7336 99.8864 118.532 120.441 107.009 118.219C97.7912 116.441 70.9782 113.775 58.724 112.664C70.2466 152.107 128.408 155.996 122.921 159.885C118.532 162.996 85.9759 158.588 70.2466 155.996C99.8762 188.773 131.701 185.995 131.701 193.773C131.701 199.995 96.584 201.18 79.0258 200.995C95.4867 220.994 152.551 225.438 150.905 229.883C149.588 233.438 112.679 231.364 94.3893 229.883C95.2672 244.549 119.629 250.067 131.701 250.993L137.188 259.326C123.141 265.993 75.7336 250.993 53.7857 242.66C54.8831 248.215 8.24385 278.215 -14.8014 282.659C-33.0407 286.176 -5.1664 254.46 11.5473 237.644C-0.390633 248.992 -47.641 255.916 -42.2363 250.993C-37.8444 246.993 -32.7246 235.253 -30.7136 229.883C-58.3679 231.216 -71.5001 227.475 -74.6094 225.438C-44.7603 207.661 -9.86314 180.254 3.85428 168.773C-31.2623 193.217 -50.6496 190.439 -55.9537 185.995C-31.4343 167.869 -3.09023 136.757 11.9447 118.836C-4.64315 132.858 -47.7261 137.203 -47.7261 133.774C-47.7261 130.663 -18.0965 105.812 -3.28166 93.7754C-25.5953 104.701 -65.7234 122.219 -47.7261 104.886Z" fill="url(#paint0_linear_988_375)"/>
        <path d="M25.8047 314.325V263.215L49.3987 246.549C52.4714 263.437 47.021 296.918 43.9117 311.547L25.8047 314.325Z" fill="url(#paint1_linear_988_375)"/>
        <path d="M-48.3661 105.554C-48.3381 105.558 -47.6766 104.423 -46.3818 102.149C-45.087 99.8761 -43.6549 97.9836 -42.0854 96.4719C-40.5158 94.9602 -38.7248 93.264 -36.7122 91.3834C-34.6996 89.5027 -32.5491 87.4524 -30.2608 85.2326C-27.9724 83.0127 -25.6492 80.6781 -23.2909 78.2286C-20.9327 75.7791 -18.7192 73.429 -16.6504 71.1782C-14.5816 68.9274 -12.3465 66.431 -9.94491 63.6891C-7.54336 60.9472 -4.8035 57.6786 -1.72533 53.8834C1.35284 50.0881 2.89193 48.1905 2.89193 48.1905C2.89193 48.1905 4.76939 45.6823 8.52431 40.6659C12.2792 35.6494 14.1567 33.1412 14.1567 33.1412L28.5389 12.4938C28.5299 12.4667 28.5139 12.4448 28.4909 12.4283C28.4679 12.4117 28.4422 12.4035 28.414 12.4038C28.3857 12.4041 28.3602 12.4128 28.3375 12.4298C28.3148 12.4469 25.9084 15.8762 21.1183 22.7178C16.3282 29.5594 12.0565 35.4873 8.30336 40.5013C4.55018 45.5154 1.13562 49.9186 -1.9403 53.711C-5.01623 57.5034 -7.75388 60.7692 -10.1532 63.5085C-12.5526 66.2478 -14.786 68.7421 -16.8534 70.9914C-18.9208 73.2406 -21.1329 75.5892 -23.4896 78.0371C-25.8463 80.485 -28.1677 82.8177 -30.4538 85.0353C-32.7399 87.2529 -34.8887 89.3014 -36.9001 91.181C-38.9115 93.0605 -40.7028 94.7572 -42.2741 96.2711C-43.8454 97.7849 -45.2734 99.6857 -46.5582 101.973C-47.8429 104.261 -48.4827 105.419 -48.4775 105.447M-48.3661 105.554C-48.3941 105.55 -48.4184 105.538 -48.4389 105.519C-48.4594 105.499 -48.4723 105.475 -48.4775 105.447M-48.3661 105.554C-48.3381 105.558 -48.1592 105.595 -47.8297 105.666C-47.5001 105.737 -46.5101 105.799 -44.8599 105.852C-43.2096 105.906 -41.0028 105.556 -38.2395 104.803C-35.4762 104.051 -32.5898 103.133 -29.5804 102.05C-26.571 100.968 -23.8663 99.9675 -21.4661 99.0498C-19.066 98.1321 -17.1485 97.3916 -15.7138 96.8282C-14.279 96.2648 -12.997 95.7508 -11.8679 95.2863C-10.7387 94.8217 -9.68862 94.3963 -8.71768 94.0099C-7.74675 93.6235 -6.84605 93.2948 -6.01561 93.0237C-5.18516 92.7526 -4.42422 92.6029 -3.73281 92.5746C-3.0414 92.5463 -2.52203 92.8204 -2.1747 93.3968C-1.82737 93.9733 -2.01642 94.9507 -2.74187 96.3292C-3.46732 97.7076 -4.63606 99.3322 -6.24806 101.203C-7.86006 103.074 -9.69295 105 -11.7467 106.983C-13.8005 108.965 -15.87 110.836 -17.955 112.596C-20.0401 114.356 -22.0976 115.979 -24.1273 117.463C-26.1571 118.947 -28.1404 120.316 -30.0771 121.571C-32.0139 122.825 -33.8886 124.007 -35.7012 125.117C-37.5137 126.227 -39.2498 127.314 -40.9095 128.378C-42.5691 129.441 -44.0844 130.831 -45.4552 132.547C-46.8261 134.263 -47.5118 135.135 -47.5123 135.164M-48.4775 105.447C-48.4827 105.419 -48.3119 105.436 -47.9651 105.497C-47.6184 105.558 -46.5986 105.6 -44.9059 105.625C-43.2132 105.649 -40.9998 105.285 -38.2659 104.534C-35.532 103.782 -32.664 102.866 -29.6617 101.785C-26.6595 100.705 -23.9591 99.7062 -21.5607 98.7891C-19.1622 97.872 -17.246 97.132 -15.812 96.5688C-14.378 96.0057 -13.0971 95.4922 -11.9692 95.0282C-10.8413 94.5641 -9.79132 94.1387 -8.81927 93.7519C-7.84721 93.3651 -6.94075 93.0356 -6.09988 92.7633C-5.25901 92.491 -4.47192 92.3533 -3.73861 92.3502C-3.00531 92.3471 -2.43444 92.6742 -2.02602 93.3316C-1.6176 93.989 -1.77561 95.0179 -2.50003 96.4182C-3.22446 97.8185 -4.39868 99.464 -6.0227 101.355C-7.64671 103.245 -9.48865 105.185 -11.5485 107.174C-13.6083 109.163 -15.6831 111.039 -17.7728 112.804C-19.8625 114.568 -21.9247 116.194 -23.9595 117.682C-25.9943 119.17 -27.9821 120.543 -29.9231 121.8C-31.8641 123.058 -33.7418 124.242 -35.5563 125.353C-37.3708 126.464 -39.1059 127.55 -40.7616 128.609C-42.4174 129.668 -43.9351 131.048 -45.3148 132.751C-46.6945 134.454 -47.3977 135.3 -47.4244 135.291M-47.4244 135.291C-47.4511 135.282 -47.4726 135.265 -47.4888 135.242C-47.505 135.218 -47.5128 135.192 -47.5123 135.164M-47.4244 135.291C-47.3977 135.3 -47.0841 135.304 -46.4837 135.303C-45.8832 135.302 -44.1483 135.198 -41.2788 134.992C-38.4093 134.785 -34.7634 134.21 -30.341 133.267C-25.9186 132.325 -21.3689 131.159 -16.692 129.77C-12.0151 128.382 -7.9249 127.005 -4.42152 125.639C-0.918136 124.273 1.63108 123.176 3.22614 122.349C4.82119 121.522 6.17547 120.721 7.28896 119.947C8.40245 119.173 9.44268 118.388 10.4096 117.593C11.3766 116.798 12.303 116.006 13.1889 115.218C14.0748 114.429 15.0642 113.62 16.157 112.791C17.2499 111.962 17.7948 111.533 17.7918 111.505M-47.5123 135.164C-47.5118 135.135 -47.2061 135.116 -46.5951 135.107C-45.9842 135.098 -44.2303 134.979 -41.3335 134.75C-38.4367 134.52 -34.7841 133.935 -30.3758 132.993C-25.9675 132.052 -21.4285 130.888 -16.7589 129.501C-12.0893 128.115 -8.00671 126.74 -4.51121 125.377C-1.01571 124.014 1.52531 122.921 3.11188 122.097C4.69844 121.274 6.04369 120.478 7.14763 119.71C8.25157 118.941 9.28413 118.162 10.2453 117.371C11.2065 116.58 12.1287 115.792 13.0121 115.006C13.8954 114.219 14.8888 113.419 15.9923 112.603C17.0958 111.788 17.6614 111.384 17.6891 111.389M17.6891 111.389C17.7167 111.395 17.74 111.409 17.7589 111.43C17.7779 111.451 17.7888 111.476 17.7918 111.505M17.6891 111.389C17.6614 111.384 17.5726 111.512 17.4227 111.775C17.2728 112.038 16.7929 112.825 15.983 114.135C15.1732 115.444 13.9812 117.215 12.407 119.448C10.8329 121.68 9.0406 124.152 7.03017 126.864C5.01975 129.575 2.99129 132.249 0.944785 134.887C-1.10172 137.524 -3.04931 139.907 -4.89798 142.036C-6.74666 144.164 -8.61986 146.153 -10.5176 148.001C-12.4153 149.85 -14.3722 151.624 -16.3883 153.324C-18.4044 155.024 -20.4916 156.703 -22.6501 158.36C-24.8085 160.017 -27.0596 161.706 -29.4034 163.429C-31.7472 165.151 -34.1526 166.901 -36.6196 168.677C-39.0866 170.453 -41.3571 172.079 -43.431 173.553C-45.505 175.028 -47.3333 176.341 -48.916 177.492C-50.4987 178.643 -51.8391 179.664 -52.9374 180.554C-54.0357 181.445 -54.8878 182.258 -55.4938 182.994C-56.0999 183.73 -56.3894 184.432 -56.3624 185.098C-56.3354 185.765 -55.953 186.331 -55.2151 186.798C-54.4773 187.264 -53.4994 187.637 -52.2816 187.915C-51.0637 188.193 -49.7608 188.392 -48.3728 188.511C-46.9849 188.63 -45.5454 188.661 -44.0544 188.603C-42.5633 188.544 -40.8199 188.318 -38.8241 187.922C-36.8282 187.527 -34.7225 186.928 -32.5069 186.124C-30.2912 185.32 -27.9473 184.332 -25.4751 183.159C-23.0029 181.987 -20.343 180.663 -17.4952 179.189C-14.6475 177.715 -11.8485 176.266 -9.09833 174.841C-6.34812 173.417 -4.35615 172.38 -3.12243 171.73C-1.88872 171.081 -0.908139 170.549 -0.180707 170.137C0.546726 169.725 1.14717 169.372 1.62063 169.078C2.09409 168.784 2.71543 168.445 3.48465 168.059C4.25387 167.673 4.63877 167.465 4.63935 167.437M17.7918 111.505C17.7948 111.533 17.7251 111.678 17.5828 111.938C17.4404 112.199 16.9751 112.981 16.1867 114.285C15.3984 115.588 14.2151 117.36 12.6368 119.599C11.0585 121.838 9.26345 124.314 7.25165 127.027C5.23986 129.741 3.21004 132.417 1.1622 135.056C-0.885639 137.695 -2.83553 140.081 -4.68747 142.213C-6.53941 144.346 -8.41684 146.339 -10.3198 148.193C-12.2227 150.047 -14.1846 151.827 -16.2055 153.531C-18.2264 155.236 -20.3177 156.918 -22.4794 158.577C-24.6411 160.237 -26.8946 161.928 -29.2399 163.652C-31.5853 165.376 -33.9918 167.126 -36.4595 168.903C-38.9273 170.679 -41.1983 172.305 -43.2727 173.78C-45.3471 175.255 -47.1751 176.568 -48.7569 177.718C-50.3386 178.869 -51.676 179.887 -52.7692 180.772C-53.8624 181.657 -54.707 182.452 -55.303 183.155C-55.899 183.858 -56.1841 184.504 -56.1582 185.092C-56.1322 185.68 -55.7605 186.19 -55.0429 186.62C-54.3253 187.051 -53.3711 187.399 -52.1803 187.664C-50.9896 187.929 -49.7066 188.12 -48.3313 188.237C-46.9559 188.355 -45.5278 188.384 -44.0469 188.326C-42.566 188.267 -40.835 188.042 -38.8539 187.648C-36.8727 187.254 -34.781 186.657 -32.5787 185.857C-30.3764 185.057 -28.0432 184.072 -25.579 182.903C-23.1149 181.733 -20.4605 180.412 -17.6157 178.94C-14.7709 177.467 -11.9735 176.018 -9.22329 174.594C-6.47311 173.17 -4.48153 172.133 -3.24854 171.484C-2.01555 170.834 -1.03659 170.304 -0.311635 169.893C0.413316 169.482 1.01097 169.131 1.48132 168.839C1.95166 168.547 2.57432 168.217 3.34929 167.848C4.12425 167.48 4.52508 167.3 4.55177 167.309M4.55177 167.309C4.57846 167.319 4.59987 167.335 4.61601 167.359C4.63215 167.382 4.63993 167.408 4.63935 167.437M4.55177 167.309C4.52508 167.3 4.38814 167.429 4.14095 167.695C3.89376 167.962 3.14208 168.742 1.88591 170.035C0.629735 171.328 -1.08673 173.005 -3.26349 175.066C-5.44025 177.126 -7.76077 179.284 -10.2251 181.539C-12.6894 183.794 -15.0099 185.887 -17.1868 187.816C-19.3637 189.745 -21.4021 191.483 -23.3021 193.029C-25.202 194.575 -27.065 196.001 -28.8912 197.305C-30.7173 198.61 -32.5335 199.833 -34.3398 200.976C-36.1461 202.118 -37.9504 203.212 -39.7528 204.257C-41.5552 205.302 -43.3684 206.324 -45.1924 207.324C-47.0165 208.324 -48.8756 209.306 -50.7699 210.271C-52.6642 211.235 -54.5641 212.169 -56.4695 213.073C-58.3749 213.977 -60.2378 214.861 -62.0581 215.727C-63.8784 216.592 -65.6032 217.456 -67.2325 218.318C-68.8618 219.18 -70.5631 220.524 -72.3363 222.348C-74.1095 224.173 -74.9973 225.099 -74.9995 225.128M4.63935 167.437C4.63877 167.465 4.51803 167.613 4.27711 167.88C4.0362 168.147 3.2965 168.928 2.05803 170.224C0.819556 171.519 -0.88992 173.199 -3.0704 175.263C-5.25088 177.327 -7.57386 179.487 -10.0394 181.744C-12.5048 184 -14.8266 186.093 -17.0047 188.023C-19.1827 189.953 -21.2232 191.693 -23.1261 193.242C-25.029 194.791 -26.8957 196.219 -28.7264 197.527C-30.5571 198.835 -32.3777 200.062 -34.1882 201.207C-35.9987 202.352 -37.8066 203.449 -39.612 204.495C-41.4174 205.542 -43.233 206.566 -45.059 207.567C-46.8849 208.567 -48.7462 209.551 -50.643 210.517C-52.5398 211.483 -54.442 212.418 -56.3497 213.323C-58.2574 214.228 -60.1214 215.113 -61.9415 215.978C-63.7617 216.844 -65.4842 217.706 -67.1091 218.565C-68.7339 219.425 -70.4354 220.758 -72.2134 222.566C-73.9915 224.373 -74.8935 225.271 -74.9196 225.26M-74.9196 225.26C-74.9457 225.249 -74.9661 225.232 -74.9809 225.207C-74.9956 225.183 -75.0018 225.156 -74.9995 225.128M-74.9196 225.26C-74.8935 225.271 -74.6947 225.363 -74.323 225.535C-73.9514 225.707 -72.7817 226.085 -70.8141 226.669C-68.8464 227.253 -66.0129 227.656 -62.3137 227.878C-58.6144 228.099 -54.4417 228.25 -49.7958 228.329C-45.1498 228.408 -40.8402 228.527 -36.867 228.685C-32.8938 228.843 -30.4716 229.125 -29.6006 229.531C-28.7295 229.937 -28.4868 230.61 -28.8724 231.55C-29.258 232.49 -29.9806 233.643 -31.0403 235.011C-32.0999 236.378 -33.3415 237.902 -34.7651 239.583C-36.1886 241.263 -37.5608 242.896 -38.8815 244.483C-40.2023 246.069 -41.1125 247.255 -41.6122 248.042C-42.1118 248.829 -42.3858 249.474 -42.434 249.977C-42.4821 250.481 -42.3773 250.904 -42.1195 251.249C-41.8617 251.593 -41.5041 251.876 -41.0467 252.098C-40.5893 252.32 -39.8933 252.494 -38.9587 252.62C-38.0242 252.746 -36.4748 252.789 -34.3108 252.75C-32.1467 252.711 -29.8631 252.469 -27.46 252.023C-25.057 251.577 -22.6169 250.954 -20.1398 250.154C-17.6626 249.354 -15.1284 248.44 -12.5371 247.411C-9.94577 246.383 -7.44203 245.373 -5.02586 244.383C-2.60969 243.393 -0.707329 242.615 0.681212 242.05C2.06975 241.484 3.29157 240.978 4.34666 240.533C5.40176 240.087 6.36816 239.665 7.24586 239.268C8.12356 238.87 8.92343 238.489 9.64548 238.126C10.3675 237.762 11.1896 237.406 12.1118 237.056C13.034 236.706 13.4967 236.517 13.5001 236.489M-74.9995 225.128C-74.9973 225.099 -74.801 225.168 -74.4107 225.335C-74.0204 225.502 -72.8171 225.869 -70.8007 226.435C-68.7843 227.002 -65.9381 227.393 -62.2619 227.609C-58.5858 227.825 -54.4267 227.972 -49.7848 228.051C-45.1429 228.13 -40.824 228.263 -36.8283 228.45C-32.8326 228.636 -30.3673 228.975 -29.4322 229.467C-28.4972 229.959 -28.2245 230.68 -28.6142 231.631C-29.004 232.581 -29.7345 233.752 -30.806 235.144C-31.8774 236.536 -33.1263 238.074 -34.5526 239.758C-35.979 241.442 -37.3518 243.076 -38.6713 244.66C-39.9907 246.245 -40.8967 247.421 -41.3892 248.189C-41.8817 248.958 -42.1494 249.569 -42.1921 250.022C-42.2348 250.476 -42.1356 250.85 -41.8943 251.146C-41.6531 251.442 -41.3179 251.688 -40.8887 251.885C-40.4596 252.082 -39.7882 252.24 -38.8746 252.359C-37.961 252.478 -36.4317 252.517 -34.2866 252.476C-32.1415 252.435 -29.8749 252.192 -27.4869 251.748C-25.0988 251.304 -22.6718 250.683 -20.206 249.885C-17.7402 249.088 -15.2144 248.176 -12.6287 247.149C-10.043 246.123 -7.54256 245.115 -5.1273 244.125C-2.71204 243.135 -0.810094 242.358 0.57854 241.792C1.96718 241.226 3.18849 240.721 4.24249 240.276C5.29649 239.831 6.26126 239.41 7.13679 239.013C8.01232 238.616 8.8096 238.237 9.52864 237.875C10.2477 237.513 11.0705 237.166 11.9971 236.834C12.9238 236.501 13.3999 236.341 13.4256 236.353M13.4256 236.353C13.4512 236.365 13.4709 236.384 13.4846 236.409C13.4984 236.434 13.5035 236.461 13.5001 236.489M13.4256 236.353C13.3999 236.341 13.2944 236.474 13.1089 236.751C12.9234 237.029 12.3404 237.843 11.3598 239.195C10.3792 240.546 8.96989 242.33 7.13178 244.544C5.29367 246.759 3.23608 249.187 0.958993 251.828C-1.31809 254.469 -3.4975 256.992 -5.57924 259.397C-7.66097 261.801 -9.34229 263.757 -10.6232 265.265C-11.9041 266.772 -13.0204 268.123 -13.9721 269.316C-14.9238 270.509 -15.7507 271.617 -16.4526 272.642C-17.1545 273.666 -17.7217 274.626 -18.1543 275.523C-18.5869 276.419 -18.7753 277.329 -18.7195 278.252C-18.6638 279.175 -18.0529 280.099 -16.8869 281.023C-15.7208 281.947 -13.9474 282.235 -11.5665 281.887C-9.18557 281.539 -6.40211 280.659 -3.2161 279.246C-0.0300822 277.833 3.29034 276.171 6.74519 274.261C10.2 272.351 13.3953 270.546 16.331 268.847C19.2666 267.147 21.5516 265.8 23.1859 264.806C24.8202 263.812 26.3282 262.869 27.7099 261.976C29.0917 261.084 30.4803 260.165 31.8757 259.22C33.2711 258.274 34.7089 257.281 36.1892 256.239C37.6694 255.197 39.1123 254.161 40.5177 253.131C41.9231 252.101 43.0818 251.215 43.9936 250.474C44.9055 249.733 45.7718 248.994 46.5925 248.258C47.4132 247.521 48.6504 246.347 50.3042 244.735C51.958 243.124 52.792 242.298 52.8061 242.258C52.8202 242.219 52.8156 242.182 52.7923 242.147C52.769 242.112 52.7366 242.094 52.6951 242.093C52.6536 242.091 52.6201 242.107 52.5946 242.14C52.5692 242.174 52.5622 242.21 52.5737 242.251C52.5853 242.291 52.6106 242.318 52.6496 242.333C52.6887 242.347 52.7254 242.342 52.7597 242.319C52.7941 242.295 52.8119 242.262 52.8133 242.22C52.8146 242.178 52.7989 242.144 52.7661 242.119C52.7334 242.093 52.697 242.086 52.6571 242.097C52.6173 242.109 51.7714 242.92 50.1195 244.53C48.4676 246.14 47.233 247.312 46.4156 248.046C45.5982 248.779 44.7353 249.515 43.8268 250.254C42.9184 250.992 41.7623 251.876 40.3586 252.905C38.9549 253.934 37.5136 254.969 36.0347 256.01C34.5558 257.05 33.1194 258.043 31.7257 258.987C30.3319 259.931 28.9452 260.849 27.5654 261.74C26.1857 262.631 24.6795 263.573 23.0468 264.567C21.4142 265.56 19.1309 266.906 16.1969 268.605C13.2629 270.303 10.0722 272.106 6.62481 274.012C3.17739 275.919 -0.127047 277.576 -3.28849 278.983C-6.44994 280.39 -9.20084 281.275 -11.5412 281.637C-13.8816 281.999 -15.6126 281.747 -16.7344 280.879C-17.8561 280.012 -18.4408 279.143 -18.4883 278.272C-18.5359 277.401 -18.3463 276.527 -17.9195 275.65C-17.4927 274.773 -16.9304 273.825 -16.2326 272.807C-15.5348 271.788 -14.711 270.684 -13.7611 269.493C-12.8113 268.303 -11.6962 266.954 -10.4159 265.447C-9.13559 263.94 -7.45453 261.984 -5.3727 259.579C-3.29087 257.175 -1.11082 254.651 1.16747 252.009C3.44575 249.366 5.50646 246.934 7.3496 244.712C9.19274 242.491 10.5901 240.709 11.5417 239.366C12.4933 238.024 13.0568 237.216 13.2321 236.942C13.4074 236.668 13.4967 236.517 13.5001 236.489" stroke="#053F28" stroke-width="2" stroke-linecap="round"/>
        <path d="M77.0448 200.841C77.0475 200.873 77.5448 201.362 78.5369 202.307C79.529 203.253 80.5011 204.071 81.4534 204.762C82.4057 205.454 83.5294 206.248 84.8247 207.144C86.12 208.041 87.6085 208.987 89.2902 209.981C90.972 210.976 92.9011 211.983 95.0778 213.002C97.2544 214.022 99.8641 215.09 102.907 216.206C105.95 217.322 109.159 218.371 112.535 219.353C115.911 220.335 119.35 221.232 122.852 222.043C126.354 222.854 129.883 223.607 133.44 224.301C136.997 224.996 140.363 225.629 143.536 226.202C146.71 226.775 148.768 227.178 149.711 227.41C150.653 227.642 151.136 227.817 151.158 227.936C151.181 228.055 151.075 228.197 150.841 228.364C150.607 228.531 150.208 228.705 149.644 228.884C149.081 229.064 148.141 229.228 146.825 229.375C145.509 229.522 142.882 229.651 138.944 229.759C135.007 229.868 130.561 229.74 125.607 229.376C120.653 229.011 115.928 228.57 111.43 228.052C106.932 227.534 103.118 227.228 99.988 227.134C96.8577 227.041 94.7179 227.331 93.5687 228.005C92.4195 228.679 91.9207 229.445 92.0721 230.304C92.2236 231.163 92.5863 232.076 93.1601 233.045C93.734 234.014 94.4206 235.038 95.22 236.117C96.0195 237.195 96.9482 238.285 98.0063 239.387C99.0644 240.488 100.318 241.562 101.767 242.609C103.216 243.656 105.125 244.677 107.494 245.673C109.862 246.669 112.481 247.507 115.351 248.187C118.22 248.867 121.012 249.495 123.726 250.073C126.441 250.65 128.79 251.344 130.776 252.155C132.761 252.965 134.187 253.931 135.055 255.052C135.923 256.172 136.374 256.935 136.407 257.34C136.44 257.745 136.306 258.035 136.006 258.211C135.705 258.386 135.288 258.553 134.755 258.711C134.221 258.869 133.518 258.988 132.644 259.067C131.769 259.146 130.519 259.147 128.893 259.068C127.268 258.99 124.46 258.735 120.47 258.305C116.48 257.874 112.2 257.265 107.63 256.476C103.059 255.688 98.417 254.724 93.7035 253.585C88.9899 252.446 86.6332 251.877 86.6332 251.877C86.6332 251.877 84.0802 251.152 78.9742 249.703C73.8682 248.254 71.3152 247.529 71.3152 247.529L52.6039 241.968C52.5816 241.988 52.5668 242.014 52.5594 242.045C52.5519 242.076 52.5534 242.106 52.5636 242.136C52.5738 242.166 52.591 242.19 52.615 242.207C52.6389 242.225 55.7497 243.166 61.9471 245.031C68.1445 246.897 73.7968 248.554 78.9041 250.004C84.0114 251.453 88.9234 252.748 93.6402 253.888C98.357 255.027 103.003 255.992 107.579 256.782C112.155 257.571 116.441 258.182 120.436 258.613C124.432 259.045 127.245 259.3 128.877 259.378C130.508 259.457 131.767 259.457 132.653 259.377C133.539 259.297 134.257 259.176 134.807 259.014C135.357 258.852 135.795 258.667 136.12 258.459C136.445 258.252 136.604 257.901 136.596 257.408C136.589 256.915 136.146 256.085 135.266 254.919C134.386 253.753 132.937 252.75 130.921 251.91C128.904 251.07 126.531 250.358 123.801 249.775C121.072 249.193 118.273 248.561 115.406 247.882C112.539 247.203 109.928 246.368 107.574 245.378C105.22 244.387 103.327 243.373 101.894 242.336C100.462 241.298 99.223 240.234 98.1774 239.144C97.1318 238.054 96.2134 236.974 95.4221 235.905C94.6309 234.836 93.9505 233.83 93.3811 232.888C92.8117 231.946 92.4474 231.082 92.2883 230.299C92.1291 229.515 92.6075 228.81 93.7233 228.186C94.8392 227.561 96.944 227.305 100.038 227.417C103.131 227.53 106.923 227.845 111.413 228.362C115.903 228.88 120.627 229.321 125.584 229.685C130.542 230.05 134.994 230.178 138.94 230.07C142.887 229.961 145.522 229.833 146.847 229.684C148.171 229.536 149.125 229.367 149.709 229.178C150.293 228.989 150.714 228.783 150.973 228.56C151.231 228.336 151.346 228.109 151.315 227.879C151.285 227.648 150.792 227.407 149.835 227.154C148.878 226.902 146.803 226.486 143.61 225.906C140.417 225.326 137.042 224.689 133.486 223.995C129.93 223.301 126.403 222.548 122.904 221.738C119.405 220.927 115.97 220.031 112.598 219.05C109.227 218.07 106.023 217.022 102.986 215.908C99.9488 214.794 97.3455 213.729 95.1757 212.712C93.0059 211.695 91.0839 210.691 89.4096 209.701C87.7353 208.71 86.2532 207.769 84.9632 206.875C83.6733 205.982 82.553 205.19 81.6023 204.5C80.6516 203.81 79.6741 203 78.6698 202.069C77.6656 201.138 77.1503 200.679 77.124 200.692M77.0448 200.841C77.0421 200.809 77.0481 200.78 77.0627 200.752C77.0773 200.725 77.0977 200.705 77.124 200.692M77.0448 200.841C77.0475 200.873 77.3099 200.859 77.8322 200.798C78.3545 200.738 79.8948 200.602 82.4531 200.392C85.0114 200.182 88.3595 200.007 92.4974 199.869C96.6354 199.73 100.941 199.502 105.414 199.184C109.887 198.866 113.773 198.433 117.072 197.884C120.371 197.334 122.642 196.901 123.885 196.583C125.128 196.266 126.08 195.985 126.741 195.74C127.402 195.496 127.948 195.261 128.378 195.037C128.807 194.813 129.159 194.584 129.431 194.348C129.703 194.112 129.851 193.753 129.875 193.27C129.899 192.787 129.608 192.018 129.003 190.962C128.398 189.905 127.366 188.995 125.909 188.229C124.451 187.464 122.664 186.843 120.546 186.368C118.429 185.892 116.124 185.448 113.63 185.038C111.137 184.628 108.653 184.109 106.177 183.482C103.702 182.855 101.451 182.037 99.425 181.027C97.3989 180.018 95.4756 178.938 93.6552 177.788C91.8347 176.639 90.0913 175.442 88.425 174.198C86.7587 172.954 85.1651 171.661 83.6442 170.319C82.1234 168.977 80.7424 167.664 79.5013 166.382C78.2601 165.099 77.2955 164.046 76.6075 163.222C75.9194 162.398 75.2923 161.613 74.7261 160.866C74.1599 160.119 73.2922 158.96 72.123 157.391C70.9538 155.821 70.35 155.027 70.3114 155.008C70.2728 154.989 70.2354 154.992 70.1992 155.016C70.163 155.04 70.1429 155.075 70.1389 155.122C70.1349 155.169 70.1487 155.208 70.1802 155.239C70.2117 155.27 70.248 155.281 70.2891 155.27C70.3301 155.26 70.359 155.233 70.3757 155.19C70.3924 155.147 70.3901 155.105 70.3687 155.065C70.3473 155.024 70.3157 155.002 70.2739 154.997C70.232 154.993 70.1972 155.008 70.1693 155.043C70.1415 155.079 70.1322 155.119 70.1413 155.165C70.1505 155.211 70.74 156.019 71.91 157.59C73.08 159.161 73.9495 160.322 74.5185 161.072C75.0876 161.823 75.7183 162.612 76.4109 163.441C77.1035 164.27 78.0733 165.329 79.3203 166.617C80.5674 167.905 81.9543 169.223 83.4811 170.57C85.0079 171.917 86.6074 173.215 88.2795 174.463C89.9517 175.71 91.7019 176.911 93.5302 178.065C95.3585 179.219 97.2939 180.304 99.3365 181.32C101.379 182.335 103.642 183.157 106.125 183.787C108.608 184.416 111.094 184.935 113.582 185.344C116.071 185.754 118.363 186.192 120.46 186.659C122.556 187.126 124.318 187.725 125.745 188.457C127.172 189.189 128.183 190.053 128.778 191.05C129.373 192.047 129.669 192.753 129.666 193.168C129.662 193.584 129.534 193.897 129.281 194.107C129.028 194.318 128.691 194.533 128.272 194.751C127.853 194.97 127.317 195.2 126.664 195.442C126.012 195.684 125.067 195.963 123.831 196.279C122.595 196.595 120.331 197.027 117.041 197.575C113.75 198.123 109.87 198.556 105.401 198.874C100.931 199.191 96.6241 199.419 92.4801 199.559C88.3361 199.698 85.0023 199.884 82.4787 200.118C79.9552 200.351 78.4384 200.502 77.9284 200.57C77.4184 200.639 77.1503 200.679 77.124 200.692" stroke="#053F28" stroke-width="2" stroke-linecap="round"/>
        <path d="M123.718 159.749C123.695 159.734 123.489 159.832 123.101 160.044C122.714 160.256 122.256 160.422 121.727 160.542C121.198 160.662 120.49 160.761 119.602 160.839C118.715 160.917 117.459 160.949 115.834 160.934C114.209 160.92 111.47 160.813 107.618 160.614C103.766 160.415 99.864 160.114 95.9117 159.712C91.9594 159.309 88.3194 158.813 84.9917 158.222C81.664 157.632 80.0002 157.336 80.0002 157.336C80.0002 157.336 78.5857 156.967 75.7567 156.229C72.9277 155.49 71.5132 155.121 71.5132 155.121L63.2098 152.368C63.1868 152.385 63.1708 152.407 63.1619 152.434C63.1529 152.461 63.1527 152.488 63.1612 152.515C63.1697 152.543 63.1853 152.565 63.208 152.582C63.2307 152.599 64.6061 153.07 67.3341 153.996C70.0622 154.921 72.8437 155.754 75.6787 156.495C78.5137 157.235 81.5986 157.901 84.9333 158.493C88.2679 159.086 91.9148 159.583 95.8737 159.987C99.8327 160.39 103.741 160.691 107.598 160.891C111.455 161.091 114.198 161.198 115.828 161.212C117.457 161.226 118.72 161.194 119.616 161.116C120.512 161.037 121.231 160.937 121.773 160.814C122.315 160.691 122.783 160.514 123.175 160.282C123.567 160.051 123.767 159.922 123.774 159.894M123.718 159.749C123.742 159.765 123.759 159.786 123.769 159.812C123.78 159.839 123.781 159.866 123.774 159.894M123.718 159.749C123.695 159.734 123.56 159.629 123.314 159.435C123.068 159.241 122.381 158.775 121.255 158.039C120.129 157.303 118.752 156.649 117.126 156.079C115.501 155.509 113.749 155.007 111.873 154.574C109.997 154.14 108.075 153.667 106.108 153.156C104.142 152.644 102.172 151.989 100.198 151.188C98.2241 150.388 96.2265 149.445 94.2049 148.358C92.1832 147.271 90.1903 146.147 88.2261 144.986C86.2618 143.825 84.3398 142.64 82.4599 141.43C80.5801 140.22 78.7445 138.974 76.9531 137.692C75.1617 136.41 73.4392 135.086 71.7855 133.721C70.1318 132.355 68.6283 130.968 67.2749 129.559C65.9216 128.149 64.7348 126.727 63.7147 125.291C62.6945 123.855 61.8331 122.453 61.1304 121.086C60.4277 119.719 59.8703 118.446 59.4581 117.268C59.0459 116.089 58.8374 115.009 58.8325 114.028C58.8276 113.047 59.3073 112.161 60.2717 111.372C61.2361 110.582 62.8803 110.254 65.2041 110.387C67.5279 110.519 70.4306 110.979 73.9121 111.764C77.3936 112.55 81.2762 113.397 85.5599 114.305C89.8436 115.214 93.926 115.935 97.807 116.467C101.688 117 104.267 117.308 105.545 117.391C106.823 117.474 107.621 117.441 107.938 117.292C108.256 117.143 108.26 116.923 107.951 116.633C107.642 116.343 107.153 116.058 106.485 115.778C105.817 115.499 104.715 115.019 103.179 114.338C101.642 113.657 100.007 112.852 98.2743 111.923C96.5412 110.995 94.7878 109.989 93.014 108.906C91.2402 107.823 89.4609 106.702 87.676 105.543C85.8912 104.385 84.1281 103.231 82.3868 102.081C80.6455 100.931 79.0095 99.8167 77.4789 98.7391C75.9482 97.6616 74.53 96.6017 73.2242 95.5593C71.9184 94.517 70.7282 93.5108 69.6538 92.5408C68.5793 91.5709 67.6238 90.6659 66.7871 89.8259C65.9504 88.9859 65.2149 87.9351 64.5805 86.6738C63.9462 85.4124 63.615 84.7834 63.587 84.787M123.774 159.894C123.767 159.922 123.63 159.839 123.363 159.646C123.097 159.453 122.372 158.991 121.19 158.261C120.008 157.53 118.613 156.885 117.007 156.325C115.401 155.766 113.664 155.27 111.797 154.84C109.931 154.409 108.013 153.938 106.044 153.426C104.075 152.913 102.098 152.255 100.113 151.451C98.1283 150.648 96.1206 149.7 94.0899 148.609C92.0592 147.519 90.0601 146.392 88.0926 145.229C86.1251 144.066 84.1999 142.879 82.3171 141.667C80.4344 140.455 78.5954 139.207 76.8003 137.922C75.0052 136.638 73.2782 135.311 71.6194 133.941C69.9607 132.572 68.4507 131.179 67.0895 129.762C65.7284 128.346 64.5334 126.914 63.5046 125.467C62.4759 124.021 61.6067 122.608 60.8971 121.23C60.1875 119.852 59.6245 118.565 59.208 117.369C58.7915 116.173 58.5856 115.064 58.5905 114.042C58.5953 113.019 59.1009 112.084 60.1072 111.236C61.1135 110.389 62.797 110.022 65.1576 110.137C67.5183 110.252 70.4478 110.704 73.9461 111.491C77.4445 112.278 81.3351 113.126 85.6179 114.034C89.9007 114.943 93.9789 115.662 97.8526 116.194C101.726 116.725 104.289 117.043 105.54 117.147C106.791 117.251 107.545 117.272 107.802 117.209C108.059 117.146 108.049 117.002 107.771 116.777C107.492 116.552 107.024 116.302 106.366 116.027C105.708 115.753 104.609 115.275 103.072 114.593C101.534 113.912 99.8949 113.105 98.1556 112.173C96.4163 111.242 94.6575 110.233 92.8791 109.147C91.1008 108.062 89.3182 106.939 87.5312 105.779C85.7442 104.62 83.9797 103.464 82.2378 102.314C80.4958 101.163 78.8584 100.048 77.3254 98.9693C75.7925 97.8902 74.3709 96.8278 73.0607 95.7821C71.7505 94.7364 70.556 93.7268 69.4773 92.7532C68.3986 91.7796 67.4386 90.8701 66.5973 90.0247C65.7561 89.1792 65.024 88.1196 64.4012 86.8459C63.7784 85.5721 63.4697 84.9212 63.475 84.8931M63.475 84.8931C63.4804 84.865 63.4933 84.8411 63.514 84.8216C63.5346 84.802 63.559 84.7905 63.587 84.787M63.475 84.8931C63.4697 84.9212 63.6346 84.9223 63.9697 84.8966C64.3048 84.8708 65.2756 84.8646 66.882 84.878C68.4884 84.8913 70.5639 85.1142 73.1086 85.5466C75.6533 85.979 78.3983 86.5187 81.3437 87.1659C84.2891 87.813 87.0306 88.4181 89.5681 88.9813C92.1057 89.5444 94.0942 89.9403 95.5338 90.169C96.9735 90.3977 98.3022 90.5459 99.5202 90.6136C100.738 90.6813 101.908 90.6995 103.03 90.6682C104.153 90.6368 105.198 90.5732 106.166 90.4772C107.134 90.3813 107.977 90.2636 108.693 90.1243C109.41 89.985 109.968 89.8205 110.369 89.6308C110.77 89.441 111.02 89.2215 111.118 88.9721C111.217 88.7227 111.186 88.4673 111.027 88.2057C110.867 87.9442 110.622 87.6835 110.29 87.4235C109.957 87.1636 109.458 86.8486 108.791 86.4786C108.124 86.1086 107.036 85.5444 105.527 84.786C104.018 84.0276 102.398 83.2332 100.669 82.4029C98.9397 81.5726 97.1797 80.7488 95.3891 79.9315C93.5984 79.1142 91.7995 78.3175 89.9923 77.5412C88.1852 76.7649 86.3383 75.9641 84.4516 75.1388C82.565 74.3134 80.5506 73.2888 78.4083 72.065C76.266 70.8411 74.0906 69.3634 71.8819 67.6318C69.6733 65.9002 67.4864 63.9848 65.321 61.8856C63.1557 59.7864 61.0588 57.6057 59.0303 55.3434C57.0017 53.081 55.1179 50.8594 53.3788 48.6785C51.6398 46.4976 50.1307 44.4474 48.8517 42.5277C47.5728 40.608 46.3791 38.7208 45.2708 36.8661C44.1624 35.0114 43.0901 33.1646 42.0539 31.3257C41.0176 29.4869 39.9916 27.6494 38.9758 25.8134C37.96 23.9774 37.0074 22.2695 36.118 20.6896C35.2287 19.1097 34.5539 17.9435 34.0937 17.191C33.6335 16.4385 33.2102 15.7726 32.8239 15.1932C32.4375 14.6138 31.8442 13.7774 31.044 12.684C30.2437 11.5906 29.8252 11.0342 29.7883 11.0148C29.7515 10.9954 29.7145 10.9951 29.6774 11.0138C29.6402 11.0326 29.6182 11.0627 29.6113 11.1041C29.6045 11.1456 29.6156 11.1813 29.6447 11.2113C29.6738 11.2413 29.7089 11.2532 29.7499 11.247C29.791 11.2408 29.8211 11.219 29.8403 11.1817C29.8595 11.1444 29.8598 11.107 29.8413 11.0694C29.8227 11.0317 29.793 11.0095 29.7521 11.0025C29.7111 10.9956 29.6758 11.0068 29.6462 11.0363C29.6166 11.0658 29.6049 11.1013 29.611 11.1429C29.6171 11.1844 30.0197 11.7509 30.8186 12.8423C31.6175 13.9337 32.2092 14.7677 32.5937 15.3442C32.9783 15.9207 33.3998 16.5838 33.8584 17.3336C34.317 18.0834 34.9907 19.2477 35.8795 20.8267C36.7683 22.4057 37.7208 24.1135 38.7369 25.9501C39.7531 27.7868 40.7799 29.6255 41.8174 31.4664C42.8548 33.3073 43.9289 35.157 45.0397 37.0155C46.1504 38.874 47.3475 40.7662 48.631 42.692C49.9145 44.6178 51.4276 46.6733 53.1703 48.8586C54.9129 51.0438 56.8008 53.2699 58.8339 55.5369C60.8669 57.8039 62.9698 59.9902 65.1425 62.0957C67.3152 64.2012 69.5115 66.1235 71.7313 67.8624C73.9511 69.6014 76.1365 71.085 78.2873 72.3134C80.4382 73.5417 82.4571 74.5686 84.344 75.3941C86.231 76.2197 88.0771 77.0202 89.8824 77.7956C91.6877 78.5711 93.4849 79.3671 95.2739 80.1836C97.0629 81.0001 98.8214 81.8232 100.549 82.6527C102.277 83.4823 103.893 84.275 105.397 85.0307C106.902 85.7865 107.982 86.3459 108.639 86.7089C109.296 87.072 109.781 87.3717 110.094 87.6081C110.407 87.8445 110.641 88.0719 110.796 88.2902C110.951 88.5084 110.995 88.7078 110.927 88.8883C110.86 89.0687 110.639 89.2406 110.266 89.4038C109.893 89.5671 109.354 89.7168 108.648 89.8529C107.943 89.9891 107.11 90.1049 106.148 90.2004C105.187 90.2959 104.148 90.3594 103.034 90.3908C101.919 90.4223 100.757 90.4047 99.5481 90.3379C98.3391 90.2711 97.0174 90.1238 95.5832 89.8961C94.149 89.6683 92.1632 89.2729 89.6259 88.7098C87.0887 88.1467 84.345 87.5411 81.3951 86.8932C78.4452 86.2452 75.6886 85.7047 73.1255 85.2717C70.5625 84.8387 68.4986 84.6308 66.934 84.648C65.3694 84.6652 64.4274 84.6918 64.1081 84.7277C63.7887 84.7637 63.615 84.7834 63.587 84.787" stroke="#053F28" stroke-width="2" stroke-linecap="round"/>
        <path d="M26.6952 269.372C25.8072 269.324 24.9192 269.276 24.0311 269.228C23.9708 270.347 23.9106 271.462 23.8503 272.582C23.7899 273.702 23.7297 274.817 23.6694 275.936L23.6688 275.948C23.6015 277.455 23.5343 278.957 23.4669 280.465C23.4335 281.212 23.4026 281.958 23.3737 282.705C23.2697 285.402 23.1914 288.097 23.1277 290.793C23.037 294.645 22.9957 298.498 23.0051 302.352C23.0245 305.015 23.0077 307.623 23.2614 310.402C23.4137 311.524 23.4608 312.583 24.172 313.972C24.535 314.599 25.0972 315.321 26.0302 315.706C26.6827 315.974 27.3975 316.088 28.0682 316.069C28.6944 316.053 29.3153 315.979 29.9198 315.857C30.4879 315.742 31.0531 315.611 31.6143 315.464C32.1518 315.323 32.6892 315.182 33.2265 315.04C33.7603 314.899 34.296 314.764 34.8333 314.635C35.3768 314.505 35.9235 314.384 36.4728 314.274C37.0403 314.159 37.611 314.056 38.1842 313.962C38.8088 313.86 39.4312 313.748 40.0512 313.628C40.7841 313.487 41.495 313.26 42.1665 312.968C43.0326 312.591 43.745 312.037 44.3426 311.443C45.209 310.566 45.7521 309.608 46.2218 308.657C46.9232 307.193 47.3447 305.731 47.7099 304.27C48.2284 302.144 48.5534 300.025 48.8184 297.907C49.1641 295.102 49.3931 292.299 49.567 289.497C49.7901 285.735 49.8957 281.997 49.9964 278.26C50.026 277.12 50.0551 275.981 50.0839 274.839C50.1258 273.172 50.171 271.507 50.218 269.842C50.2415 269.014 50.2656 268.177 50.2904 267.348C50.3029 266.933 50.3157 266.514 50.329 266.103C50.3357 265.893 50.3425 265.689 50.3499 265.484C50.3537 265.379 50.3574 265.281 50.3616 265.178C50.3636 265.132 50.3659 265.078 50.3681 265.034C50.3694 265.008 50.3702 264.993 50.3716 264.971C50.3721 264.963 50.3725 264.957 50.3727 264.955C50.3727 264.955 50.3725 264.959 50.3716 264.969C50.3707 264.977 50.3718 264.971 50.3665 265.012C50.3636 265.032 50.3605 265.057 50.3489 265.111C50.3255 265.178 50.3551 265.218 50.1754 265.542C50.0136 265.859 49.4981 266.127 49.2605 266.126C49.0176 266.178 48.4927 266.035 48.2754 265.795C48.393 265.906 48.5813 266.048 48.8654 266.126C49.1459 266.207 49.502 266.177 49.7462 266.071C50.2445 265.844 50.3442 265.594 50.4269 265.473C50.5613 265.218 50.5543 265.156 50.574 265.092C50.5974 264.981 50.597 264.955 50.6008 264.926C50.6057 264.875 50.6061 264.858 50.6071 264.839C50.6088 264.805 50.6095 264.774 50.6097 264.771C50.6103 264.751 50.6108 264.73 50.6113 264.707C50.6123 264.663 50.6133 264.6 50.6138 264.571C50.615 264.501 50.6163 264.388 50.6172 264.318C50.619 264.166 50.6207 263.981 50.622 263.827C50.6249 263.486 50.6271 263.159 50.629 262.84C50.6328 262.186 50.6354 261.517 50.637 260.871C50.6429 258.486 50.6447 256.118 50.6455 253.74C50.6458 252.552 50.6459 251.36 50.6457 250.178C50.6455 249.57 50.6453 249.002 50.645 248.393C50.6448 248.093 50.6446 247.803 50.6442 247.499C50.6441 247.374 50.6438 247.183 50.6436 247.06C50.6434 246.975 50.6432 246.896 50.643 246.833C50.643 246.808 50.6427 246.743 50.6426 246.711C50.6425 246.693 50.6424 246.676 50.6423 246.662C50.6423 246.663 50.6421 246.628 50.6418 246.614C50.6417 246.605 50.6416 246.598 50.6411 246.58C50.6407 246.569 50.6409 246.562 50.6381 246.52C50.6339 246.489 50.6425 246.491 50.6093 246.321C50.5964 246.271 50.589 246.211 50.5202 246.052C50.4813 245.971 50.432 245.854 50.271 245.676C50.1243 245.509 49.7107 245.192 49.1465 245.24C48.5903 245.294 48.3067 245.601 48.1838 245.748C48.0548 245.912 48.0159 246.011 47.9832 246.084C47.9254 246.227 47.9176 246.282 47.9062 246.329C47.8743 246.498 47.883 246.493 47.879 246.523C47.8775 246.544 47.8771 246.554 47.8768 246.562C47.8761 246.578 47.876 246.585 47.8758 246.592C47.8755 246.605 47.8754 246.613 47.8753 246.623C47.8751 246.641 47.8748 246.669 47.8748 246.673C47.8747 246.691 47.8745 246.712 47.8744 246.736C47.8741 246.786 47.8738 246.844 47.8737 246.881C47.8733 246.962 47.8728 247.085 47.8726 247.16C47.8719 247.344 47.8714 247.527 47.8708 247.716C47.8631 250.594 47.8564 253.479 47.8468 256.355C47.8421 257.791 47.8369 259.239 47.8304 260.67C47.8271 261.395 47.8235 262.113 47.8191 262.829C47.8168 263.193 47.8143 263.547 47.8112 263.908C47.8096 264.087 47.8079 264.269 47.8057 264.442C47.8049 264.512 47.8033 264.632 47.8019 264.705C47.8014 264.738 47.8004 264.793 47.7993 264.833C47.7988 264.852 47.7984 264.868 47.798 264.878C47.798 264.88 47.7971 264.899 47.7978 264.886C47.7983 264.879 47.7983 264.869 47.8033 264.824C47.8065 264.8 47.8084 264.772 47.826 264.689C47.8365 264.645 47.8464 264.591 47.8939 264.47C47.92 264.407 47.9529 264.327 48.0386 264.2C48.1273 264.081 48.2678 263.875 48.645 263.708C48.8914 263.579 49.4206 263.591 49.6655 263.737C49.7838 263.795 49.9521 263.902 50.0992 264.089C50.2482 264.273 50.3376 264.518 50.36 264.696C50.3875 264.869 50.374 265.135 50.274 265.367C50.1767 265.602 50.0274 265.762 49.9191 265.852C49.6923 266.075 49.1633 266.191 48.9174 266.125C48.6791 266.114 48.1653 265.811 48.0213 265.475C47.8668 265.149 47.897 265.114 47.878 265.048C47.8696 264.995 47.8678 264.971 47.866 264.952C47.8628 264.912 47.8636 264.918 47.8631 264.911C47.8626 264.901 47.8626 264.898 47.8626 264.898C47.8626 264.9 47.8627 264.906 47.8628 264.915C47.863 264.938 47.863 264.953 47.8631 264.979C47.863 265.023 47.8627 265.077 47.8624 265.124C47.8615 265.226 47.8604 265.324 47.859 265.43C47.8563 265.635 47.853 265.84 47.8495 266.049C47.8425 266.461 47.8346 266.88 47.8265 267.296C47.8102 268.125 47.7927 268.962 47.7751 269.791C47.7395 271.457 47.7024 273.123 47.6651 274.79C47.6476 275.569 47.6293 276.348 47.6101 277.127C47.505 281.214 47.3958 285.307 47.1569 289.352C46.9849 292.122 46.7578 294.885 46.4198 297.619C46.1616 299.683 45.8403 301.737 45.3564 303.705C45.0139 305.079 44.6005 306.438 44.0283 307.607C43.6246 308.426 43.1458 309.192 42.6095 309.717C42.1581 310.16 41.6733 310.514 41.1868 310.723C40.6637 310.948 40.1305 311.119 39.5944 311.223C38.9997 311.339 38.4041 311.446 37.8081 311.543C37.2075 311.641 36.6077 311.75 36.0091 311.87C35.4317 311.987 34.8557 312.114 34.2816 312.252C33.7262 312.385 33.172 312.525 32.6193 312.67C32.0804 312.813 31.5414 312.954 31.0022 313.095C30.4808 313.232 29.9538 313.352 29.4225 313.457C28.9433 313.552 28.4579 313.602 27.9705 313.605C27.5898 313.608 27.2436 313.539 26.9144 313.395C26.7231 313.316 26.4829 313.093 26.2656 312.712C25.9736 312.201 25.7703 311.11 25.6656 310.132C25.4329 307.656 25.4357 304.965 25.4193 302.344C25.4099 298.512 25.4508 294.679 25.5411 290.848C25.6223 287.419 25.7261 283.993 25.8784 280.574C25.9958 277.953 26.1198 275.333 26.2606 272.717C26.276 272.431 26.2913 272.144 26.3064 271.858C26.3964 270.144 26.4801 268.429 26.5515 266.712C26.57 266.266 26.5887 265.821 26.6082 265.376C26.6179 265.155 26.6279 264.931 26.6382 264.712C26.6435 264.601 26.6488 264.491 26.6544 264.384C26.6572 264.33 26.6601 264.276 26.663 264.226C26.6645 264.201 26.666 264.176 26.6674 264.156C26.6681 264.146 26.6688 264.136 26.6691 264.133C26.6692 264.131 26.6693 264.13 26.6686 264.138C26.6681 264.142 26.6678 264.147 26.6654 264.165C26.6476 264.218 26.7137 264.084 26.5741 264.507C26.4772 264.762 26.2398 265.008 26.0573 265.109C25.8646 265.23 25.5846 265.295 25.3851 265.284C25.1867 265.282 24.9077 265.2 24.7194 265.063L24.1229 263.879C24.0716 265.672 24.0204 267.466 23.9692 269.26C24.8985 269.287 25.8278 269.313 26.7571 269.34C26.8084 267.546 26.8596 265.752 26.9108 263.958L26.9323 263.205L26.3142 262.774C26.0754 262.602 25.735 262.5 25.4749 262.496C25.2135 262.483 24.8707 262.563 24.6249 262.716C24.392 262.847 24.1129 263.138 23.9941 263.448C23.853 263.875 23.9178 263.751 23.8992 263.809C23.8959 263.835 23.8948 263.847 23.8937 263.857C23.8915 263.879 23.8904 263.892 23.8894 263.904C23.8873 263.931 23.8861 263.947 23.8849 263.965C23.8824 264.001 23.8806 264.032 23.8788 264.062C23.8752 264.123 23.8721 264.181 23.8691 264.239C23.8631 264.353 23.8576 264.467 23.8523 264.58C23.8417 264.805 23.8316 265.031 23.8218 265.254C23.8021 265.702 23.7834 266.149 23.7648 266.596C23.6941 268.299 23.6108 270.005 23.5211 271.711C23.5061 271.996 23.4909 272.282 23.4755 272.567C23.3341 275.196 23.2098 277.823 23.0921 280.45C22.9386 283.897 22.8344 287.34 22.7528 290.782C22.662 294.638 22.6208 298.494 22.6302 302.351C22.6499 305.024 22.6333 307.64 22.8933 310.436C23.049 311.589 23.1184 312.698 23.8485 314.103C24.239 314.783 24.8504 315.537 25.7979 315.951C26.4884 316.256 27.2591 316.402 27.9911 316.394C28.653 316.389 29.316 316.322 29.9641 316.193C30.5479 316.078 31.1296 315.945 31.7079 315.794C32.2492 315.652 32.7902 315.51 33.3311 315.367C33.8634 315.227 34.3975 315.092 34.9331 314.963C35.4726 314.834 36.0152 314.714 36.5605 314.604C37.1229 314.491 37.6887 314.388 38.2571 314.296C38.8829 314.194 39.5059 314.082 40.1264 313.961C40.8817 313.815 41.6072 313.579 42.2914 313.284C43.1934 312.893 43.9344 312.322 44.5603 311.711C45.4628 310.814 46.0381 309.824 46.5296 308.841C47.2532 307.353 47.6897 305.863 48.0637 304.375C48.5899 302.232 48.92 300.096 49.1877 297.962C49.5356 295.147 49.766 292.335 49.9407 289.524C50.1844 285.392 50.2925 281.301 50.3983 277.196C50.4176 276.415 50.4358 275.633 50.453 274.852C50.4898 273.184 50.5258 271.517 50.56 269.849C50.577 269.019 50.5938 268.181 50.6092 267.349C50.6169 266.932 50.6244 266.511 50.631 266.095C50.6344 265.883 50.6375 265.676 50.64 265.465C50.6413 265.356 50.6424 265.255 50.6432 265.144C50.6435 265.093 50.6438 265.034 50.6438 264.978C50.6437 264.944 50.6437 264.926 50.6432 264.884C50.643 264.863 50.6429 264.854 50.6421 264.824C50.6417 264.809 50.6412 264.793 50.6402 264.773C50.6394 264.76 50.6401 264.762 50.636 264.711C50.6338 264.687 50.6316 264.66 50.6228 264.604C50.6033 264.536 50.6331 264.5 50.4782 264.173C50.2959 263.76 49.7027 263.407 49.3808 263.384C49.0494 263.301 48.4277 263.44 48.1348 263.72C47.8389 263.904 47.4946 264.653 47.6079 265.089C47.6326 265.554 48.1363 266.128 48.4456 266.235C48.7688 266.421 49.3937 266.436 49.7204 266.271C50.0978 266.104 50.2384 265.898 50.3271 265.779C50.413 265.652 50.4459 265.571 50.4721 265.509C50.5199 265.387 50.53 265.332 50.5407 265.287C50.5587 265.203 50.561 265.172 50.5647 265.143C50.5704 265.092 50.5713 265.072 50.5727 265.05C50.5749 265.012 50.5759 264.979 50.5761 264.974C50.5769 264.951 50.5775 264.927 50.5781 264.901C50.5794 264.848 50.5805 264.788 50.5811 264.752C50.5824 264.672 50.584 264.546 50.5847 264.474C50.5867 264.296 50.5883 264.112 50.5897 263.931C50.5924 263.566 50.5945 263.211 50.5963 262.845C50.6 262.126 50.6027 261.407 50.6052 260.681C50.6101 259.249 50.6137 257.799 50.6171 256.363C50.6239 253.486 50.6287 250.599 50.6365 247.724C50.637 247.535 50.6376 247.353 50.6382 247.169C50.6385 247.095 50.639 246.973 50.6393 246.893C50.6395 246.857 50.6398 246.801 50.6401 246.753C50.6402 246.73 50.6404 246.711 50.6405 246.695C50.6405 246.692 50.6407 246.667 50.6409 246.659C50.6409 246.654 50.641 246.652 50.6409 246.657C50.6408 246.66 50.6407 246.664 50.6402 246.678C50.6398 246.685 50.6395 246.694 50.6381 246.714C50.6341 246.744 50.6428 246.739 50.611 246.907C50.5996 246.954 50.5918 247.01 50.5341 247.153C50.5014 247.226 50.4625 247.325 50.3334 247.488C50.2106 247.636 49.927 247.943 49.3708 247.997C48.8066 248.045 48.393 247.728 48.2463 247.56C48.0852 247.382 48.036 247.266 47.9971 247.185C47.9283 247.025 47.9209 246.966 47.908 246.915C47.8749 246.746 47.8835 246.748 47.8794 246.718C47.8766 246.677 47.8769 246.672 47.8766 246.663C47.8762 246.65 47.8763 246.651 47.8763 246.652C47.8763 246.653 47.8766 246.681 47.8765 246.681C47.8766 246.693 47.8767 246.707 47.8768 246.724C47.8769 246.754 47.8771 246.817 47.8772 246.841C47.8773 246.902 47.8775 246.98 47.8776 247.065C47.8778 247.187 47.878 247.377 47.8781 247.502C47.8783 247.804 47.8783 248.095 47.8783 248.394C47.8782 249.002 47.8779 249.57 47.8774 250.177C47.8765 251.359 47.8751 252.55 47.8734 253.737C47.8698 256.115 47.8656 258.482 47.8597 260.864C47.8581 261.509 47.8568 262.177 47.8554 262.829C47.8548 263.147 47.8541 263.472 47.8529 263.811C47.8524 263.963 47.8517 264.146 47.8508 264.293C47.8505 264.362 47.8496 264.471 47.849 264.535C47.8488 264.562 47.8481 264.62 47.8476 264.654C47.8473 264.672 47.8471 264.687 47.8469 264.697C47.8469 264.698 47.8462 264.717 47.8467 264.707C47.8472 264.7 47.8469 264.693 47.8512 264.649C47.8547 264.622 47.854 264.599 47.877 264.489C47.8966 264.426 47.8894 264.364 48.0236 264.109C48.1063 263.989 48.2059 263.738 48.7041 263.512C48.9483 263.406 49.3044 263.376 49.5848 263.457C49.8688 263.535 50.0571 263.677 50.1747 263.788C49.8952 263.486 49.2789 263.317 48.9501 263.381C48.6279 263.388 48.0301 263.701 47.8248 264.092C47.6446 264.417 47.6736 264.459 47.6497 264.528C47.6375 264.585 47.6338 264.613 47.6304 264.637C47.6236 264.689 47.6245 264.687 47.623 264.701C47.621 264.721 47.6198 264.737 47.6187 264.753C47.6165 264.784 47.6161 264.793 47.6149 264.813C47.6126 264.856 47.6119 264.874 47.6104 264.908C47.608 264.964 47.6058 265.023 47.6041 265.074C47.6002 265.185 47.5972 265.287 47.5941 265.395C47.588 265.606 47.5828 265.813 47.5776 266.025C47.5675 266.441 47.5582 266.862 47.5493 267.278C47.5317 268.11 47.5154 268.948 47.4997 269.778C47.4681 271.445 47.438 273.112 47.4058 274.779C47.3838 275.919 47.3588 277.054 47.3293 278.191C47.2293 281.911 47.1229 285.648 46.9041 289.332C46.7327 292.095 46.5069 294.851 46.1706 297.579C45.9145 299.632 45.5975 301.675 45.1192 303.633C44.7833 304.988 44.381 306.332 43.8227 307.49C43.4345 308.288 42.9745 309.04 42.4604 309.552C42.0323 309.979 41.571 310.319 41.1048 310.52C40.5965 310.741 40.0743 310.907 39.5441 311.009C38.9484 311.124 38.3518 311.231 37.7544 311.329C37.1503 311.427 36.547 311.537 35.9451 311.658C35.3652 311.775 34.7866 311.903 34.2099 312.041C33.6539 312.175 33.0991 312.314 32.5456 312.461C32.0098 312.602 31.4739 312.743 30.9379 312.883C30.426 313.018 29.9101 313.137 29.3909 313.242C28.9284 313.336 28.4639 313.39 28.0015 313.402C27.6494 313.41 27.3324 313.355 27.0367 313.235C26.9038 313.187 26.6833 312.993 26.4842 312.641C26.2099 312.158 26.0142 311.07 25.9139 310.115C25.6856 307.64 25.6894 304.959 25.6731 302.345C25.6638 298.515 25.7048 294.685 25.795 290.855C25.8583 288.17 25.9363 285.488 26.0397 282.808C26.0684 282.066 26.099 281.325 26.1322 280.584C26.1996 279.076 26.2668 277.574 26.3341 276.067L26.3335 276.08C26.3938 274.961 26.454 273.845 26.5144 272.726C26.5747 271.606 26.6349 270.49 26.6952 269.372ZM24.0311 269.228L26.6952 269.372L26.7571 269.34L23.9692 269.26L24.0311 269.228Z" fill="#392316"/>
        <path d="M1543.19 556.776C1544.42 559.32 1544.53 562.671 1545.37 565.878C1545.47 566.272 1545.29 566.616 1544.91 566.811C1544.41 567.06 1543.91 566.944 1543.5 566.624C1543.02 566.244 1542.77 565.701 1542.81 565.144C1542.94 563.63 1542.32 562.25 1541.93 560.835C1541.58 559.59 1541.3 558.352 1541.14 557.062C1540.95 555.437 1540.27 553.858 1539.81 552.261C1539.47 551.06 1539.64 550.441 1540.31 550.423C1541.29 550.395 1541.38 551.133 1541.58 551.723C1542.08 553.218 1542.54 554.729 1543.19 556.781L1543.19 556.776Z" fill="#053F28"/>
        <path d="M1525.31 554.881C1525.47 554.932 1525.78 554.975 1525.99 555.13C1526.56 555.535 1526.95 556.065 1527.19 556.688C1527.76 558.085 1528.8 559.213 1529.86 560.33C1530.92 561.442 1531.94 562.58 1532.93 563.739C1533.22 564.088 1533.43 564.529 1533.56 564.956C1533.63 565.171 1533.5 565.512 1533.33 565.697C1533.05 565.991 1532.62 566.052 1532.21 565.907C1531.94 565.807 1531.63 565.665 1531.47 565.464C1529.52 563.008 1527.24 560.782 1525.47 558.214C1524.92 557.413 1524.51 556.599 1524.45 555.666C1524.43 555.281 1524.7 554.989 1525.31 554.893L1525.31 554.881Z" fill="#053F28"/>
        <path d="M1532.41 558.953C1531.91 557.39 1531.51 556.152 1531.13 554.912C1530.98 554.456 1531.04 554.016 1531.34 553.597C1531.54 553.317 1532.19 553.244 1532.39 553.505C1532.44 553.582 1532.55 553.634 1532.57 553.713C1533.8 557.405 1535.91 560.818 1536.77 564.627C1536.81 564.81 1536.85 564.988 1536.88 565.169C1536.94 565.572 1536.78 565.882 1536.39 566.09C1535.99 566.307 1535.4 566.075 1535.17 565.577C1534.13 563.291 1532.77 561.109 1532.4 558.956L1532.41 558.953Z" fill="#053F28"/>
        <path d="M579.681 649.851C580.577 651.703 580.656 654.144 581.27 656.479C581.343 656.766 581.207 657.016 580.932 657.158C580.568 657.339 580.207 657.255 579.909 657.022C579.555 656.745 579.374 656.35 579.406 655.944C579.495 654.842 579.048 653.837 578.761 652.807C578.51 651.9 578.301 650.998 578.19 650.059C578.048 648.876 577.554 647.726 577.221 646.563C576.971 645.689 577.098 645.238 577.579 645.225C578.296 645.205 578.361 645.742 578.507 646.172C578.871 647.26 579.207 648.36 579.682 649.854L579.681 649.851Z" fill="#053F28"/>
        <path d="M566.66 648.471C566.773 648.508 567.002 648.539 567.157 648.652C567.567 648.947 567.85 649.333 568.031 649.787C568.446 650.804 569.201 651.626 569.973 652.439C570.743 653.248 571.487 654.077 572.204 654.921C572.422 655.175 572.57 655.496 572.664 655.807C572.714 655.964 572.619 656.212 572.497 656.347C572.295 656.561 571.979 656.605 571.685 656.499C571.487 656.427 571.262 656.324 571.142 656.177C569.727 654.389 568.067 652.768 566.777 650.898C566.376 650.315 566.078 649.722 566.036 649.042C566.015 648.762 566.213 648.549 566.658 648.48L566.66 648.471Z" fill="#053F28"/>
        <path d="M571.825 651.436C571.463 650.297 571.172 649.397 570.89 648.494C570.784 648.161 570.824 647.841 571.043 647.536C571.189 647.332 571.667 647.279 571.81 647.469C571.85 647.525 571.927 647.563 571.945 647.62C572.84 650.308 574.372 652.794 575.002 655.568C575.031 655.701 575.058 655.83 575.077 655.962C575.124 656.256 575.004 656.481 574.722 656.633C574.433 656.791 574 656.622 573.834 656.259C573.076 654.595 572.09 653.005 571.817 651.438L571.825 651.436Z" fill="#053F28"/>
        <path d="M705.978 188.801C706.873 190.654 706.953 193.094 707.567 195.429C707.64 195.716 707.504 195.967 707.229 196.108C706.865 196.29 706.504 196.205 706.206 195.973C705.852 195.696 705.671 195.3 705.703 194.895C705.792 193.792 705.344 192.787 705.058 191.757C704.807 190.851 704.598 189.949 704.487 189.01C704.345 187.827 703.851 186.677 703.518 185.514C703.268 184.64 703.395 184.189 703.876 184.176C704.593 184.155 704.658 184.693 704.804 185.122C705.168 186.211 705.504 187.311 705.979 188.805L705.978 188.801Z" fill="#053F28"/>
        <path d="M692.957 187.422C693.069 187.459 693.299 187.49 693.454 187.603C693.864 187.898 694.147 188.284 694.328 188.738C694.743 189.755 695.498 190.577 696.27 191.39C697.04 192.2 697.784 193.028 698.501 193.872C698.719 194.126 698.867 194.448 698.961 194.758C699.011 194.915 698.916 195.163 698.794 195.298C698.592 195.512 698.276 195.556 697.981 195.451C697.784 195.378 697.559 195.275 697.439 195.128C696.024 193.34 694.364 191.719 693.073 189.849C692.673 189.266 692.375 188.673 692.333 187.993C692.312 187.713 692.51 187.501 692.955 187.431L692.957 187.422Z" fill="#053F28"/>
        <path d="M698.122 190.387C697.76 189.249 697.469 188.348 697.187 187.445C697.081 187.112 697.121 186.792 697.34 186.487C697.486 186.284 697.964 186.23 698.107 186.42C698.147 186.476 698.223 186.514 698.242 186.572C699.137 189.26 700.669 191.745 701.299 194.519C701.327 194.652 701.355 194.782 701.374 194.913C701.421 195.207 701.301 195.433 701.019 195.584C700.73 195.742 700.297 195.573 700.131 195.211C699.373 193.546 698.387 191.957 698.113 190.39L698.122 190.387Z" fill="#053F28"/>
        <path d="M1289.32 488.287C1289.98 492.514 1291.31 496.596 1292.64 500.678C1292.73 500.936 1292.8 501.211 1292.97 501.438C1293.25 501.837 1293.65 502.133 1294.22 501.934C1294.73 501.756 1295.07 501.357 1294.99 500.872C1294.84 499.982 1294.69 499.065 1294.34 498.23C1293.04 495.075 1292.24 491.808 1291.47 488.524C1291.41 488.26 1291.37 487.979 1291.26 487.737C1291.05 487.289 1290.67 486.993 1290.1 487.036C1289.58 487.074 1289.18 487.715 1289.32 488.287H1289.32Z" fill="#053F28"/>
        <path d="M1283 492.186C1283.17 493 1283.38 493.971 1283.58 494.941C1284.12 497.508 1284.71 500.064 1285.98 502.447C1286.2 502.857 1286.34 503.283 1286.78 503.547C1287.15 503.762 1287.57 503.806 1287.91 503.601C1288.13 503.471 1288.29 503.186 1288.35 502.943C1288.49 502.388 1288.24 501.881 1287.98 501.385C1286.6 498.748 1285.93 495.933 1285.41 493.086C1285.3 492.45 1285.15 491.852 1284.79 491.296C1284.56 490.957 1284.24 490.735 1283.82 490.784C1283.24 490.849 1283.04 491.264 1283.01 491.755C1283.01 491.846 1283.01 491.938 1283.01 492.186H1283Z" fill="#053F28"/>
        <path d="M1448.43 176.745C1448.43 176.625 1448.43 177.047 1448.5 177.469C1448.57 177.935 1448.91 178.237 1449.4 178.313C1449.88 178.382 1450.31 178.193 1450.64 177.866C1451.07 177.45 1451.15 176.934 1451.22 176.405C1451.83 171.915 1452.46 167.432 1453.06 162.942C1453.1 162.64 1453.09 162.281 1452.94 162.029C1452.8 161.777 1452.47 161.513 1452.17 161.456C1451.88 161.399 1451.47 161.519 1451.22 161.695C1450.96 161.872 1450.73 162.193 1450.68 162.476C1449.91 166.84 1449.18 171.204 1448.45 175.574C1448.41 175.781 1448.45 175.995 1448.45 176.745H1448.43Z" fill="#053F28"/>
        <path d="M1447.09 167.11C1446.97 166.254 1446.95 165.618 1446.76 165.026C1446.69 164.805 1446.24 164.56 1445.96 164.553C1445.68 164.547 1445.2 164.755 1445.12 164.969C1444.79 165.75 1444.51 166.562 1444.37 167.387C1443.87 170.384 1443.43 173.394 1443.01 176.404C1442.92 176.996 1443.38 177.437 1443.97 177.556C1444.61 177.689 1445.12 177.323 1445.33 176.794C1445.56 176.209 1445.61 175.56 1445.79 174.956C1446.6 172.311 1446.26 169.528 1447.09 167.11Z" fill="#053F28"/>
        <path d="M107.313 558.708C107.307 558.613 107.313 558.948 107.368 559.283C107.423 559.653 107.689 559.893 108.082 559.953C108.464 560.008 108.801 559.858 109.067 559.598C109.405 559.268 109.466 558.858 109.527 558.438C110.008 554.873 110.506 551.314 110.982 547.749C111.016 547.509 111.01 547.224 110.894 547.024C110.778 546.824 110.517 546.614 110.279 546.569C110.052 546.524 109.726 546.619 109.527 546.759C109.322 546.899 109.134 547.154 109.095 547.379C108.486 550.844 107.905 554.308 107.324 557.778C107.296 557.943 107.324 558.113 107.324 558.708H107.313Z" fill="#053F28"/>
        <path d="M106.25 551.058C106.15 550.378 106.134 549.873 105.984 549.403C105.929 549.228 105.575 549.033 105.353 549.028C105.126 549.023 104.75 549.188 104.684 549.358C104.423 549.978 104.196 550.623 104.086 551.278C103.693 553.658 103.339 556.048 103.006 558.438C102.94 558.908 103.3 559.258 103.77 559.353C104.274 559.458 104.684 559.168 104.85 558.748C105.032 558.283 105.071 557.768 105.215 557.288C105.857 555.188 105.586 552.978 106.25 551.058Z" fill="#053F28"/>
        <path d="M1332.31 603.804C1332.31 603.709 1332.31 604.044 1332.37 604.379C1332.42 604.749 1332.69 604.989 1333.08 605.049C1333.46 605.104 1333.8 604.954 1334.07 604.694C1334.4 604.364 1334.47 603.954 1334.53 603.534C1335.01 599.969 1335.51 596.409 1335.98 592.845C1336.02 592.605 1336.01 592.32 1335.89 592.12C1335.78 591.92 1335.52 591.71 1335.28 591.665C1335.05 591.62 1334.73 591.715 1334.53 591.855C1334.32 591.995 1334.13 592.25 1334.09 592.475C1333.49 595.939 1332.9 599.404 1332.32 602.874C1332.3 603.039 1332.32 603.209 1332.32 603.804H1332.31Z" fill="#053F28"/>
        <path d="M1331.25 596.154C1331.15 595.474 1331.13 594.969 1330.98 594.499C1330.93 594.324 1330.57 594.129 1330.35 594.124C1330.13 594.119 1329.75 594.284 1329.68 594.454C1329.42 595.074 1329.2 595.719 1329.09 596.374C1328.69 598.754 1328.34 601.144 1328.01 603.534C1327.94 604.004 1328.3 604.353 1328.77 604.448C1329.27 604.553 1329.68 604.264 1329.85 603.844C1330.03 603.379 1330.07 602.864 1330.21 602.384C1330.86 600.284 1330.59 598.074 1331.25 596.154Z" fill="#053F28"/>
        <path d="M451.687 136.614C451.693 136.519 451.687 136.854 451.632 137.189C451.577 137.559 451.311 137.799 450.918 137.859C450.536 137.914 450.199 137.764 449.933 137.504C449.595 137.174 449.534 136.764 449.473 136.344C448.992 132.78 448.494 129.22 448.018 125.655C447.984 125.415 447.99 125.13 448.106 124.93C448.222 124.73 448.483 124.52 448.721 124.475C448.948 124.43 449.274 124.525 449.473 124.665C449.678 124.805 449.866 125.06 449.905 125.285C450.514 128.75 451.095 132.215 451.676 135.684C451.704 135.849 451.676 136.019 451.676 136.614H451.687Z" fill="#053F28"/>
        <path d="M452.75 128.965C452.85 128.285 452.866 127.78 453.016 127.31C453.071 127.135 453.425 126.94 453.647 126.935C453.874 126.93 454.25 127.095 454.316 127.265C454.577 127.885 454.804 128.53 454.914 129.185C455.307 131.564 455.661 133.954 455.994 136.344C456.06 136.814 455.7 137.164 455.23 137.259C454.726 137.364 454.316 137.074 454.15 136.654C453.968 136.189 453.929 135.674 453.785 135.194C453.143 133.094 453.414 130.884 452.75 128.965Z" fill="#053F28"/>
        <path d="M932.817 648.478C934.047 651.022 934.156 654.374 934.999 657.581C935.1 657.975 934.913 658.319 934.535 658.513C934.035 658.762 933.54 658.647 933.13 658.327C932.644 657.947 932.396 657.404 932.439 656.847C932.562 655.333 931.947 653.953 931.554 652.538C931.209 651.293 930.922 650.055 930.77 648.765C930.574 647.14 929.896 645.56 929.439 643.963C929.095 642.763 929.269 642.144 929.93 642.126C930.915 642.098 931.005 642.836 931.205 643.426C931.705 644.921 932.167 646.431 932.819 648.483L932.817 648.478Z" fill="#053F28"/>
        <path d="M914.936 646.583C915.091 646.634 915.407 646.677 915.619 646.832C916.182 647.238 916.571 647.767 916.819 648.39C917.389 649.788 918.427 650.916 919.486 652.033C920.544 653.145 921.566 654.283 922.551 655.442C922.85 655.79 923.053 656.232 923.182 656.659C923.251 656.874 923.12 657.214 922.953 657.4C922.675 657.693 922.242 657.755 921.837 657.61C921.566 657.509 921.257 657.368 921.092 657.166C919.149 654.711 916.869 652.485 915.096 649.916C914.546 649.116 914.137 648.302 914.079 647.368C914.051 646.983 914.323 646.691 914.934 646.595L914.936 646.583Z" fill="#053F28"/>
        <path d="M922.035 650.656C921.538 649.092 921.138 647.855 920.75 646.615C920.605 646.158 920.66 645.718 920.961 645.299C921.161 645.02 921.817 644.946 922.014 645.208C922.069 645.284 922.174 645.336 922.199 645.415C923.429 649.107 925.533 652.521 926.398 656.33C926.437 656.513 926.475 656.69 926.501 656.871C926.566 657.274 926.4 657.584 926.014 657.793C925.617 658.009 925.021 657.777 924.794 657.279C923.753 654.993 922.399 652.811 922.023 650.659L922.035 650.656Z" fill="#053F28"/>
        <path d="M207.434 650.248C207.427 650.129 207.434 650.55 207.504 650.972C207.573 651.438 207.908 651.741 208.403 651.816C208.884 651.885 209.309 651.696 209.644 651.369C210.069 650.953 210.146 650.437 210.222 649.908C210.829 645.419 211.456 640.935 212.056 636.446C212.098 636.143 212.091 635.784 211.944 635.533C211.798 635.281 211.47 635.016 211.171 634.96C210.885 634.903 210.473 635.022 210.222 635.199C209.965 635.375 209.728 635.696 209.679 635.98C208.912 640.343 208.18 644.707 207.448 649.077C207.413 649.285 207.448 649.499 207.448 650.248H207.434Z" fill="#053F28"/>
        <path d="M206.094 640.613C205.968 639.757 205.947 639.121 205.759 638.529C205.689 638.309 205.243 638.063 204.964 638.057C204.679 638.05 204.205 638.258 204.121 638.472C203.793 639.253 203.507 640.065 203.368 640.89C202.873 643.888 202.427 646.898 202.009 649.907C201.925 650.499 202.378 650.94 202.971 651.06C203.605 651.192 204.121 650.827 204.33 650.298C204.56 649.712 204.609 649.064 204.79 648.459C205.599 645.814 205.257 643.031 206.094 640.613Z" fill="#053F28"/>
        <path d="M1247.31 659.723C1247.31 659.628 1247.31 659.963 1247.37 660.298C1247.42 660.668 1247.69 660.908 1248.08 660.968C1248.46 661.023 1248.8 660.873 1249.07 660.613C1249.4 660.283 1249.47 659.873 1249.53 659.453C1250.01 655.888 1250.51 652.328 1250.98 648.763C1251.02 648.523 1251.01 648.238 1250.89 648.039C1250.78 647.839 1250.52 647.629 1250.28 647.584C1250.05 647.539 1249.73 647.634 1249.53 647.774C1249.32 647.914 1249.13 648.169 1249.09 648.393C1248.49 651.858 1247.9 655.323 1247.32 658.793C1247.3 658.958 1247.32 659.128 1247.32 659.723H1247.31Z" fill="#053F28"/>
        <path d="M1246.25 652.072C1246.15 651.393 1246.13 650.888 1245.98 650.418C1245.93 650.243 1245.57 650.048 1245.35 650.043C1245.13 650.038 1244.75 650.203 1244.68 650.373C1244.42 650.993 1244.2 651.637 1244.09 652.292C1243.69 654.672 1243.34 657.062 1243.01 659.452C1242.94 659.922 1243.3 660.272 1243.77 660.367C1244.27 660.472 1244.68 660.182 1244.85 659.762C1245.03 659.297 1245.07 658.782 1245.21 658.302C1245.86 656.202 1245.59 653.992 1246.25 652.072Z" fill="#053F28"/>
        <path d="M569.978 501.764C570.873 503.617 570.953 506.057 571.567 508.392C571.64 508.679 571.504 508.93 571.229 509.071C570.865 509.252 570.504 509.168 570.206 508.935C569.852 508.659 569.671 508.263 569.703 507.858C569.792 506.755 569.344 505.75 569.058 504.72C568.807 503.813 568.598 502.912 568.487 501.973C568.345 500.79 567.851 499.639 567.518 498.477C567.268 497.603 567.395 497.152 567.876 497.139C568.593 497.118 568.658 497.656 568.804 498.085C569.168 499.174 569.504 500.274 569.979 501.768L569.978 501.764Z" fill="#053F28"/>
        <path d="M556.957 500.385C557.069 500.422 557.299 500.453 557.454 500.566C557.864 500.861 558.147 501.247 558.328 501.701C558.743 502.718 559.498 503.54 560.27 504.353C561.04 505.163 561.784 505.991 562.501 506.835C562.719 507.089 562.867 507.41 562.961 507.721C563.011 507.878 562.916 508.126 562.794 508.261C562.592 508.475 562.276 508.519 561.981 508.414C561.784 508.341 561.559 508.238 561.439 508.091C560.024 506.303 558.364 504.682 557.073 502.812C556.673 502.229 556.375 501.636 556.333 500.956C556.312 500.676 556.51 500.464 556.955 500.394L556.957 500.385Z" fill="#053F28"/>
        <path d="M562.122 503.35C561.76 502.212 561.469 501.311 561.187 500.408C561.081 500.075 561.121 499.755 561.34 499.45C561.486 499.246 561.964 499.193 562.107 499.383C562.147 499.439 562.223 499.477 562.242 499.534C563.137 502.222 564.669 504.708 565.299 507.482C565.327 507.615 565.355 507.744 565.374 507.876C565.421 508.17 565.301 508.395 565.019 508.547C564.73 508.705 564.297 508.536 564.131 508.173C563.373 506.509 562.387 504.919 562.113 503.352L562.122 503.35Z" fill="#053F28"/>
    </g>
    <defs>
        <linearGradient id="paint0_linear_988_375" x1="38.1653" y1="11" x2="38.1653" y2="282.929" gradientUnits="userSpaceOnUse">
            <stop stop-color="#008F58"/>
            <stop offset="0.792668" stop-color="#08623F"/>
        </linearGradient>
        <linearGradient id="paint1_linear_988_375" x1="38.0561" y1="246.549" x2="38.0561" y2="314.325" gradientUnits="userSpaceOnUse">
            <stop offset="0.254808" stop-color="#462D15"/>
            <stop offset="1" stop-color="#7E5023"/>
        </linearGradient>
        <clipPath id="clip0_988_375">
            <rect width="1920" height="708" fill="white"/>
        </clipPath>
    </defs>
</svg>
